<svg width="28" height="28" viewBox="0 0 28 28" fill="none" xmlns="http://www.w3.org/2000/svg">
<path d="M14.0013 0.929199C11.3642 0.929199 8.78636 1.71119 6.5937 3.17627C4.40105 4.64136 2.69208 6.72374 1.68291 9.16009C0.673746 11.5964 0.409701 14.2773 0.924171 16.8637C1.43864 19.4502 2.70852 21.8259 4.57322 23.6906C6.43792 25.5553 8.81369 26.8252 11.4001 27.3397C13.9865 27.8541 16.6674 27.5901 19.1038 26.5809C21.5401 25.5718 23.6225 23.8628 25.0876 21.6701C26.5527 19.4775 27.3346 16.8996 27.3346 14.2625C27.3346 12.5116 26.9898 10.7778 26.3197 9.16009C25.6496 7.54241 24.6675 6.07256 23.4294 4.83444C22.1913 3.59633 20.7214 2.6142 19.1038 1.94414C17.4861 1.27408 15.7523 0.929199 14.0013 0.929199V0.929199ZM13.3346 4.9292C13.7302 4.9292 14.1169 5.0465 14.4458 5.26626C14.7747 5.48602 15.031 5.79838 15.1824 6.16383C15.3338 6.52928 15.3734 6.93142 15.2962 7.31938C15.219 7.70734 15.0286 8.06371 14.7489 8.34341C14.4691 8.62312 14.1128 8.8136 13.7248 8.89077C13.3369 8.96794 12.9347 8.92833 12.5693 8.77696C12.2038 8.62558 11.8915 8.36924 11.6717 8.04034C11.4519 7.71144 11.3346 7.32476 11.3346 6.9292C11.3346 6.39877 11.5454 5.89006 11.9204 5.51499C12.2955 5.13991 12.8042 4.9292 13.3346 4.9292ZM16.668 22.2625H15.3346C14.6274 22.2625 13.9491 21.9816 13.449 21.4815C12.9489 20.9814 12.668 20.3031 12.668 19.5959V14.2625C12.3144 14.2625 11.9752 14.1221 11.7252 13.872C11.4751 13.622 11.3346 13.2828 11.3346 12.9292C11.3346 12.5756 11.4751 12.2364 11.7252 11.9864C11.9752 11.7363 12.3144 11.5959 12.668 11.5959H14.0013C14.3549 11.5959 14.6941 11.7363 14.9441 11.9864C15.1942 12.2364 15.3346 12.5756 15.3346 12.9292V19.5959H16.668C17.0216 19.5959 17.3607 19.7363 17.6108 19.9864C17.8608 20.2364 18.0013 20.5756 18.0013 20.9292C18.0013 21.2828 17.8608 21.622 17.6108 21.872C17.3607 22.1221 17.0216 22.2625 16.668 22.2625Z" fill="url(#paint0_linear_1953_28019)"/>
<defs>
<linearGradient id="paint0_linear_1953_28019" x1="-0.519372" y1="9.138" x2="16.8726" y2="32.3135" gradientUnits="userSpaceOnUse">
<stop stop-color="#7271EF"/>
<stop offset="0.647976" stop-color="#FF5281"/>
<stop offset="0.910069" stop-color="#FF7C52"/>
</linearGradient>
</defs>
</svg>
