<svg width="189" height="59" viewBox="0 0 189 59" fill="none" xmlns="http://www.w3.org/2000/svg">
<g clip-path="url(#clip0_1314_815)">
<path d="M72.0938 11.4365H83.8439V14.1821H79.4099V29.1683H76.5278V14.1821H72.0938V11.4365Z" fill="#26264F"/>
<path d="M85.0631 16.5808C85.3956 15.5512 86.0607 14.5217 86.8367 13.7209C87.6126 12.9201 88.4994 12.2337 89.4971 11.8905C90.3839 11.4329 91.4924 11.2041 92.6009 11.2041C93.7094 11.2041 94.8179 11.4329 95.8156 11.8905C96.8132 12.3481 97.7 13.0345 98.476 13.8353C99.2519 14.6361 99.8062 15.6656 100.25 16.6952C100.693 17.8392 100.915 19.0976 100.915 20.2416C100.915 21.5 100.693 22.6439 100.25 23.9023C99.917 24.9319 99.2519 25.9615 98.5868 26.7623C97.8109 27.5631 96.9241 28.2495 95.9264 28.7071C94.9287 29.1647 93.8202 29.3935 92.6009 29.3935C91.3815 29.3935 90.3839 29.1647 89.2754 28.7071C88.2777 28.2495 87.3909 27.5631 86.615 26.7623C85.839 25.9615 85.2848 24.9319 84.9522 23.9023C84.5088 22.7583 84.2871 21.5 84.2871 20.2416C84.398 18.9832 84.6197 17.7248 85.0631 16.5808ZM87.9452 23.4447C88.3886 24.3599 89.0537 25.1607 89.8296 25.6183C90.7164 26.1903 91.6032 26.4191 92.6009 26.4191C93.5985 26.4191 94.5962 26.1903 95.3722 25.6183C96.1481 25.0463 96.8132 24.3599 97.2566 23.4447C97.7 22.4151 97.9217 21.3856 97.9217 20.2416C97.9217 19.0976 97.7 18.068 97.2566 17.0384C96.8132 16.1232 96.1481 15.3224 95.3722 14.8649C94.4853 14.2929 93.5985 14.0641 92.6009 14.0641C91.6032 14.0641 90.6056 14.2929 89.8296 14.8649C89.0537 15.4368 88.3886 16.1232 87.9452 17.0384C87.5018 18.068 87.2801 19.0976 87.2801 20.2416C87.2801 21.2712 87.5018 22.4151 87.9452 23.4447Z" fill="#26264F"/>
<path d="M105.239 16.2413C105.239 16.9276 105.35 17.4996 105.572 18.186C105.793 18.758 106.126 19.2156 106.569 19.4444C107.013 19.7876 107.567 19.902 108.232 19.902L107.789 22.5332C106.791 22.5332 105.682 22.3044 104.796 21.7324C104.02 21.1604 103.355 20.474 103.022 19.5588C102.579 18.5292 102.357 17.4996 102.468 16.4701V11.4365H105.35V16.2413H105.239ZM108.232 20.0164H113.109V22.6476H107.789L108.232 20.0164ZM114.661 11.4365V29.1683H111.668V11.4365H114.661Z" fill="#26264F"/>
<path d="M120.983 11.4365V29.1683H117.99V11.4365H120.983ZM131.403 11.4365L123.644 19.7876L131.181 29.1683H127.523L119.986 19.7876L127.745 11.4365H131.403Z" fill="#26264F"/>
<path d="M137.494 22.8747V23.5611L135.166 29.1666H131.951L140.265 10.4053L148.69 29.1666H145.475L143.147 23.7899L143.036 23.1035L140.265 16.4684L137.494 22.8747ZM136.274 22.0739H144.256L144.81 24.5907H135.72L136.274 22.0739Z" fill="#26264F"/>
<path d="M75.1961 39.1201V56.8519H72.2031V39.1201H75.1961ZM85.7269 39.1201L77.9674 47.4712L85.5052 56.8519H81.8471L74.3093 47.4712L82.0688 39.1201H85.7269Z" fill="#26264F"/>
<path d="M91.94 50.6755V51.3619L89.5013 56.9674H86.1758L94.7113 38.2061L103.247 56.9674H99.9212L97.5934 51.5907L97.4825 50.9043L94.7113 44.2692L91.94 50.6755ZM90.7207 49.7603H98.8127L99.367 52.2771H90.0555L90.7207 49.7603Z" fill="#26264F"/>
<path d="M105.239 44.0392C105.239 44.7256 105.35 45.2976 105.572 45.984C105.793 46.556 106.126 47.0136 106.569 47.2424C107.013 47.5856 107.567 47.7 108.232 47.7L107.789 50.3312C106.791 50.3312 105.682 50.1024 104.796 49.5304C104.02 48.9584 103.355 48.272 103.022 47.3568C102.579 46.3272 102.357 45.2976 102.468 44.268V39.1201H105.35V44.0392H105.239ZM108.232 47.7H113.109V50.3312H107.789L108.232 47.7ZM114.661 39.1201V56.8519H111.668V39.1201H114.661Z" fill="#26264F"/>
<path d="M120.763 39.1201V56.8519H117.881V39.1201H120.763ZM119.765 39.1201H128.412V41.7513H119.765V39.1201ZM119.765 46.0984H127.968V48.6152H119.765V46.0984ZM119.765 54.2207H128.412V56.8519H119.765V54.2207Z" fill="#26264F"/>
<path d="M134.285 51.2436C134.728 52.1588 135.504 52.8451 136.28 53.4171C137.167 53.8747 138.053 54.2179 139.051 54.2179C139.716 54.2179 140.492 54.1035 141.157 53.8747C141.712 53.6459 142.377 53.4171 142.82 52.9595C143.263 52.6163 143.707 52.1588 144.15 51.7012V55.2475C143.485 55.8195 142.709 56.2771 141.933 56.6203C140.936 56.9635 139.938 57.0779 138.94 57.0779C137.832 57.0779 136.723 56.8491 135.615 56.3915C134.617 55.9339 133.73 55.3619 132.954 54.5611C132.178 53.7603 131.624 52.7307 131.181 51.7012C130.294 49.4132 130.294 46.782 131.181 44.3797C131.624 43.3501 132.178 42.3205 132.954 41.5197C133.73 40.7189 134.617 40.0325 135.615 39.6893C136.723 39.2317 137.832 39.0029 138.94 39.0029C139.938 39.0029 140.936 39.1173 141.933 39.4605C142.709 39.8037 143.485 40.2613 144.15 40.8333V44.3797C143.818 43.9221 143.374 43.4645 142.82 43.1213C142.266 42.7781 141.712 42.4349 141.157 42.2061C140.492 41.9773 139.827 41.8629 139.051 41.8629C138.053 41.8629 137.167 42.0917 136.28 42.6637C135.393 43.2357 134.728 43.9221 134.285 44.8373C133.73 45.8668 133.509 47.0108 133.509 48.0404C133.509 49.07 133.841 50.214 134.285 51.2436Z" fill="#26264F"/>
<path d="M146.473 39.1201H158.223V41.8657H153.789V56.8519H150.907V41.8657H146.473V39.1201Z" fill="#26264F"/>
<path d="M162.772 46.2109H165.543C165.986 46.2109 166.541 46.0965 166.984 45.9821C167.317 45.8677 167.649 45.5245 167.982 45.1813C168.203 44.8381 168.314 44.3805 168.314 43.9229C168.314 43.5797 168.314 43.2365 168.093 43.0077C167.982 42.6645 167.76 42.4357 167.538 42.2069C166.984 41.7493 166.319 41.5205 165.543 41.6349H163.437V54.4475H165.876C166.43 54.4475 167.095 54.3332 167.649 54.1044C168.093 53.8756 168.536 53.5324 168.868 53.0748C169.09 52.6172 169.312 52.1596 169.312 51.702C169.312 51.2444 169.201 50.6724 169.09 50.2148C168.979 49.8716 168.647 49.5284 168.425 49.2996C168.093 49.0708 167.76 48.842 167.317 48.7276C166.873 48.6132 166.43 48.6132 165.986 48.6132H162.883V47.0117H166.097C166.873 47.0117 167.649 47.1261 168.425 47.2404C169.09 47.3548 169.755 47.698 170.42 48.1556C170.975 48.4988 171.418 49.0708 171.751 49.6428C172.083 50.3292 172.305 51.0156 172.194 51.8164C172.305 52.846 171.972 53.7612 171.418 54.6763C170.864 55.4771 170.088 56.1635 169.201 56.3923C168.203 56.7355 167.095 56.9643 165.986 56.9643H160.555V39.1182H165.765C166.762 39.1182 167.76 39.2326 168.647 39.5758C169.423 39.8046 170.088 40.3765 170.642 41.0629C171.085 41.7493 171.418 42.6645 171.307 43.5797C171.307 44.3805 171.085 45.1813 170.642 45.8677C170.088 46.5541 169.423 47.0117 168.647 47.2404C167.76 47.5836 166.762 47.698 165.765 47.698H162.772V46.2109Z" fill="#26264F"/>
<path d="M178.513 50.6755V51.3619L176.074 56.9674H172.859L181.284 38.2061L189.709 56.9674H186.494L184.166 51.5907L184.055 50.9043L181.284 44.2692L178.513 50.6755ZM177.183 49.7603H185.164L185.718 52.2771H176.628L177.183 49.7603Z" fill="#26264F"/>
<path d="M29.4188 0.567383C18.6663 6.05851 8.91144 13.2656 0.597656 22.1887C2.37126 35.2301 5.69678 47.0131 11.5718 57.0802C23.322 59.025 35.4047 59.025 47.1548 57.0802C52.5865 46.098 56.3554 34.3149 58.129 22.1887C50.1478 13.6088 40.393 6.5161 29.4188 0.567383Z" fill="#26264F"/>
<path d="M14.4492 23.3311H28.0838V26.5342H22.8739V43.5796H19.5483V26.5342H14.4492V23.3311Z" fill="white"/>
<path d="M33.6336 23.3311V43.5796H30.1973V23.3311H33.6336ZM45.2729 23.3311L36.6266 32.8261L45.0512 43.5796H40.9498L32.5251 32.9405L41.2823 23.3311H45.2729Z" fill="white"/>
</g>
<defs>
<clipPath id="clip0_1314_815">
<rect width="189" height="58" fill="white" transform="translate(0.597656 0.567383)"/>
</clipPath>
</defs>
</svg>
