<svg width="81" height="80" viewBox="0 0 81 80" fill="none" xmlns="http://www.w3.org/2000/svg">
<path d="M55.8936 22.5144L40.1485 38.2595L24.4034 22.5144L22.6629 24.255L38.408 40.0001L22.6629 55.7452L24.4034 57.4858L40.1485 41.7407L55.8936 57.4858L57.6342 55.7452L41.8891 40.0001L57.6342 24.255L55.8936 22.5144Z" fill="#DB4141"/>
<path fill-rule="evenodd" clip-rule="evenodd" d="M80.1484 40C80.1484 62.0914 62.2398 80 40.1484 80C18.0571 80 0.148438 62.0914 0.148438 40C0.148438 17.9086 18.0571 0 40.1484 0C62.2398 0 80.1484 17.9086 80.1484 40ZM78.9177 40C78.9177 61.4117 61.5601 78.7692 40.1484 78.7692C18.7368 78.7692 1.37921 61.4117 1.37921 40C1.37921 18.5883 18.7368 1.23077 40.1484 1.23077C61.5601 1.23077 78.9177 18.5883 78.9177 40Z" fill="#DB4141"/>
</svg>
