<svg width="164" height="164" viewBox="0 0 164 164" fill="none" xmlns="http://www.w3.org/2000/svg">
<path d="M106.145 58.8125H138.69C145.02 58.8125 151.09 61.3012 155.566 65.7311C160.042 70.161 162.557 76.1692 162.557 82.4341C162.557 88.6989 160.042 94.7072 155.566 99.1371C151.09 103.567 145.02 106.056 138.69 106.056H106.145M25.8665 58.8125C19.5367 58.8125 13.4662 61.3012 8.99034 65.7311C4.5145 70.161 2 76.1692 2 82.4341C2 88.6989 4.5145 94.7072 8.99034 99.1371C13.4662 103.567 19.5367 106.056 25.8665 106.056" stroke="url(#paint0_linear_1953_26076)" stroke-width="2.46" stroke-linecap="round" stroke-linejoin="round" stroke-dasharray="4 4"/>
<path opacity="0.5" d="M105.743 58.4118V25.8665C105.743 19.5367 103.229 13.4662 98.7528 8.99034C94.277 4.5145 88.2064 2 81.8766 2C75.5468 2 69.4763 4.5145 65.0005 8.99034C60.5246 13.4662 58.0101 19.5367 58.0101 25.8665V58.4118M58.0101 58.4118H25.4648M58.0101 58.4118V106.145M25.4648 106.145H58.0101M58.0101 106.145V138.69C58.0101 145.02 60.5246 151.09 65.0005 155.566C69.4763 160.042 75.5468 162.557 81.8766 162.557C88.2064 162.557 94.277 160.042 98.7528 155.566C103.229 151.09 105.743 145.02 105.743 138.69V106.145H58.0101Z" stroke="#0E1014" stroke-width="2.46" stroke-linecap="round" stroke-linejoin="round"/>
<defs>
<linearGradient id="paint0_linear_1953_26076" x1="40.9919" y1="58.8125" x2="100.612" y2="141.083" gradientUnits="userSpaceOnUse">
<stop stop-color="#7271EF"/>
<stop offset="0.530555" stop-color="#FF5281"/>
<stop offset="0.822917" stop-color="#FF5281"/>
<stop offset="0.984375" stop-color="#FF7C52"/>
</linearGradient>
</defs>
</svg>
