<svg width="165" height="160" viewBox="0 0 165 160" fill="none" xmlns="http://www.w3.org/2000/svg">
<path d="M91.6933 4.85627C89.4414 3.60923 87.17 2.3796 84.8796 1.167L84.3077 2.25482L83.2183 1.68211C83.0267 1.58137 82.8349 1.48075 82.6431 1.38024C82.4482 1.47653 82.2534 1.573 82.0588 1.66966L80.9565 2.21712L80.4101 1.11693C78.0893 2.28069 75.7851 3.47155 73.4979 4.6895L74.0795 5.77145L72.9955 6.35419C72.2464 6.75685 71.4992 7.16245 70.7538 7.57097L69.6745 8.16253L69.0841 7.08537C66.8128 8.34193 64.5591 9.62574 62.3234 10.9368L62.949 11.9939L61.8898 12.6207C61.158 13.0538 60.4282 13.4898 59.7004 13.9287L58.6465 14.5644L58.0121 13.5126C55.7953 14.8618 53.5969 16.2384 51.4177 17.6423L52.0871 18.6721L51.0552 19.3429C50.3424 19.8062 49.6316 20.2725 48.923 20.7418L47.8968 21.4213L47.2187 20.3972C45.0613 21.8386 42.9235 23.3073 40.8057 24.8035L41.5186 25.8037L40.5163 26.518C39.8241 27.0114 39.1341 27.5077 38.4463 28.007L37.4503 28.73L36.7288 27.7361C34.6361 29.2685 32.5638 30.8285 30.5126 32.4158L31.2684 33.384L30.2982 34.1413C29.6283 34.6643 28.9606 35.1902 28.2952 35.7192L27.3318 36.485L26.5676 35.5236C24.5446 37.1457 22.543 38.7953 20.5633 40.4723L21.3612 41.406L20.4255 42.2056C19.7795 42.7576 19.1358 43.3126 18.4945 43.8705L17.566 44.6784L16.7599 43.7519C14.8117 45.4617 12.8857 47.1989 10.9825 48.9635L11.8213 49.8605L10.9224 50.7012C10.3019 51.2815 9.68382 51.8648 9.06824 52.451L8.17696 53.2998L7.33003 52.4105C5.46136 54.2056 3.6157 56.0279 1.7936 57.8775L2.67221 58.7355L1.8123 59.616C1.65549 59.7766 1.49885 59.9374 1.34239 60.0984C1.37402 60.3199 1.40582 60.5413 1.43779 60.7626L1.6138 61.9807L0.397563 62.1564C0.776469 64.7227 1.17853 67.2709 1.6048 69.8008L2.81571 69.5925L3.0243 70.8055C3.1681 71.6417 3.31457 72.4758 3.46376 73.3078L3.68099 74.5192L2.47166 74.7361C2.93847 77.2879 3.4311 79.8203 3.95066 82.3328L5.15267 82.0795L5.4065 83.2838C5.58137 84.1135 5.75922 84.9409 5.94008 85.7661L6.20357 86.9683L5.00371 87.2313C5.56907 89.763 6.16311 92.2737 6.78699 94.7629L7.97698 94.4592L8.28131 95.6518C8.49093 96.4732 8.70384 97.2922 8.92009 98.1087L9.23516 99.2985L8.04803 99.6129C8.72296 102.117 9.42957 104.598 10.1691 107.056L11.3431 106.696L11.7034 107.873C11.9514 108.683 12.203 109.491 12.4583 110.296L12.8303 111.469L11.66 111.84C12.4557 114.307 13.2862 116.749 14.1528 119.167L15.3061 118.747L15.7276 119.903C16.0174 120.698 16.3113 121.491 16.6091 122.281L17.0434 123.432L15.8949 123.866C16.8221 126.284 17.7872 128.677 18.7917 131.043L19.9185 130.556L20.4061 131.686C20.7411 132.463 21.0805 133.237 21.4243 134.008L21.9256 135.132L20.8049 135.632C21.8727 137.988 22.9818 140.317 24.1333 142.618L25.227 142.062L25.7847 143.16C26.1677 143.913 26.5553 144.663 26.9477 145.411L27.5198 146.5L26.4336 147.071C27.6493 149.35 28.9091 151.601 30.2143 153.823L31.2677 153.194L31.8983 154.251C32.0172 154.451 32.1364 154.65 32.2561 154.848C32.5141 154.889 32.7721 154.929 33.0302 154.969L34.2465 155.158L34.0583 156.372C36.8319 156.791 39.6117 157.173 42.3964 157.52L42.5434 156.3L43.7654 156.448C44.6619 156.556 45.559 156.66 46.4565 156.76L47.6796 156.897L47.5429 158.118C50.3319 158.42 53.1253 158.685 55.922 158.914L56.0177 157.689L57.2447 157.785C58.145 157.856 59.0457 157.922 59.9467 157.985L61.1745 158.07L61.0891 159.296C63.8884 159.48 66.6905 159.629 69.4941 159.74L69.5385 158.513L70.7685 158.557C71.671 158.59 72.5737 158.619 73.4765 158.644L74.7068 158.678L74.6726 159.906C77.4774 159.973 80.2832 160.005 83.0889 159.999L83.0821 158.771L84.3128 158.764C84.7644 158.762 85.216 158.758 85.6675 158.754C86.0663 158.75 86.465 158.745 86.8638 158.74L88.0944 158.723L88.1109 159.952C90.4925 159.911 92.8735 159.844 95.2534 159.751L95.2007 158.523L96.4304 158.47C97.2272 158.436 98.0239 158.399 98.8204 158.359L100.05 158.297L100.111 159.524C102.49 159.395 104.867 159.24 107.242 159.059L107.144 157.835L108.37 157.737C109.166 157.673 109.96 157.607 110.755 157.537L111.981 157.43L112.088 158.654C114.46 158.437 116.83 158.194 119.196 157.925L119.053 156.705L120.275 156.562C121.067 156.469 121.859 156.373 122.65 156.274L123.872 156.121L124.024 157.34C126.387 157.036 128.746 156.705 131.1 156.348L130.911 155.134L132.127 154.945C132.316 154.916 132.504 154.886 132.693 154.857C132.79 154.666 132.888 154.475 132.985 154.284L133.543 153.187L134.638 153.744C135.796 151.447 136.927 149.137 138.03 146.816L136.919 146.293L137.443 145.18C137.802 144.415 138.159 143.649 138.513 142.882L139.028 141.765L140.144 142.279C141.212 139.939 142.253 137.588 143.265 135.225L142.134 134.746L142.614 133.613C142.944 132.835 143.27 132.056 143.594 131.276L144.065 130.139L145.2 130.609C146.176 128.229 147.123 125.839 148.041 123.438L146.892 123.004L147.327 121.853C147.626 121.062 147.921 120.271 148.214 119.479L148.64 118.324L149.792 118.749C150.673 116.333 151.524 113.906 152.346 111.471L151.18 111.083L151.569 109.915C151.836 109.114 152.099 108.311 152.36 107.508L152.739 106.337L153.907 106.715C154.69 104.266 155.443 101.807 156.165 99.3397L154.985 98.9994L155.326 97.8168C155.56 97.0052 155.79 96.1928 156.018 95.3794L156.349 94.1941L157.532 94.5247C158.214 92.0452 158.865 89.5577 159.485 87.0627L158.292 86.7714L158.584 85.5757C158.784 84.7553 158.981 83.934 159.174 83.112L159.456 81.9139L160.652 82.1953C161.231 79.69 161.778 77.1775 162.293 74.6585L161.089 74.4174L161.33 73.2106C161.496 72.3826 161.658 71.5538 161.817 70.7244L162.048 69.5156L163.255 69.7465C163.728 67.2194 164.168 64.6861 164.576 62.1471L163.362 61.9574L163.552 60.7414C163.586 60.525 163.62 60.3085 163.653 60.092C163.5 59.9341 163.346 59.7764 163.193 59.6188L162.333 58.7381L163.211 57.8805C161.401 56.044 159.56 54.2325 157.689 52.4456L156.845 53.3376L155.951 52.4917C155.337 51.9101 154.719 51.3312 154.097 50.7548L153.195 49.9177L154.03 49.0176C152.133 47.2733 150.206 45.5531 148.251 43.8563L147.45 44.7873L146.517 43.9847C145.876 43.4328 145.231 42.8835 144.583 42.3366L143.643 41.5426L144.435 40.6042C142.46 38.9508 140.456 37.3202 138.426 35.712L137.668 36.6779L136.7 35.9177C136.034 35.3949 135.366 34.8745 134.694 34.3564L133.72 33.6045L134.47 32.6321C132.425 31.0671 130.354 29.5237 128.257 28.0017L127.539 28.9985L126.541 28.2793C125.854 27.7847 125.164 27.2923 124.472 26.8021L123.467 26.0909L124.177 25.0884C122.07 23.6086 119.938 22.1494 117.784 20.7103L117.105 21.7345L116.079 21.0547C115.373 20.5871 114.665 20.1216 113.954 19.6582L112.923 18.9861L113.594 17.9569C111.432 16.5587 109.248 15.18 107.042 13.8204L106.401 14.8686L105.351 14.2265C104.628 13.7846 103.903 13.3448 103.176 12.9069L102.122 12.2721L102.756 11.2194C100.546 9.89889 98.3152 8.59677 96.0641 7.3127L95.4586 8.38201L94.3876 7.77556C93.6504 7.35814 92.9111 6.94264 92.1696 6.52903L91.0947 5.92949L91.6933 4.85627Z" stroke="url(#paint0_linear_1953_26117)" stroke-width="2.46154" stroke-linecap="square" stroke-linejoin="round" stroke-dasharray="2.46 9.85"/>
<g opacity="0.5">
<mask id="path-2-inside-1_1953_26117" fill="white">
<path d="M25.8828 86.7658C25.882 99.7216 30.3734 112.277 38.5918 122.292C46.8101 132.308 58.247 139.164 70.9537 141.693C83.6604 144.221 96.8508 142.266 108.277 136.159C119.704 130.053 128.659 120.173 133.618 108.204C138.577 96.2347 139.233 82.9163 135.473 70.5181C131.713 58.1198 123.771 47.4088 112.999 40.21C102.227 33.0112 89.2925 29.77 76.3989 31.0388C63.5053 32.3075 51.4506 38.0076 42.2886 47.1679"/>
</mask>
<path d="M23.4213 86.7657C23.4204 100.291 28.1092 113.398 36.6888 123.854L40.4947 120.731C32.6375 111.156 28.3435 99.1523 28.3444 86.766L23.4213 86.7657ZM36.6888 123.854C45.2685 134.31 57.2081 141.467 70.4733 144.107L71.4341 139.278C59.286 136.861 48.3518 130.306 40.4947 120.731L36.6888 123.854ZM70.4733 144.107C83.7386 146.746 97.5087 144.705 109.437 138.33L107.117 133.988C96.1928 139.826 83.5823 141.696 71.4341 139.278L70.4733 144.107ZM109.437 138.33C121.366 131.955 130.716 121.641 135.892 109.146L131.344 107.262C126.603 118.705 118.041 128.15 107.117 133.988L109.437 138.33ZM135.892 109.146C141.069 96.6507 141.754 82.747 137.828 69.8037L133.117 71.2324C136.712 83.0857 136.085 95.8186 131.344 107.262L135.892 109.146ZM137.828 69.8037C133.903 56.8605 125.612 45.6787 114.367 38.1634L111.631 42.2566C121.929 49.139 129.523 59.3792 133.117 71.2324L137.828 69.8037ZM114.367 38.1634C103.121 30.6482 89.6182 27.2646 76.1578 28.5891L76.6399 33.4885C88.9668 32.2755 101.333 35.3742 111.631 42.2566L114.367 38.1634ZM76.1578 28.5891C62.6975 29.9136 50.1129 35.8642 40.5481 45.4272L44.029 48.9086C52.7882 40.151 64.3131 34.7014 76.6399 33.4885L76.1578 28.5891Z" fill="#0E1014" mask="url(#path-2-inside-1_1953_26117)"/>
</g>
<circle opacity="0.5" cx="82.4982" cy="86.1535" r="23.3846" stroke="#0E1014" stroke-width="2.46154"/>
<defs>
<linearGradient id="paint0_linear_1953_26117" x1="-7.30418" y1="49.2528" x2="96.1242" y2="191.316" gradientUnits="userSpaceOnUse">
<stop stop-color="#7271EF"/>
<stop offset="0.647976" stop-color="#FF5281"/>
<stop offset="0.910069" stop-color="#FF7C52"/>
</linearGradient>
</defs>
</svg>
