<svg width="169" height="32" viewBox="0 0 169 32" fill="none" xmlns="http://www.w3.org/2000/svg">
<path d="M76.1348 16.0952C76.1348 22.4571 72.2255 25.4749 67.3321 25.4749H64.3523V21.6415H67.1134C70.0658 21.6415 72.0341 20.0646 72.0341 16.068C72.0341 12.1257 70.1752 10.1682 67.0314 10.1682C63.9969 10.1682 61.8373 12.017 61.8373 15.9864V31.9728H57.7367V6.85132H61.8099V9.02634H62.384C63.7509 7.20476 65.7465 6.38913 67.8515 6.38913C72.3622 6.38913 76.1348 9.65166 76.1348 16.0952ZM49.3441 14.4367L46.6377 14.1648C44.5053 13.9745 43.3845 13.4036 43.3845 12.1529C43.3845 10.6848 44.8334 9.84197 46.8837 9.84197C49.016 9.84197 50.3829 10.8479 50.4922 12.2617H54.4015C54.2375 8.61852 51.4217 6.38913 46.911 6.38913C42.373 6.38913 39.3112 8.78165 39.3112 12.2889C39.3112 15.2252 41.1702 17.1283 45.4075 17.5361L48.1686 17.808C49.8361 17.9711 50.957 18.2974 50.957 19.9014C50.957 21.3424 49.9182 22.3755 47.1571 22.3755C44.6147 22.3755 43.3572 21.2336 42.9198 19.6839H38.6825C39.0925 23.1912 42.0723 25.9099 47.1571 25.9099C51.9411 25.9099 55.0303 23.4087 55.0303 19.6839C55.0029 16.4486 52.8433 14.763 49.3441 14.4367ZM91.9084 19.7111C91.2797 21.1793 89.7488 22.2668 87.5618 22.2668C84.582 22.2668 82.3677 20.3365 82.3677 16.1767C82.3677 12.2073 84.418 10.0051 87.6165 10.0051C90.4596 10.0051 92.0725 11.6907 92.2365 14.2464H84.9101V17.1827H96.2551V15.2523C96.2551 9.89635 92.6739 6.41631 87.5891 6.41631C82.8598 6.41631 78.3217 9.62447 78.3217 16.1767C78.3217 22.729 82.8598 25.9371 87.5891 25.9371C91.9085 25.9371 95.0249 23.2727 95.9817 19.7111H91.9084ZM27.6381 6.38913C23.1821 6.38913 19.847 8.70008 19.4369 12.2617H23.8109C24.1116 10.9567 25.3145 9.97791 27.6108 9.97791C30.5632 9.97791 31.5201 11.5276 31.5201 13.4036V19.7655C29.8525 21.6686 27.9115 22.5387 25.9706 22.5387C23.9476 22.5387 22.5534 21.5599 22.5534 19.8471C22.5534 18.1886 23.6469 17.1555 25.7245 17.1555H28.9777V14.2464H25.5878C20.9405 14.2464 18.3161 16.5574 18.3161 20.1189C18.3161 23.4359 20.8311 25.9371 24.9864 25.9371C27.3101 25.9371 29.3604 25.0127 30.8913 23.898H31.4654V25.4749H35.5387V13.0501C35.648 8.4554 32.5042 6.38913 27.6381 6.38913ZM0 25.4749H4.07328V0H0V25.4749ZM17.1132 6.85132H12.1378L6.2056 14.627V17.0467L12.3018 25.4749H17.3593L10.1969 15.8233L17.1132 6.85132ZM164.489 6.85132L161.154 14.2192C160.334 15.9864 159.569 17.7264 159.323 18.8955H158.748C158.502 17.7264 157.71 16.0408 156.89 14.2736L153.554 6.85132H149.044L156.89 23.5718L153.008 32H157.354L169 6.85132H164.489ZM148.142 6.85132H143.166L137.234 14.5998V17.0195L143.33 25.4478H148.388L141.253 15.7961L148.142 6.85132ZM122.608 14.4367L119.902 14.1648C117.77 13.9745 116.649 13.4036 116.649 12.1529C116.649 10.6848 118.098 9.84197 120.148 9.84197C122.28 9.84197 123.647 10.8479 123.757 12.2617H127.666C127.502 8.61852 124.686 6.38913 120.175 6.38913C115.637 6.38913 112.576 8.78165 112.576 12.2889C112.576 15.2252 114.434 17.1283 118.672 17.5361L121.433 17.808C123.1 17.9711 124.221 18.2974 124.221 19.9014C124.221 21.3424 123.182 22.3755 120.421 22.3755C117.879 22.3755 116.621 21.2336 116.184 19.6839H111.947C112.357 23.1912 115.337 25.9099 120.421 25.9099C125.205 25.9099 128.295 23.4087 128.295 19.6839C128.295 16.4486 126.108 14.763 122.608 14.4367ZM131.028 25.4749H135.102V0H131.028V25.4749ZM104.128 9.02634H103.554V6.85132H99.4809V25.4749H103.554V15.7417C103.554 12.4248 105.085 10.4945 108.147 10.4945H110.717V6.38913H109.213C106.397 6.38913 105.194 7.44945 104.128 9.02634Z" fill="#009982"/>
</svg>
