<svg width="438" height="454" viewBox="0 0 438 454" fill="none" xmlns="http://www.w3.org/2000/svg">
<path opacity="0.05" d="M49.9901 219.426C63.265 159.176 86.4324 101.536 120.077 48.6864C187.604 39.9439 250.887 40.5213 308.952 55.9391C334.162 111.137 350.088 170.576 355.855 230.984C308.119 272.414 254.188 306.736 195.911 331.703C142.503 303.932 94.191 265.444 49.9901 219.426Z" fill="#D95BA0"/>
<path opacity="0.15" d="M117.909 333.068C90.8441 277.626 73.15 218.077 66.6402 155.766C114.092 106.933 164.014 68.0379 219.077 44.0098C273.142 71.5667 322.573 108.217 364.649 151.942C353.021 214.071 332.123 274.485 302.004 330.274C242.908 341.731 181.139 341.626 117.909 333.068Z" stroke="black" stroke-linecap="square" stroke-linejoin="round" stroke-dasharray="4 6"/>
<path opacity="0.05" d="M140.909 366.068C113.844 310.626 96.15 251.077 89.6402 188.766C137.092 139.933 187.014 101.038 242.077 77.0098C296.142 104.567 345.573 141.217 387.649 184.942C376.021 247.071 355.123 307.485 325.004 363.274C265.908 374.731 204.139 374.626 140.909 366.068Z" fill="#D95BA0"/>
</svg>
