<svg width="143" height="160" viewBox="0 0 143 160" fill="none" xmlns="http://www.w3.org/2000/svg">
<path d="M40.7881 95.4683C39.314 94.5976 37.8174 93.7468 36.2994 92.9153L35.7081 93.9948C35.1447 93.6862 34.5783 93.3802 34.0089 93.0769C33.4328 93.367 32.8592 93.6614 32.2882 93.96L31.7179 92.8693C30.1857 93.6705 28.672 94.5018 27.1776 95.3632L27.7923 96.4295C26.3096 97.2841 24.8464 98.1686 23.4037 99.083L22.7448 98.0434C21.2855 98.9682 19.8467 99.9234 18.4295 100.909L19.1321 101.919C17.7287 102.895 16.3469 103.901 14.9875 104.937L14.2416 103.958C12.8686 105.004 11.5181 106.08 10.1913 107.187L10.9796 108.132C9.66871 109.225 8.38118 110.348 7.118 111.501L6.28826 110.592C5.01476 111.755 3.76568 112.947 2.542 114.17L3.41188 115.041C2.94857 115.503 2.48894 115.971 2.03306 116.442C2.12702 117.098 2.22462 117.75 2.32596 118.4L1.1099 118.59C1.37917 120.316 1.67478 122.021 1.99867 123.705L3.20729 123.473C3.53423 125.173 3.89005 126.85 4.27672 128.503L3.07829 128.783C3.47593 130.484 3.90609 132.16 4.37095 133.812L5.55568 133.478C6.02323 135.139 6.52596 136.774 7.06605 138.381L5.8994 138.773C6.45478 140.426 7.04952 142.051 7.68601 143.647L8.82927 143.191C9.46521 144.786 10.143 146.351 10.865 147.886L9.7514 148.41C10.4914 149.982 11.2777 151.523 12.1126 153.032L13.1896 152.437C13.5096 153.015 13.8369 153.588 14.1715 154.157C14.8237 154.259 15.4767 154.356 16.1306 154.448L15.9592 155.667C17.6621 155.906 19.3703 156.111 21.0822 156.282L21.2045 155.058C22.8994 155.227 24.5981 155.362 26.299 155.464L26.2256 156.693C27.9425 156.795 29.6615 156.863 31.3813 156.898L31.4058 155.667C33.1092 155.701 34.8133 155.701 36.5167 155.667L36.5411 156.898C38.2609 156.863 39.98 156.795 41.6968 156.693L41.6235 155.464C43.3244 155.362 45.0231 155.227 46.718 155.058L46.8403 156.282C48.5522 156.111 50.2603 155.906 51.9632 155.667L51.7919 154.448C52.4285 154.359 53.0644 154.264 53.6995 154.165C53.9895 153.587 54.2753 153.007 54.5569 152.426L55.6647 152.962C56.4172 151.407 57.1395 149.839 57.8308 148.258L56.7031 147.765C57.3887 146.196 58.0436 144.616 58.6669 143.024L59.8129 143.473C60.4427 141.865 61.0406 140.245 61.6059 138.614L60.443 138.211C61.0034 136.595 61.5314 134.968 62.0263 133.332L63.2043 133.688C63.7043 132.035 64.1708 130.373 64.603 128.702L63.4115 128.394C63.8397 126.738 64.2339 125.075 64.5935 123.404L65.7967 123.662C66.1599 121.975 66.488 120.28 66.7804 118.578L65.5674 118.369C65.678 117.726 65.7834 117.081 65.8836 116.436C65.433 115.97 64.9774 115.507 64.5169 115.049L65.3853 114.177C64.169 112.966 62.9196 111.782 61.6385 110.624L60.8133 111.537C59.5551 110.4 58.2655 109.288 56.9459 108.201L57.7285 107.251C56.4056 106.162 55.0533 105.096 53.6728 104.055L52.9318 105.038C51.5775 104.017 50.1955 103.018 48.7868 102.042L49.4878 101.031C48.0801 100.055 46.6465 99.1023 45.1883 98.1708L44.5258 99.2081C43.0952 98.2943 41.6403 97.4011 40.1622 96.528L40.7881 95.4683Z" stroke="url(#paint0_linear_1953_26121)" stroke-width="2.46154" stroke-dasharray="4.92 4.92"/>
<path opacity="0.5" d="M20.1534 99.0074C18.7263 93.2374 17.603 87.2479 16.7305 81.0623C29.1804 68.1793 43.7884 57.7737 59.8904 49.8457C76.3244 58.4344 90.9323 68.6748 102.884 81.0623C100.228 98.57 94.5843 115.582 86.4503 131.438C78.1278 132.766 71.1723 133.466 62.7323 133.538" stroke="#0E1014" stroke-width="2.46154"/>
<path opacity="0.5" d="M42.8155 60.6874C41.1821 53.9889 39.8923 47.0406 38.8867 39.8685C53.471 24.6848 70.5832 12.421 89.4455 3.07715C108.697 13.1996 125.809 25.2688 139.81 39.8685C136.698 60.5028 130.087 80.5531 120.559 99.2408C113.059 100.445 105.482 101.211 97.884 101.539" stroke="#0E1014" stroke-width="2.46154"/>
<defs>
<linearGradient id="paint0_linear_1953_26121" x1="20.1398" y1="115.572" x2="49.0969" y2="142.131" gradientUnits="userSpaceOnUse">
<stop stop-color="#7271EF"/>
<stop offset="0.765625" stop-color="#FF5281"/>
<stop offset="0.947917" stop-color="#FF5281"/>
<stop offset="0.979167" stop-color="#FF7C52"/>
</linearGradient>
</defs>
</svg>
