<svg width="63" height="62" viewBox="0 0 63 62" fill="none" xmlns="http://www.w3.org/2000/svg">
<path fill-rule="evenodd" clip-rule="evenodd" d="M6.47555 17.533C13.7808 10.2279 25.6519 10.2279 32.957 17.533L32.957 17.5332C40.262 24.8384 40.262 36.6438 32.8919 43.9494C26.9564 49.885 18.0206 50.9288 10.9762 47.2107L3.21429 49.8195C1.5837 50.4068 0.0836441 48.8413 0.605505 47.2107L3.21429 39.4488C-0.503791 32.3392 0.539932 23.4687 6.47555 17.533ZM17.7593 39.3833C17.7593 40.6227 18.738 41.6664 20.0424 41.6664C21.3469 41.6664 22.3906 40.6227 22.3255 39.3833C22.3255 38.1439 21.2818 37.1002 20.0424 37.1002C18.803 37.1002 17.7593 38.0789 17.7593 39.3833ZM23.1731 32.274C23.8255 31.8172 24.7387 31.1653 25.6518 29.9259C27.0213 28.0344 27.217 25.5558 26.3038 23.3382C25.1295 21.0557 22.7814 19.6857 19.977 19.6857C15.5414 19.6857 13.2588 22.6859 12.802 25.882C12.6718 26.5345 13.1932 27.1214 13.8457 27.1214H15.5414C16.0633 27.1214 16.5201 26.7302 16.5851 26.2083C16.8463 25.034 17.5637 23.5339 19.977 23.5339C21.8683 23.5339 22.5858 24.5125 22.912 25.0995C23.3033 26.0125 23.2382 26.9907 22.7163 27.7082C22.1294 28.4257 21.6726 28.817 21.0857 29.2083C19.6512 30.1865 18.542 31.2302 18.2812 34.1002C18.2162 34.7522 18.6725 35.274 19.325 35.274H20.9556C21.4774 35.274 21.9342 34.8177 21.9993 34.2958C22.0644 33.0565 22.3906 32.7958 23.1731 32.274ZM59.7648 39.4486L62.3735 47.2105V47.2111C62.9609 48.7762 61.3953 50.3418 59.8298 49.8199L52.0678 47.2761C46.9805 49.8849 41.0449 50.1462 35.8267 47.8631L36.3486 47.3412C40.7187 42.9059 43.1973 37.0358 43.1973 30.774C43.1973 24.4467 40.7191 18.5766 36.2836 14.1415C36.153 14.0109 35.9574 13.8153 35.7617 13.6847C42.6104 10.6191 50.9592 11.9235 56.5686 17.5329C62.4391 23.4684 63.4828 32.4043 59.7648 39.4486Z" fill="url(#paint0_linear_1953_32424)"/>
<defs>
<linearGradient id="paint0_linear_1953_32424" x1="-2.26056" y1="23.7183" x2="17.2454" y2="66.2484" gradientUnits="userSpaceOnUse">
<stop stop-color="#7271EF"/>
<stop offset="0.647976" stop-color="#FF5281"/>
<stop offset="0.910069" stop-color="#FF7C52"/>
</linearGradient>
</defs>
</svg>
