<svg width="62" height="62" viewBox="0 0 62 62" fill="none" xmlns="http://www.w3.org/2000/svg">
<path fill-rule="evenodd" clip-rule="evenodd" d="M43.4503 11.3642L31.0432 4.90967L18.6367 11.3642L31.0432 17.7955L43.4503 11.3642ZM25.1602 21.7952V17.0327L31.0005 20.0699L36.8408 17.0327V21.7952C35.169 23.0881 33.1143 23.7895 31.0005 23.7895C28.8867 23.7895 26.832 23.0882 25.1602 21.7952ZM7.63746 45.7497C9.87075 45.7497 11.6812 43.9398 11.6812 41.7066C11.6812 39.4733 9.87075 37.6628 7.63746 37.6628C5.40417 37.6628 3.59375 39.4733 3.59375 41.7066C3.59375 43.9398 5.40417 45.7497 7.63746 45.7497ZM35.0444 41.7606C35.0444 43.9939 33.234 45.8038 31.0007 45.8038C28.7675 45.8038 26.957 43.9939 26.957 41.7606C26.957 39.5273 28.7675 37.7169 31.0007 37.7169C33.234 37.7169 35.0444 39.5273 35.0444 41.7606ZM58.4077 41.7606C58.4077 43.9939 56.5973 45.8038 54.364 45.8038C52.1307 45.8038 50.3203 43.9939 50.3203 41.7606C50.3203 39.5273 52.1307 37.7169 54.364 37.7169C56.5973 37.7169 58.4077 39.5273 58.4077 41.7606ZM31.0008 47.2059C28.9763 47.2107 27.0364 48.0168 25.605 49.4482C24.1736 50.8795 23.3675 52.8195 23.3633 54.844V57.0905H38.6393L38.6388 54.844C38.6346 52.8195 37.8285 50.8795 36.3971 49.4482C34.9658 48.0168 33.0258 47.2107 31.0013 47.2059H31.0008ZM48.9682 49.4482C50.3996 48.0168 52.3395 47.2107 54.3639 47.2059C56.3884 47.2107 58.3282 48.0168 59.7596 49.4482C61.1909 50.8795 61.997 52.8195 62.0013 54.844V57.0905H46.7266V54.844C46.7308 52.8195 47.5368 50.8795 48.9682 49.4482ZM7.63749 47.1517C5.61245 47.1533 3.6705 47.9584 2.23857 49.3903C0.806089 50.8228 0.00108254 52.7643 0 54.7898V57.0363H15.2761L15.2755 54.7898C15.2745 52.7642 14.4694 50.8222 13.037 49.3903C11.605 47.9584 9.66294 47.1534 7.63804 47.1517H7.63749ZM29.6506 30.8161H8.98351L8.98433 34.8604H6.28906V28.1208H55.7099V34.8604H53.0146V30.8161H32.3475V34.8604H29.6506V30.8161Z" fill="url(#paint0_linear_1953_32428)"/>
<defs>
<linearGradient id="paint0_linear_1953_32428" x1="-2.76062" y1="20.9725" x2="29.2447" y2="71.6473" gradientUnits="userSpaceOnUse">
<stop stop-color="#7271EF"/>
<stop offset="0.647976" stop-color="#FF5281"/>
<stop offset="0.910069" stop-color="#FF7C52"/>
</linearGradient>
</defs>
</svg>
