<svg width="62" height="62" viewBox="0 0 62 62" fill="none" xmlns="http://www.w3.org/2000/svg">
<path fill-rule="evenodd" clip-rule="evenodd" d="M44.1137 5.94339V33.8964L33.7945 48.5914H6.75589C3.49036 48.5914 0.8125 45.9136 0.8125 42.648V5.94339C0.8125 2.67786 3.49036 0 6.75589 0H38.1704C41.4359 0 44.1137 2.67786 44.1137 5.94339ZM22.8225 12.0825C22.561 12.0825 22.3 12.2784 22.3 12.6051H22.3653V14.8912C22.3653 15.1527 22.5612 15.4137 22.8878 15.4137H35.95C36.2115 15.4137 36.4725 15.1522 36.4725 14.8912V12.6051C36.4725 12.3436 36.2766 12.0825 35.95 12.0825H22.8225ZM22.8225 23.4467C22.561 23.4467 22.3 23.7082 22.3 23.9693H22.3653V26.2554C22.3653 26.5169 22.5612 26.7779 22.8878 26.7779H35.95C36.2115 26.7779 36.4725 26.5164 36.4725 26.2554V23.9693C36.4725 23.7078 36.2766 23.4467 35.95 23.4467H22.8225ZM13.6787 40.297L19.9488 33.0475L19.9487 33.0474C20.2753 32.7207 20.2102 32.133 19.8175 31.8064L18.9683 30.9572C18.6417 30.5654 18.054 30.5654 17.6622 30.9572L12.8946 35.7248L10.7394 33.5043C10.3476 33.1777 9.82505 33.1777 9.43326 33.5043L8.58408 34.3535C8.25789 34.6802 8.19229 35.2027 8.51893 35.5945L12.2419 40.2318C12.6336 40.6887 13.2869 40.6887 13.6787 40.297ZM13.6787 28.9331L19.9488 21.6836L19.9487 21.6835C20.2753 21.3569 20.2102 20.7687 19.8175 20.5077L18.9683 19.6585C18.6417 19.2667 18.054 19.2667 17.6622 19.6585L12.8946 24.4261L10.7394 22.2056C10.3476 21.879 9.82505 21.879 9.43326 22.2056L8.58408 23.0548C8.25789 23.3815 8.19229 23.904 8.51893 24.2958L12.2419 28.9331C12.6336 29.3249 13.2869 29.3905 13.6787 28.9331ZM13.6787 17.634L19.9488 10.3845L19.9487 10.3844C20.2753 9.99256 20.2102 9.40488 19.8175 9.14338L18.9683 8.2942C18.6417 7.96756 18.054 7.96756 17.6622 8.2942L12.8946 13.0618L10.7394 10.9065C10.3476 10.5147 9.82505 10.5147 9.43326 10.9065L8.58408 11.7557C8.25789 12.0824 8.19229 12.6049 8.51893 12.9967L12.2419 17.634C12.6336 18.0258 13.2869 18.0914 13.6787 17.634ZM22.3 35.2677V37.5538H22.3001C22.3001 37.8804 22.5616 38.0763 22.8878 38.0763H35.95C36.2115 38.0763 36.4725 37.8804 36.4725 37.5538V35.2677C36.4725 35.0062 36.2766 34.7451 35.95 34.7451H22.8225C22.561 34.7451 22.3 34.941 22.3 35.2677ZM44.2449 55.1223L36.7344 49.8322L49.2737 32.002L56.8498 37.2925L44.2449 55.1223ZM60.701 29.7165L55.0843 25.7325C54.5618 25.3407 53.8433 25.4715 53.4515 25.9936L51.0352 29.3899L58.5457 34.6799L60.962 31.2836C61.3538 30.8267 61.2236 30.1084 60.701 29.7165ZM33.0781 55.5144C33.0781 55.2529 33.1433 54.9262 33.3392 54.6652L34.9069 52.3795L42.4174 57.604L40.8498 59.8901C40.7191 60.1516 40.458 60.3475 40.1314 60.4127L35.1679 61.9147C34.2535 62.2413 33.4043 61.588 33.3392 60.6737L33.0781 55.5144Z" fill="url(#paint0_linear_1953_32422)"/>
<defs>
<linearGradient id="paint0_linear_1953_32422" x1="-1.87582" y1="19.0854" x2="38.8481" y2="71.9315" gradientUnits="userSpaceOnUse">
<stop stop-color="#7271EF"/>
<stop offset="0.647976" stop-color="#FF5281"/>
<stop offset="0.910069" stop-color="#FF7C52"/>
</linearGradient>
</defs>
</svg>
