<svg width="62" height="55" viewBox="0 0 62 55" fill="none" xmlns="http://www.w3.org/2000/svg">
<path d="M30 49C30 52.0376 27.5379 54.5 24.5 54.5C21.4624 54.5 19 52.0376 19 49C19 45.9624 21.4624 43.5 24.5 43.5C27.538 43.5 30 45.9624 30 49Z" fill="url(#paint0_linear_1953_26009)"/>
<path d="M52 49C52 52.0376 49.5376 54.5 46.5 54.5C43.4624 54.5 41 52.0376 41 49C41 45.9624 43.4624 43.5 46.5 43.5C49.5376 43.5 52 45.9624 52 49Z" fill="url(#paint1_linear_1953_26009)"/>
<path d="M61.3647 10.1731C60.7773 9.38889 59.8633 8.99683 58.8839 8.99683H16.5162L15.0149 2.91864C14.6883 1.48027 13.3828 0.5 11.9466 0.5H3.13339C1.37068 0.5 0 1.9379 0 3.63713C0 5.33636 1.43619 6.77426 3.13339 6.77426L9.46569 6.77472L17.2994 38.0818C17.6259 39.5197 18.9314 40.5 20.3676 40.5H52.7472C54.1834 40.5 55.489 39.5198 55.8154 38.0818L61.8863 12.8531C62.1477 11.9381 61.9526 10.9577 61.3647 10.1731ZM43.2817 31.7416L40.9316 33.4409C40.54 33.7677 39.9526 33.6369 39.6261 33.2448L35.8398 28.016L34.2729 29.9768C33.6199 30.761 32.3143 30.4346 32.1186 29.4539L29.7033 17.3624C29.5075 16.3166 30.6172 15.5324 31.5312 16.0554L42.2373 22.1336C43.1513 22.6565 43.0206 23.9636 42.1066 24.3557L39.7565 25.3359L43.5428 30.5647C43.8042 30.8916 43.6733 31.4804 43.2817 31.7416Z" fill="url(#paint2_linear_1953_26009)"/>
<defs>
<linearGradient id="paint0_linear_1953_26009" x1="-2.76057" y1="17.1228" x2="30.8359" y2="68.5239" gradientUnits="userSpaceOnUse">
<stop stop-color="#7271EF"/>
<stop offset="0.647976" stop-color="#FF5281"/>
<stop offset="0.910069" stop-color="#FF7C52"/>
</linearGradient>
<linearGradient id="paint1_linear_1953_26009" x1="-2.76057" y1="17.1228" x2="30.8359" y2="68.5239" gradientUnits="userSpaceOnUse">
<stop stop-color="#7271EF"/>
<stop offset="0.647976" stop-color="#FF5281"/>
<stop offset="0.910069" stop-color="#FF7C52"/>
</linearGradient>
<linearGradient id="paint2_linear_1953_26009" x1="-2.76057" y1="17.1228" x2="30.8359" y2="68.5239" gradientUnits="userSpaceOnUse">
<stop stop-color="#7271EF"/>
<stop offset="0.647976" stop-color="#FF5281"/>
<stop offset="0.910069" stop-color="#FF7C52"/>
</linearGradient>
</defs>
</svg>
