<svg width="62" height="62" viewBox="0 0 62 62" fill="none" xmlns="http://www.w3.org/2000/svg">
<path fill-rule="evenodd" clip-rule="evenodd" d="M61.0211 56.1916L48.4906 43.661C52.0802 39.0927 54.1684 33.3495 54.1684 27.0842C54.234 12.1389 42.0295 0 27.0842 0C12.1389 0 0 12.1389 0 27.0842C0 42.0295 12.1389 54.2337 27.0842 54.2337C33.3497 54.2337 39.0926 52.08 43.661 48.5559L56.1916 61.0211C57.4967 62.3263 59.7155 62.3263 61.0211 61.0211C62.3263 59.6504 62.3263 57.4967 61.0211 56.1916ZM6.85275 27.0842C6.85275 15.9244 15.9243 6.85263 27.0843 6.85263C38.2445 6.85263 47.3811 15.9242 47.3811 27.0842C47.3811 38.2444 38.3096 47.381 27.0843 47.381C15.8591 47.381 6.85275 38.3095 6.85275 27.0842ZM33.6112 18.7305C33.6112 22.3352 30.6895 25.2568 27.0849 25.2568C23.4808 25.2568 20.5586 22.3352 20.5586 18.7305C20.5586 15.1264 23.4808 12.2042 27.0849 12.2042C30.6895 12.2042 33.6112 15.1264 33.6112 18.7305ZM28.4548 34.1978L31.3915 26.8884H31.3918C34.3287 27.6063 36.6781 30.0214 36.8083 33.1539L37.3956 36.9392C37.5912 38.0486 36.7427 39.0929 35.5682 39.158C31.3914 39.3537 22.4503 39.3537 18.2735 39.158C17.0989 39.158 16.2504 38.1137 16.4461 36.9392L17.0334 33.1539C17.4248 30.0209 19.7093 27.6063 22.646 26.8884L25.5827 34.1978L26.2355 28.9116H25.844C25.5827 28.9116 25.387 28.7154 25.387 28.4545V27.0187C25.387 26.7574 25.5832 26.5616 25.844 26.5616H28.1935C28.4548 26.5616 28.6506 26.7579 28.6506 27.0187V28.4545C28.6506 28.7158 28.4544 28.9116 28.1935 28.9116H27.802L28.4548 34.1978Z" fill="url(#paint0_linear_1953_32420)"/>
<defs>
<linearGradient id="paint0_linear_1953_32420" x1="-2.76057" y1="19.0854" x2="37.6758" y2="72.9685" gradientUnits="userSpaceOnUse">
<stop stop-color="#7271EF"/>
<stop offset="0.647976" stop-color="#FF5281"/>
<stop offset="0.910069" stop-color="#FF7C52"/>
</linearGradient>
</defs>
</svg>
