<svg width="62" height="62" viewBox="0 0 62 62" fill="none" xmlns="http://www.w3.org/2000/svg">
<path fill-rule="evenodd" clip-rule="evenodd" d="M31.4499 0L45.5405 6.5455L59.631 13.1818L45.5405 19.7273L31.4499 26.3636L17.3594 19.7273L7.54133 15.1819V49.4545H2.35938V39.0911H4.99569V14.0001L3.26833 13.1818L17.3589 6.54555L31.4499 0ZM39.6315 47.8184C40.4497 46.4548 42.4495 47.6367 41.7225 49.0003C39.5407 52.8186 35.4499 55.0914 30.9954 55.0914C26.6317 55.0914 22.5409 52.8187 20.3591 49.0003C19.6317 47.6368 21.6319 46.4548 22.4501 47.8184C24.1775 50.8185 27.45 52.7274 30.9955 52.7274C34.6318 52.7274 37.8134 50.8185 39.632 47.8184H39.6315ZM38.6316 37.0912C37.0864 37.0912 35.9044 38.2732 35.9044 39.7275C35.9044 41.2727 37.0864 42.4547 38.6316 42.4547C40.086 42.4547 41.3588 41.2727 41.3588 39.7275C41.3588 38.2731 40.086 37.0912 38.6316 37.0912ZM23.4505 37.0912C24.905 37.0912 26.1777 38.2732 26.1777 39.7275C26.1777 41.2727 24.905 42.4547 23.4505 42.4547C21.9961 42.4547 20.7233 41.2727 20.7233 39.7275C20.7233 38.2731 21.9961 37.0912 23.4505 37.0912ZM46.6318 30.9094C49.0865 34.182 50.4501 38.1819 50.4501 42.5454C50.4501 53.2726 41.8135 62 30.9954 62C20.2683 62 11.6316 53.2727 11.6316 42.5454C11.6316 37.9093 13.1769 33.6364 15.9045 30.2728C15.5408 29.5454 15.3592 28.7275 15.3592 27.818V21.1817L31.4503 28.7271L47.5414 21.1817V27.818C47.5414 29 47.1777 29.9999 46.6324 30.9089L46.6318 30.9094ZM18.1772 33.0912C16.2683 35.7275 15.0863 39.0001 15.0863 42.5456C15.0863 51.3637 22.268 58.4552 30.9959 58.4552C39.814 58.4552 46.9962 51.3643 46.9962 42.5456C46.9962 39.1818 45.9964 36.0909 44.1782 33.5458C37.8148 38.0003 24.0881 37.8187 18.1782 33.0913L18.1772 33.0912Z" fill="url(#paint0_linear_1953_32432)"/>
<defs>
<linearGradient id="paint0_linear_1953_32432" x1="-0.190661" y1="19.0854" x2="41.0307" y2="69.8255" gradientUnits="userSpaceOnUse">
<stop stop-color="#7271EF"/>
<stop offset="0.647976" stop-color="#FF5281"/>
<stop offset="0.910069" stop-color="#FF7C52"/>
</linearGradient>
</defs>
</svg>
