<svg width="62" height="62" viewBox="0 0 62 62" fill="none" xmlns="http://www.w3.org/2000/svg">
<path d="M30.972 60C36.709 60.005 42.3182 58.3089 47.0909 55.1258C51.8636 51.9422 55.5846 47.4153 57.7838 42.1163C59.9829 36.8179 60.5609 30.9863 59.4451 25.3587C58.3293 19.7311 55.5693 14.5615 51.5149 10.5035C47.4601 6.44492 42.2929 3.68051 36.6666 2.5593C31.0402 1.43808 25.2081 2.01064 19.9078 4.2048C14.6071 6.39895 10.0768 10.1159 6.88914 14.8855C3.70141 19.6551 2 25.263 2 30.9998C2.00677 38.684 5.06091 46.0525 10.492 51.4882C15.9231 56.924 23.2889 59.9851 30.9724 59.9996L30.972 60ZM28.277 13.4014C28.277 12.4385 28.7905 11.5488 29.6243 11.0674C30.4581 10.5859 31.4859 10.5859 32.3198 11.0674C33.1536 11.5488 33.667 12.4385 33.667 13.4014V31.1628L40.9709 38.4396C41.4812 38.9459 41.7682 39.6344 41.7682 40.3531C41.7682 41.0718 41.4812 41.7604 40.9709 42.2666C40.4647 42.7769 39.7761 43.0638 39.0575 43.0638C38.3388 43.0638 37.6501 42.7769 37.144 42.2666L29.0586 34.1812C28.5541 33.6727 28.2726 32.9842 28.2771 32.2677L28.277 13.4014Z" fill="url(#paint0_linear_1953_32426)"/>
<defs>
<linearGradient id="paint0_linear_1953_32426" x1="-0.582421" y1="19.8541" x2="37.2453" y2="70.2602" gradientUnits="userSpaceOnUse">
<stop stop-color="#7271EF"/>
<stop offset="0.647976" stop-color="#FF5281"/>
<stop offset="0.910069" stop-color="#FF7C52"/>
</linearGradient>
</defs>
</svg>
