<svg width="62" height="62" viewBox="0 0 62 62" fill="none" xmlns="http://www.w3.org/2000/svg">
<path fill-rule="evenodd" clip-rule="evenodd" d="M19.5039 13.8856C19.5039 20.4732 24.9288 28.6106 31.2581 28.6106C37.5872 28.6106 43.0124 20.4732 43.0124 13.8856C43.0124 7.42721 37.7163 2.13135 31.2581 2.13135C24.7993 2.13135 19.5039 7.42744 19.5039 13.8856ZM20.6678 25.2522C20.6678 29.6437 17.1805 34.9398 12.9179 34.9398C8.52643 34.9398 5.16797 29.7734 5.16797 25.2522C5.16797 20.9896 8.65526 17.5023 12.9179 17.5023C17.1805 17.5023 20.6678 20.9896 20.6678 25.2522ZM27.901 32.0981H34.1012L34.1007 32.0979C43.143 32.0979 50.6343 40.1068 50.8924 50.1813V58.5773C50.8924 59.2229 50.3757 59.8689 49.6009 59.8689H12.5298C11.755 59.8689 11.2383 59.2233 11.2383 58.5773V49.7939C11.3676 45.1437 13.0465 40.7522 16.0176 37.523C19.1176 34.0358 23.3802 32.0981 27.901 32.0981ZM49.3437 17.6316C53.6063 17.6316 57.0936 21.1189 57.0936 25.3815C57.0936 29.7734 53.6063 34.9398 49.3437 35.0691C45.081 35.0691 41.5938 29.773 41.5938 25.3815C41.5938 21.1189 45.081 17.6316 49.3437 17.6316ZM0 47.7275V52.6357C0 53.4106 0.646022 53.9273 1.29156 53.9273L8.6541 53.798V50.0521C8.78339 45.2728 10.3332 40.7519 13.0456 37.1354L10.721 37.1358C7.87921 37.1358 5.16681 38.2981 3.10036 40.365C1.16274 42.3022 0 44.8857 0 47.7275ZM48.6953 36.619H51.0203V36.6189C56.8326 36.4896 61.7408 41.269 61.9994 47.0813V51.7314C61.9994 52.3769 61.3539 53.0229 60.7079 53.0229L53.4746 53.1522V49.6649C53.3453 44.7564 51.5371 40.1063 48.6953 36.619Z" fill="url(#paint0_linear_1953_32430)"/>
<defs>
<linearGradient id="paint0_linear_1953_32430" x1="-2.76054" y1="19.9047" x2="34.0688" y2="72.6038" gradientUnits="userSpaceOnUse">
<stop stop-color="#7271EF"/>
<stop offset="0.647976" stop-color="#FF5281"/>
<stop offset="0.910069" stop-color="#FF7C52"/>
</linearGradient>
</defs>
</svg>
