<?xml version="1.0" encoding="utf-8"?><svg xmlns="http://www.w3.org/2000/svg" xmlns:xlink="http://www.w3.org/1999/xlink"><symbol viewBox="0 0 24 22" id="arrow-down" xmlns="http://www.w3.org/2000/svg"><path d="M23 1.5l-10.997 9L1 1.5M23 11.5l-10.997 9L1 11.5"/></symbol><symbol viewBox="0 0 24 22" id="arrow-down-2" xmlns="http://www.w3.org/2000/svg"><path d="M23 1.5l-10.997 9L1 1.5M23 11.5l-10.997 9L1 11.5"/></symbol><symbol viewBox="0 0 14 14" id="arrow-down-fatty" xmlns="http://www.w3.org/2000/svg"><g opacity=".6"><path d="M12.25 3.365L7.002 7.808 1.75 3.365M12.25 7.808L7.002 12.25 1.75 7.808"/></g></symbol><symbol viewBox="0 0 11 22" id="arrow-left" xmlns="http://www.w3.org/2000/svg"><path d="M9.461 21L1 11.003 9.46 1"/></symbol><symbol viewBox="0 0 16 8" id="arrow-left-long" xmlns="http://www.w3.org/2000/svg"><path d="M.646 3.646a.5.5 0 000 .708l3.182 3.182a.5.5 0 10.708-.708L1.707 4l2.829-2.828a.5.5 0 10-.708-.708L.646 3.646zM16 3.5H1v1h15v-1z"/></symbol><symbol viewBox="0 0 9 18" id="arrow-left-small" xmlns="http://www.w3.org/2000/svg"><path d="M8.385 17.048L1.615 9.05l6.77-8.002"/></symbol><symbol viewBox="0 0 25 24" id="clip" xmlns="http://www.w3.org/2000/svg"><path d="M6.37 12.583l6.789-6.789a3.6 3.6 0 115.092 5.092l-8.062 8.06a1.8 1.8 0 01-2.545-2.545l7.212-7.212a.6.6 0 00-.849-.85l-7.212 7.213a3 3 0 004.242 4.243l8.062-8.06a4.8 4.8 0 00-6.788-6.79l-6.79 6.79a.6.6 0 00.848.848h.002z"/></symbol><symbol viewBox="0 0 10 11" id="cross" xmlns="http://www.w3.org/2000/svg"><path d="M9.3.901L.433 9.768m0-8.867L9.3 9.768"/></symbol><symbol viewBox="0 0 14 15" id="dzen" xmlns="http://www.w3.org/2000/svg"><path d="M8.35 8.419c-1.1 1.135-1.18 2.55-1.275 5.65 2.89 0 4.885-.01 5.915-1.01 1-1.03 1.01-3.12 1.01-5.915-3.1.1-4.515.175-5.65 1.275zM0 7.144c0 2.795.01 4.885 1.01 5.915 1.03 1 3.025 1.01 5.915 1.01-.1-3.1-.175-4.515-1.275-5.65C4.515 7.319 3.1 7.239 0 7.144zM6.925.069c-2.885 0-4.885.01-5.915 1.01C.01 2.109 0 4.199 0 6.994c3.1-.1 4.515-.175 5.65-1.275 1.1-1.135 1.18-2.55 1.275-5.65zm1.425 5.65c-1.1-1.135-1.18-2.55-1.275-5.65 2.89 0 4.885.01 5.915 1.01 1 1.03 1.01 3.12 1.01 5.915-3.1-.1-4.515-.175-5.65-1.275z"/></symbol><symbol viewBox="0 0 16 16" id="instagram" xmlns="http://www.w3.org/2000/svg"><path d="M8 4.319a3.75 3.75 0 100 7.5 3.75 3.75 0 000-7.5zm0 6.25a2.5 2.5 0 112.5-2.5 2.508 2.508 0 01-2.5 2.5zM11.438.256H4.561A4.375 4.375 0 00.188 4.631v6.875a4.375 4.375 0 004.375 4.375h6.875a4.375 4.375 0 004.376-4.375V4.631A4.375 4.375 0 0011.436.256zm3.124 11.25a3.124 3.124 0 01-3.124 3.125H4.561a3.126 3.126 0 01-3.125-3.125V4.631a3.125 3.125 0 013.125-3.125h6.875a3.125 3.125 0 013.126 3.125v6.875zM13 4.006a.938.938 0 11-1.875 0 .938.938 0 011.875 0z"/></symbol><symbol viewBox="0 0 17 16" id="linkedin" xmlns="http://www.w3.org/2000/svg"><path d="M3.783 2.235A1.667 1.667 0 11.45 2.234a1.667 1.667 0 013.333.001zm.05 2.9H.5V15.57h3.333V5.135zm5.267 0H5.783V15.57h3.284v-5.475c0-3.05 3.975-3.334 3.975 0v5.475h3.291V8.96c0-5.141-5.883-4.95-7.266-2.425l.033-1.4z"/></symbol><symbol viewBox="0 0 12 7" id="one-arrow-down" xmlns="http://www.w3.org/2000/svg"><path d="M11 .779L5.752 5.22.5.78"/></symbol><symbol viewBox="0 0 14 12" id="telegram" xmlns="http://www.w3.org/2000/svg"><path d="M.854 5.841L3.79 6.937l1.136 3.655c.073.234.36.32.55.165l1.636-1.334a.488.488 0 01.595-.016l2.952 2.143a.346.346 0 00.542-.21L13.364.94A.346.346 0 0012.9.545L.85 5.194a.346.346 0 00.004.647zm3.89.513l5.738-3.534c.103-.064.209.076.12.158L5.866 7.38a.982.982 0 00-.304.587l-.161 1.196c-.021.16-.246.175-.29.021l-.62-2.18a.578.578 0 01.252-.65z"/></symbol><symbol viewBox="0 0 18 15" id="twitter" xmlns="http://www.w3.org/2000/svg"><path d="M17.717 2.069a7.14 7.14 0 01-2.05.575A3.582 3.582 0 0017.233.661a7.2 7.2 0 01-2.266.875C14.308.819 13.383.402 12.333.402a3.57 3.57 0 00-3.558 3.575c0 .284.033.559.092.817A10.162 10.162 0 011.5 1.061a3.537 3.537 0 00-.483 1.791c0 1.242.625 2.342 1.591 2.967a3.536 3.536 0 01-1.625-.417v.025A3.578 3.578 0 003.85 8.936a3.517 3.517 0 01-1.608.058 3.567 3.567 0 003.333 2.483 7.101 7.101 0 01-4.442 1.534c-.283 0-.566-.017-.85-.05a10.12 10.12 0 005.484 1.608c6.566 0 10.175-5.45 10.175-10.175 0-.158 0-.308-.009-.467.7-.5 1.3-1.133 1.784-1.858z"/></symbol><symbol viewBox="0 0 15 16" id="twoArrowLeft" xmlns="http://www.w3.org/2000/svg"><path d="M1 1.5l6 6.498L1 14.5M7 1.5l6 6.498L7 14.5"/></symbol><symbol viewBox="0 0 16 10" id="vk" xmlns="http://www.w3.org/2000/svg"><path d="M15.21 8.746c-.595-1.11-2.129-2.445-2.762-3.026a.438.438 0 01-.034-.61c1.208-1.346 2.175-2.893 2.507-3.827a.633.633 0 00-.585-.85h-1.243c-.41 0-.65.153-.764.396-1.005 2.133-1.866 3.057-2.469 3.596-.337.302-.864.052-.864-.408V1.173a.703.703 0 00-.694-.712L6.031.434c-.286 0-.45.335-.278.57l.375.559c.141.193.217.428.217.67l-.002 2.513c0 .437-.51.651-.814.345C4.502 4.054 3.61 1.937 3.29.925a.694.694 0 00-.657-.491L1.408.43c-.46 0-.795.451-.67.906C1.856 5.41 4.152 9.284 8.244 9.704c.403.041.751-.296.751-.712V7.67c0-.379.287-.705.655-.714h.039c1.082 0 2.295 1.633 2.719 2.396.121.22.35.354.596.354h1.647c.481 0 .79-.528.558-.96z"/></symbol></svg>