<?xml version="1.0" encoding="utf-8"?><svg xmlns="http://www.w3.org/2000/svg" xmlns:xlink="http://www.w3.org/1999/xlink"><symbol fill="none" viewBox="0 0 31 8" id="arrow-back" xmlns="http://www.w3.org/2000/svg"><path d="M.646 3.646a.5.5 0 000 .708l3.182 3.182a.5.5 0 00.708-.708L1.707 4l2.829-2.828a.5.5 0 10-.708-.708L.646 3.646zM31 3.5H1v1h30v-1z" fill="#0E1014"/></symbol><symbol fill="none" viewBox="0 0 33 32" id="button-with-arrow" xmlns="http://www.w3.org/2000/svg"><path d="M14 12l3 3.999L14 20M17 12l3 3.999L17 20" stroke="#7271EF" stroke-width="1.5"/><rect x=".5" y=".5" width="32" height="31" rx="4.5" stroke="#fff" stroke-opacity=".2"/></symbol><symbol fill="none" viewBox="0 0 40 40" id="check-box" xmlns="http://www.w3.org/2000/svg"><path d="M16.889 29.333l15.667-15.666-3.112-3.111L16.89 23.11l-6.333-6.333-3.112 3.11 9.445 9.445zM4.444 40c-1.222 0-2.268-.435-3.14-1.304C.434 37.824 0 36.778 0 35.556V4.444c0-1.222.435-2.268 1.304-3.14C2.176.434 3.222 0 4.444 0h31.112c1.222 0 2.268.435 3.14 1.304.87.872 1.304 1.918 1.304 3.14v31.112c0 1.222-.435 2.268-1.304 3.14-.872.87-1.918 1.304-3.14 1.304H4.444z" fill="#7271EF"/></symbol><symbol fill="none" viewBox="0 0 81 80" id="error" xmlns="http://www.w3.org/2000/svg"><path d="M55.894 22.514L40.149 38.26 24.402 22.514l-1.74 1.741L38.408 40 22.663 55.745l1.74 1.74 15.745-15.744 15.746 15.745 1.74-1.74L41.89 40l15.745-15.745-1.74-1.74z" fill="#DB4141"/><path fill-rule="evenodd" clip-rule="evenodd" d="M80.148 40c0 22.091-17.908 40-40 40-22.09 0-40-17.909-40-40s17.91-40 40-40c22.092 0 40 17.909 40 40zm-1.23 0c0 21.412-17.358 38.77-38.77 38.77C18.737 78.77 1.38 61.411 1.38 40c0-21.412 17.358-38.77 38.77-38.77C61.56 1.23 78.917 18.589 78.917 40z" fill="#DB4141"/></symbol><symbol fill="none" viewBox="0 0 81 80" id="success" xmlns="http://www.w3.org/2000/svg"><path d="M34.603 57.74l31.025-31.025-1.74-1.74-29.285 29.283-15.13-15.13-1.74 1.741 16.87 16.87z" fill="#0DBD14"/><path fill-rule="evenodd" clip-rule="evenodd" d="M80.148 40c0 22.091-17.908 40-40 40-22.09 0-40-17.909-40-40s17.91-40 40-40c22.092 0 40 17.909 40 40zm-1.23 0c0 21.412-17.358 38.77-38.77 38.77C18.737 78.77 1.38 61.411 1.38 40c0-21.412 17.358-38.77 38.77-38.77C61.56 1.23 78.917 18.589 78.917 40z" fill="#0DBD14"/></symbol><symbol fill="none" viewBox="0 0 13 12" id="two-arrow-down" xmlns="http://www.w3.org/2000/svg"><path d="M11.91 1.124l-5.498 5-5.502-5" stroke="#0E1014" stroke-width="1.028"/><path d="M11.91 6.124l-5.498 5-5.502-5" stroke="#0E1014" stroke-width="1.028"/></symbol><symbol fill="none" viewBox="0 0 16 16" id="warning" xmlns="http://www.w3.org/2000/svg"><path d="M8.895 5.83V13H7.111V5.83h1.784zM7 3.96c0-.277.09-.507.272-.688C7.452 3.09 7.695 3 8 3c.3 0 .541.09.722.272.185.18.278.41.278.689a.923.923 0 01-.278.69c-.18.18-.422.27-.722.27-.305 0-.547-.09-.728-.27A.934.934 0 017 3.96z" fill="#C5C5C5"/><rect x=".5" y=".5" width="15" height="15" rx="7.5" stroke="#C5C5C5"/></symbol></svg>