<svg width="60" height="28" viewBox="0 0 60 28" fill="none" xmlns="http://www.w3.org/2000/svg">
<path d="M9.77148 20.3326C10.4894 20.6587 11.0405 21.1222 11.424 21.7233C11.8082 22.3243 12 23.0285 12 23.836V23.9912C12 24.7994 11.8053 25.5057 11.4159 26.1122C11.0264 26.718 10.4754 27.1843 9.76342 27.5104C9.05072 27.8366 8.21088 28 7.24248 28C6.06246 28 5.08891 27.7149 4.32109 27.1453L4.25423 27.8133H2V17H4.42028V20.6354C5.19912 20.1069 6.13961 19.843 7.24174 19.843C8.21019 19.843 9.05289 20.0064 9.77148 20.3326ZM9.49598 23.836C9.49598 23.2254 9.2675 22.7482 8.81117 22.407C8.35491 22.0651 7.71496 21.8942 6.89127 21.8942C6.36812 21.8942 5.88685 21.9722 5.44747 22.1273C5.00735 22.2826 4.66569 22.4952 4.42102 22.7646V25.064C4.67671 25.3334 5.02204 25.5481 5.45629 25.7088C5.89052 25.8694 6.36885 25.9494 6.892 25.9494C7.71566 25.9494 8.35561 25.7785 8.81194 25.4366C9.2682 25.0948 9.49667 24.6134 9.49667 23.9919V23.836H9.49598Z" fill="white"/>
<path d="M20.9994 24.6484H14.2528C14.3234 25.1259 14.5551 25.492 14.9485 25.7455C15.342 25.9996 15.8712 26.1264 16.537 26.1264C17.1421 26.1264 17.636 26.0453 18.0195 25.8823C18.4023 25.72 18.6246 25.4967 18.6852 25.2117H20.9847C20.8735 26.1056 20.4328 26.7936 19.6613 27.2764C18.8896 27.7592 17.8485 28 16.5376 28C15.6096 28 14.8034 27.8451 14.1177 27.5353C13.432 27.2255 12.9074 26.7808 12.5445 26.2022C12.1817 25.6235 12 24.9428 12 24.1602V23.8705C12 23.078 12.1837 22.3899 12.5519 21.8058C12.92 21.2218 13.4446 20.7752 14.125 20.4647C14.8054 20.1549 15.6096 20 16.5376 20C17.9496 20 19.0461 20.3379 19.8276 21.0132C20.6092 21.6892 21 22.636 21 23.8551V24.6484H20.9994ZM15.0697 22.1652C14.6862 22.3785 14.4345 22.6782 14.3134 23.0645H18.6852C18.5641 22.6789 18.3171 22.3785 17.9443 22.1652C17.5708 21.9521 17.0968 21.8454 16.5223 21.8454C15.9371 21.8454 15.4531 21.9521 15.0697 22.1652Z" fill="white"/>
<path d="M29 20V22.0438H27.2679C26.2988 22.0438 25.6182 22.294 25.2269 22.7943V28H23V20H25.0873L25.1492 20.7345C25.7986 20.2445 26.603 20 27.5619 20H29Z" fill="white"/>
<path d="M32.3699 27.5285C31.6048 27.2139 31.0187 26.7666 30.6111 26.1871C30.2034 25.6084 30 24.9222 30 24.1302V23.9323C30 23.1301 30.2034 22.4339 30.6111 21.8444C31.0187 21.2556 31.6048 20.8008 32.3699 20.4802C33.1351 20.1603 34.0307 20 35.0583 20C36.0069 20 36.859 20.1449 37.6125 20.4339C38.3658 20.723 38.9525 21.1247 39.3713 21.6378C39.7899 22.1509 39.9993 22.7377 39.9993 23.3977V23.4587H37.5041V23.3977C37.5041 22.9913 37.2778 22.6586 36.8259 22.3998C36.374 22.1409 35.7843 22.0114 35.059 22.0114C34.2326 22.0114 33.6016 22.1764 33.1668 22.5064C32.7311 22.8364 32.5136 23.3166 32.5136 23.9464V24.114C32.5136 24.7237 32.7311 25.1885 33.1668 25.5084C33.6024 25.8283 34.2326 25.9886 35.059 25.9886C35.7961 25.9886 36.3873 25.8645 36.8347 25.615C37.2814 25.3662 37.5048 25.0335 37.5048 24.6171V24.556H40V24.6171C40 25.2877 39.7958 25.8793 39.3889 26.3924C38.9813 26.9055 38.4064 27.3018 37.6641 27.5808C36.921 27.8598 36.0534 28 35.0597 28C34.0307 28.0007 33.1351 27.8431 32.3699 27.5285Z" fill="white"/>
<path d="M50 20V27.8131H47.8762L47.8132 27.0643C47.1207 27.6676 46.2344 27.9792 45.1542 27.9998C43.8011 28.0101 42.7707 27.6642 42.0623 26.9626C41.3538 26.2605 41 25.2234 41 23.8513V20H43.2817V23.852C43.2817 24.5281 43.468 25.0449 43.8405 25.4039C44.213 25.7629 44.7553 25.942 45.4692 25.942C45.9622 25.942 46.4082 25.8301 46.8064 25.6064C47.2052 25.3826 47.5092 25.0786 47.719 24.6942V20H50Z" fill="white"/>
<path d="M55.7996 22.1166V25.1135C55.7996 25.3974 55.8789 25.6161 56.0379 25.7681C56.197 25.9208 56.4252 25.9965 56.7224 25.9965H58.5376V28H56.4299C55.5477 28 54.8504 27.7557 54.3379 27.2669C53.8247 26.7782 53.5687 26.1131 53.5687 25.2718V22.1174H51V20.0979H53.0616C53.2769 20.0979 53.4259 20.0563 53.5078 19.9716C53.5897 19.8875 53.631 19.7348 53.631 19.5141V18H55.8003V20.0979H59V22.1166H55.7996Z" fill="white"/>
<path d="M9.88292 13.2444L8.22848 11.3974C8.00052 11.1428 7.69179 11 7.36949 11H4.39723C4.0442 11 3.86696 11.4763 4.11709 11.7556L5.77151 13.6026C5.99949 13.8572 6.30821 14 6.63053 14H9.60275C9.95579 14 10.133 13.5237 9.88292 13.2444Z" fill="white"/>
<path d="M27.3417 0H23.463C22.9289 0 22.417 0.205372 22.0388 0.570478L18.8143 3.68909C18.7828 3.71606 18.7521 3.74302 18.722 3.77207L15.6592 6.7351L15.4554 6.93079C14.952 7.41416 14.1391 7.41277 13.6372 6.92803L7.1846 0.687339C6.72916 0.246862 6.11214 0 5.46867 0H0.793497C0.087825 0 -0.26537 0.824945 0.233678 1.3076L11.6124 12.3126C12.0678 12.7531 12.6848 13 13.3283 13H18.0035C18.7092 13 19.0624 12.1751 18.5633 11.6924L17.2728 10.4442C16.969 10.1435 16.6658 9.84262 16.3619 9.54251C15.8593 9.05639 16.2154 8.22598 16.9253 8.22598H19.5821C20.1163 8.22598 20.6281 8.02058 21.0056 7.6555L24.2302 4.53686C24.2616 4.50989 24.2924 4.48292 24.3224 4.45387L27.8057 1.08495C28.2204 0.684573 27.9273 0 27.3417 0Z" fill="white"/>
</svg>
