<svg width="262" height="28" viewBox="0 0 262 28" fill="none" xmlns="http://www.w3.org/2000/svg">
<path d="M9.76381 22.2909C8.60016 22.2909 7.47529 22.097 6.38921 21.7091C5.30313 21.3018 4.34312 20.6812 3.50917 19.8472C2.67521 19.0133 2.00611 17.9466 1.50186 16.6472C0.997609 15.3478 0.745483 13.7865 0.745483 11.9635V11.3816C0.745483 9.63616 0.997609 8.1331 1.50186 6.87248C2.00611 5.61185 2.67521 4.57426 3.50917 3.7597C4.34312 2.92575 5.30313 2.31483 6.38921 1.92694C7.47529 1.53906 8.60016 1.34511 9.76381 1.34511C10.9275 1.34511 12.0523 1.53906 13.1384 1.92694C14.2245 2.31483 15.1845 2.92575 16.0185 3.7597C16.8524 4.57426 17.5215 5.61185 18.0258 6.87248C18.53 8.1331 18.7821 9.63616 18.7821 11.3816V11.9635C18.7821 13.7865 18.53 15.3478 18.0258 16.6472C17.5215 17.9466 16.8524 19.0133 16.0185 19.8472C15.1845 20.6812 14.2245 21.3018 13.1384 21.7091C12.0523 22.097 10.9275 22.2909 9.76381 22.2909ZM9.76381 19.8472C10.559 19.8472 11.3251 19.7018 12.062 19.4109C12.799 19.12 13.4487 18.6642 14.0112 18.0436C14.5736 17.4036 15.0197 16.589 15.3494 15.5999C15.6985 14.5914 15.873 13.3793 15.873 11.9635V11.3816C15.873 10.0434 15.6985 8.89918 15.3494 7.94886C15.0197 6.97915 14.5736 6.19368 14.0112 5.59246C13.4487 4.97184 12.799 4.51608 12.062 4.22516C11.3251 3.93425 10.559 3.78879 9.76381 3.78879C8.96865 3.78879 8.20258 3.93425 7.46559 4.22516C6.72861 4.51608 6.07891 4.97184 5.51647 5.59246C4.95404 6.19368 4.49827 6.97915 4.14918 7.94886C3.81947 8.89918 3.65462 10.0434 3.65462 11.3816V11.9635C3.65462 13.3793 3.81947 14.5914 4.14918 15.5999C4.49827 16.589 4.95404 17.4036 5.51647 18.0436C6.07891 18.6642 6.72861 19.12 7.46559 19.4109C8.20258 19.7018 8.96865 19.8472 9.76381 19.8472ZM31.2983 22.2909C30.1346 22.2909 29.0097 22.097 27.9237 21.7091C26.8376 21.3018 25.8776 20.6812 25.0436 19.8472C24.2097 19.0133 23.5406 17.9466 23.0363 16.6472C22.5321 15.3478 22.2799 13.7865 22.2799 11.9635V11.3816C22.2799 9.63616 22.5321 8.1331 23.0363 6.87248C23.5406 5.61185 24.2097 4.57426 25.0436 3.7597C25.8776 2.92575 26.8376 2.31483 27.9237 1.92694C29.0097 1.53906 30.1346 1.34511 31.2983 1.34511C32.4619 1.34511 33.5868 1.53906 34.6729 1.92694C35.7589 2.31483 36.719 2.92575 37.5529 3.7597C38.3869 4.57426 39.056 5.61185 39.5602 6.87248C40.0645 8.1331 40.3166 9.63616 40.3166 11.3816V11.9635C40.3166 13.7865 40.0645 15.3478 39.5602 16.6472C39.056 17.9466 38.3869 19.0133 37.5529 19.8472C36.719 20.6812 35.7589 21.3018 34.6729 21.7091C33.5868 22.097 32.4619 22.2909 31.2983 22.2909ZM31.2983 19.8472C32.0934 19.8472 32.8595 19.7018 33.5965 19.4109C34.3335 19.12 34.9832 18.6642 35.5456 18.0436C36.108 17.4036 36.5541 16.589 36.8838 15.5999C37.2329 14.5914 37.4075 13.3793 37.4075 11.9635V11.3816C37.4075 10.0434 37.2329 8.89918 36.8838 7.94886C36.5541 6.97915 36.108 6.19368 35.5456 5.59246C34.9832 4.97184 34.3335 4.51608 33.5965 4.22516C32.8595 3.93425 32.0934 3.78879 31.2983 3.78879C30.5031 3.78879 29.737 3.93425 29 4.22516C28.2631 4.51608 27.6134 4.97184 27.0509 5.59246C26.4885 6.19368 26.0327 6.97915 25.6836 7.94886C25.3539 8.89918 25.1891 10.0434 25.1891 11.3816V11.9635C25.1891 13.3793 25.3539 14.5914 25.6836 15.5999C26.0327 16.589 26.4885 17.4036 27.0509 18.0436C27.6134 18.6642 28.2631 19.12 29 19.4109C29.737 19.7018 30.5031 19.8472 31.2983 19.8472ZM52.8327 22.2909C51.6691 22.2909 50.5442 22.097 49.4581 21.7091C48.372 21.3018 47.412 20.6812 46.5781 19.8472C45.7441 19.0133 45.075 17.9466 44.5708 16.6472C44.0665 15.3478 43.8144 13.7865 43.8144 11.9635V11.3816C43.8144 9.63616 44.0665 8.1331 44.5708 6.87248C45.075 5.61185 45.7441 4.57426 46.5781 3.7597C47.412 2.92575 48.372 2.31483 49.4581 1.92694C50.5442 1.53906 51.6691 1.34511 52.8327 1.34511C53.9964 1.34511 55.1212 1.53906 56.2073 1.92694C57.2934 2.31483 58.2534 2.92575 59.0874 3.7597C59.9213 4.57426 60.5904 5.61185 61.0947 6.87248C61.5989 8.1331 61.851 9.63616 61.851 11.3816V11.9635C61.851 13.7865 61.5989 15.3478 61.0947 16.6472C60.5904 17.9466 59.9213 19.0133 59.0874 19.8472C58.2534 20.6812 57.2934 21.3018 56.2073 21.7091C55.1212 22.097 53.9964 22.2909 52.8327 22.2909ZM52.8327 19.8472C53.6279 19.8472 54.3939 19.7018 55.1309 19.4109C55.8679 19.12 56.5176 18.6642 57.0801 18.0436C57.6425 17.4036 58.0886 16.589 58.4183 15.5999C58.7674 14.5914 58.9419 13.3793 58.9419 11.9635V11.3816C58.9419 10.0434 58.7674 8.89918 58.4183 7.94886C58.0886 6.97915 57.6425 6.19368 57.0801 5.59246C56.5176 4.97184 55.8679 4.51608 55.1309 4.22516C54.3939 3.93425 53.6279 3.78879 52.8327 3.78879C52.0375 3.78879 51.2715 3.93425 50.5345 4.22516C49.7975 4.51608 49.1478 4.97184 48.5854 5.59246C48.0229 6.19368 47.5672 6.97915 47.2181 7.94886C46.8884 8.89918 46.7235 10.0434 46.7235 11.3816V11.9635C46.7235 13.3793 46.8884 14.5914 47.2181 15.5999C47.5672 16.589 48.0229 17.4036 48.5854 18.0436C49.1478 18.6642 49.7975 19.12 50.5345 19.4109C51.2715 19.7018 52.0375 19.8472 52.8327 19.8472ZM73.7853 1.63603H76.6363L83.4437 14.5817L90.2511 1.63603H92.9856V22H90.2511V6.58156L84.4037 17.6363H82.3673L76.5199 6.58156V22H73.7853V1.63603ZM102.625 22.2909C101.772 22.2909 101.015 22.1745 100.356 21.9418C99.716 21.6897 99.1729 21.3503 98.7269 20.9236C98.2808 20.4969 97.9414 19.9927 97.7087 19.4109C97.4759 18.829 97.3596 18.189 97.3596 17.4908C97.3596 15.9587 97.8056 14.8532 98.6978 14.1744C99.6093 13.4956 100.909 13.1562 102.596 13.1562H107.6V12.1089C107.6 10.7901 107.299 9.87859 106.698 9.37434C106.116 8.87009 105.234 8.61796 104.051 8.61796C102.945 8.61796 102.14 8.8313 101.636 9.25797C101.132 9.66525 100.851 10.1307 100.792 10.6544H98.2323C98.2711 10.0337 98.436 9.46161 98.7269 8.93797C99.0372 8.39493 99.4445 7.92946 99.9487 7.54158C100.472 7.15369 101.093 6.85308 101.811 6.63975C102.528 6.40702 103.323 6.29065 104.196 6.29065C106.019 6.29065 107.464 6.72702 108.531 7.59976C109.617 8.45311 110.16 9.85919 110.16 11.818V18.0727C110.16 18.8872 110.16 19.6048 110.16 20.2254C110.179 20.8266 110.228 21.4182 110.305 22H108.065C108.007 21.5539 107.968 21.137 107.949 20.7491C107.929 20.3418 107.92 19.886 107.92 19.3818C107.512 20.1963 106.853 20.8848 105.942 21.4473C105.03 22.0097 103.925 22.2909 102.625 22.2909ZM103.178 19.9636C103.779 19.9636 104.342 19.886 104.865 19.7309C105.408 19.5563 105.883 19.3139 106.291 19.0036C106.698 18.6739 107.018 18.2763 107.251 17.8108C107.483 17.3454 107.6 16.8023 107.6 16.1817V15.1344H103.032C102.082 15.1344 101.335 15.3284 100.792 15.7163C100.249 16.0848 99.9778 16.6763 99.9778 17.4908C99.9778 18.2084 100.23 18.7999 100.734 19.2654C101.258 19.7309 102.072 19.9636 103.178 19.9636ZM114.681 6.58156H117.067V9.4907C117.591 8.46281 118.318 7.67734 119.249 7.1343C120.199 6.57187 121.295 6.29065 122.536 6.29065C124.476 6.29065 126.027 6.93066 127.191 8.21068C128.354 9.47131 128.936 11.3526 128.936 13.8544V14.4362C128.936 15.755 128.781 16.909 128.471 17.8981C128.16 18.8678 127.724 19.6824 127.162 20.3418C126.599 20.9818 125.92 21.4667 125.125 21.7964C124.349 22.1261 123.486 22.2909 122.536 22.2909C121.217 22.2909 120.112 22 119.22 21.4182C118.347 20.8363 117.688 20.1091 117.241 19.2363V27.8183H114.681V6.58156ZM121.954 20.0218C122.575 20.0218 123.157 19.9054 123.7 19.6727C124.243 19.4206 124.708 19.0618 125.096 18.5963C125.503 18.1308 125.814 17.549 126.027 16.8508C126.26 16.1526 126.376 15.3478 126.376 14.4362V13.8544C126.376 13.0205 126.26 12.2738 126.027 11.6144C125.814 10.955 125.503 10.4022 125.096 9.95616C124.708 9.4907 124.243 9.14161 123.7 8.90887C123.157 8.67614 122.575 8.55978 121.954 8.55978C121.256 8.55978 120.616 8.67614 120.034 8.90887C119.452 9.12221 118.958 9.43252 118.551 9.8398C118.143 10.2277 117.823 10.6931 117.591 11.2362C117.358 11.7792 117.241 12.3611 117.241 12.9817V15.309C117.241 16.0072 117.358 16.6472 117.591 17.229C117.823 17.8108 118.143 18.3054 118.551 18.7127C118.958 19.12 119.452 19.44 120.034 19.6727C120.616 19.9054 121.256 20.0218 121.954 20.0218ZM132.579 6.58156H135.14V13.0399H137.176L142.936 6.58156H145.962L139.27 13.9708L146.252 22H142.994L137.176 15.2508H135.14V22H132.579V6.58156ZM155.145 22.2909C154.156 22.2909 153.215 22.1358 152.323 21.8255C151.431 21.5151 150.645 21.04 149.966 20.4C149.288 19.7406 148.745 18.9163 148.337 17.9272C147.93 16.9381 147.726 15.7744 147.726 14.4362V13.8544C147.726 12.5744 147.92 11.4689 148.308 10.538C148.696 9.58767 149.21 8.80221 149.85 8.18159C150.509 7.54158 151.266 7.06642 152.119 6.75611C152.992 6.4458 153.903 6.29065 154.854 6.29065C157.123 6.29065 158.878 6.91127 160.119 8.1525C161.36 9.39373 161.981 11.1489 161.981 13.418V15.0472H150.286C150.286 15.9587 150.432 16.7248 150.723 17.3454C151.014 17.966 151.392 18.4702 151.857 18.8581C152.323 19.246 152.837 19.5272 153.399 19.7018C153.981 19.8763 154.563 19.9636 155.145 19.9636C156.308 19.9636 157.2 19.7697 157.821 19.3818C158.461 18.9939 158.917 18.4605 159.188 17.7817H161.69C161.535 18.5187 161.254 19.1684 160.847 19.7309C160.459 20.2933 159.974 20.7685 159.392 21.1563C158.83 21.5248 158.18 21.8061 157.443 22C156.725 22.1939 155.959 22.2909 155.145 22.2909ZM154.999 8.61796C154.398 8.61796 153.816 8.70523 153.254 8.87978C152.691 9.03494 152.187 9.29676 151.741 9.66525C151.314 10.0143 150.965 10.4604 150.694 11.0035C150.422 11.5465 150.286 12.1962 150.286 12.9526H159.567C159.547 12.1574 159.411 11.4883 159.159 10.9453C158.927 10.3828 158.606 9.93677 158.199 9.60707C157.792 9.25797 157.307 9.00585 156.745 8.85069C156.202 8.69554 155.62 8.61796 154.999 8.61796ZM168.856 8.85069H163.59V6.58156H176.681V8.85069H171.416V22H168.856V8.85069ZM179.597 6.58156H192.398V22H189.837V8.85069H182.157V22H179.597V6.58156ZM196.313 22.2909C196.023 22.2909 195.732 22.2618 195.441 22.2036V19.6436C195.538 19.663 195.683 19.6727 195.877 19.6727C196.304 19.6727 196.672 19.5369 196.983 19.2654C197.312 18.9939 197.574 18.5187 197.768 17.8399C197.962 17.1611 198.107 16.2399 198.204 15.0762C198.301 13.9126 198.35 12.4386 198.35 10.6544V6.58156H209.405V22H206.845V8.85069H200.91V11.2362C200.91 13.3889 200.813 15.1732 200.619 16.589C200.425 18.0048 200.134 19.1393 199.746 19.9927C199.378 20.8266 198.903 21.4182 198.321 21.7673C197.739 22.1164 197.07 22.2909 196.313 22.2909ZM220.458 22.2909C219.469 22.2909 218.528 22.1358 217.636 21.8255C216.744 21.5151 215.959 21.04 215.28 20.4C214.601 19.7406 214.058 18.9163 213.651 17.9272C213.244 16.9381 213.04 15.7744 213.04 14.4362V13.8544C213.04 12.5744 213.234 11.4689 213.622 10.538C214.01 9.58767 214.524 8.80221 215.164 8.18159C215.823 7.54158 216.579 7.06642 217.433 6.75611C218.305 6.4458 219.217 6.29065 220.167 6.29065C222.436 6.29065 224.192 6.91127 225.433 8.1525C226.674 9.39373 227.295 11.1489 227.295 13.418V15.0472H215.6C215.6 15.9587 215.745 16.7248 216.036 17.3454C216.327 17.966 216.705 18.4702 217.171 18.8581C217.636 19.246 218.15 19.5272 218.713 19.7018C219.295 19.8763 219.876 19.9636 220.458 19.9636C221.622 19.9636 222.514 19.7697 223.135 19.3818C223.775 18.9939 224.23 18.4605 224.502 17.7817H227.004C226.849 18.5187 226.567 19.1684 226.16 19.7309C225.772 20.2933 225.287 20.7685 224.706 21.1563C224.143 21.5248 223.493 21.8061 222.756 22C222.039 22.1939 221.273 22.2909 220.458 22.2909ZM220.313 8.61796C219.712 8.61796 219.13 8.70523 218.567 8.87978C218.005 9.03494 217.501 9.29676 217.055 9.66525C216.628 10.0143 216.279 10.4604 216.007 11.0035C215.736 11.5465 215.6 12.1962 215.6 12.9526H224.88C224.861 12.1574 224.725 11.4883 224.473 10.9453C224.24 10.3828 223.92 9.93677 223.513 9.60707C223.106 9.25797 222.621 9.00585 222.058 8.85069C221.515 8.69554 220.933 8.61796 220.313 8.61796ZM230.933 6.58156H233.493V18.2181L241.464 6.58156H244.025V22H241.464V10.3634L233.493 22H230.933V6.58156ZM237.479 4.69062C235.966 4.69062 234.861 4.37062 234.163 3.73061C233.464 3.0712 233.115 2.13058 233.115 0.908742H235.617C235.617 2.22755 236.238 2.88696 237.479 2.88696C238.759 2.88696 239.399 2.22755 239.399 0.908742H241.843C241.843 2.13058 241.494 3.0712 240.795 3.73061C240.097 4.37062 238.992 4.69062 237.479 4.69062ZM254.653 22.2909C253.664 22.2909 252.743 22.1358 251.889 21.8255C251.036 21.4957 250.299 21.0109 249.678 20.3709C249.058 19.7115 248.563 18.8872 248.195 17.8981C247.846 16.909 247.671 15.755 247.671 14.4362V13.8544C247.671 12.6132 247.865 11.5174 248.253 10.5671C248.641 9.61676 249.155 8.8313 249.795 8.21068C250.435 7.57067 251.172 7.09551 252.006 6.7852C252.859 6.4555 253.742 6.29065 254.653 6.29065C255.565 6.29065 256.379 6.41671 257.097 6.66884C257.834 6.92096 258.464 7.27006 258.988 7.71613C259.531 8.1622 259.967 8.68584 260.297 9.28706C260.646 9.88828 260.898 10.538 261.053 11.2362H258.435C258.28 10.8677 258.096 10.5283 257.882 10.218C257.688 9.88828 257.436 9.60707 257.126 9.37434C256.835 9.14161 256.486 8.95736 256.079 8.8216C255.671 8.68584 255.196 8.61796 254.653 8.61796C254.091 8.61796 253.548 8.72463 253.024 8.93797C252.5 9.13191 252.035 9.44222 251.628 9.86889C251.22 10.2762 250.891 10.8095 250.638 11.4689C250.406 12.1283 250.289 12.9235 250.289 13.8544V14.4362C250.289 15.4253 250.406 16.2787 250.638 16.9963C250.891 17.6945 251.22 18.2666 251.628 18.7127C252.035 19.1393 252.5 19.4594 253.024 19.6727C253.548 19.8666 254.091 19.9636 254.653 19.9636C255.603 19.9636 256.399 19.7309 257.039 19.2654C257.698 18.7999 258.163 18.1599 258.435 17.3454H261.053C260.685 18.8775 259.928 20.0897 258.784 20.9818C257.64 21.8545 256.263 22.2909 254.653 22.2909Z" fill="#7271EF"/>
</svg>
