<svg width="61" height="28" viewBox="0 0 61 28" fill="none" xmlns="http://www.w3.org/2000/svg">
<g clip-path="url(#clip0_1415_20400)">
<path d="M9.80273 20.3326C10.5206 20.6587 11.0717 21.1222 11.4552 21.7233C11.8395 22.3243 12.0312 23.0285 12.0312 23.836V23.9912C12.0312 24.7994 11.8366 25.5057 11.4472 26.1122C11.0577 26.718 10.5067 27.1843 9.79467 27.5104C9.08197 27.8366 8.24213 28 7.27373 28C6.09371 28 5.12016 27.7149 4.35234 27.1453L4.28548 27.8133H2.03125V17H4.45153V20.6354C5.23037 20.1069 6.17086 19.843 7.27299 19.843C8.24144 19.843 9.08414 20.0064 9.80273 20.3326ZM9.52723 23.836C9.52723 23.2254 9.29875 22.7482 8.84242 22.407C8.38616 22.0651 7.74621 21.8942 6.92252 21.8942C6.39937 21.8942 5.9181 21.9722 5.47872 22.1273C5.0386 22.2826 4.69694 22.4952 4.45227 22.7646V25.064C4.70796 25.3334 5.05329 25.5481 5.48754 25.7088C5.92177 25.8694 6.4001 25.9494 6.92325 25.9494C7.74691 25.9494 8.38686 25.7785 8.84319 25.4366C9.29945 25.0948 9.52792 24.6134 9.52792 23.9919V23.836H9.52723Z" fill="white"/>
<path d="M21.0306 24.6484H14.284C14.3547 25.1259 14.5863 25.492 14.9798 25.7455C15.3732 25.9996 15.9025 26.1264 16.5682 26.1264C17.1733 26.1264 17.6673 26.0453 18.0508 25.8823C18.4336 25.72 18.6559 25.4967 18.7165 25.2117H21.0159C20.9048 26.1056 20.4641 26.7936 19.6925 27.2764C18.9209 27.7592 17.8797 28 16.5688 28C15.6408 28 14.8346 27.8451 14.1489 27.5353C13.4632 27.2255 12.9386 26.7808 12.5758 26.2022C12.213 25.6235 12.0312 24.9428 12.0312 24.1602V23.8705C12.0312 23.078 12.215 22.3899 12.5831 21.8058C12.9513 21.2218 13.4759 20.7752 14.1562 20.4647C14.8366 20.1549 15.6408 20 16.5688 20C17.9809 20 19.0774 20.3379 19.8589 21.0132C20.6405 21.6892 21.0312 22.636 21.0312 23.8551V24.6484H21.0306ZM15.1009 22.1652C14.7174 22.3785 14.4658 22.6782 14.3446 23.0645H18.7165C18.5953 22.6789 18.3484 22.3785 17.9755 22.1652C17.6021 21.9521 17.128 21.8454 16.5535 21.8454C15.9684 21.8454 15.4844 21.9521 15.1009 22.1652Z" fill="white"/>
<path d="M29.0312 20V22.0438H27.2992C26.33 22.0438 25.6495 22.294 25.2581 22.7943V28H23.0312V20H25.1186L25.1805 20.7345C25.8298 20.2445 26.6342 20 27.5932 20H29.0312Z" fill="white"/>
<path d="M32.4012 27.5285C31.636 27.2139 31.0499 26.7666 30.6423 26.1871C30.2347 25.6084 30.0312 24.9222 30.0312 24.1302V23.9323C30.0312 23.1301 30.2347 22.4339 30.6423 21.8444C31.0499 21.2556 31.636 20.8008 32.4012 20.4802C33.1663 20.1603 34.062 20 35.0895 20C36.0382 20 36.8903 20.1449 37.6437 20.4339C38.397 20.723 38.9838 21.1247 39.4025 21.6378C39.8212 22.1509 40.0306 22.7377 40.0306 23.3977V23.4587H37.5354V23.3977C37.5354 22.9913 37.309 22.6586 36.8572 22.3998C36.4053 22.1409 35.8156 22.0114 35.0902 22.0114C34.2639 22.0114 33.6329 22.1764 33.198 22.5064C32.7624 22.8364 32.5449 23.3166 32.5449 23.9464V24.114C32.5449 24.7237 32.7624 25.1885 33.198 25.5084C33.6337 25.8283 34.2639 25.9886 35.0902 25.9886C35.8274 25.9886 36.4186 25.8645 36.866 25.615C37.3127 25.3662 37.5361 25.0335 37.5361 24.6171V24.556H40.0312V24.6171C40.0312 25.2877 39.8271 25.8793 39.4202 26.3924C39.0126 26.9055 38.4376 27.3018 37.6953 27.5808C36.9522 27.8598 36.0846 28 35.091 28C34.062 28.0007 33.1663 27.8431 32.4012 27.5285Z" fill="white"/>
<path d="M50.0312 20V27.8131H47.9075L47.8445 27.0643C47.152 27.6676 46.2656 27.9792 45.1854 27.9998C43.8323 28.0101 42.8019 27.6642 42.0935 26.9626C41.3851 26.2605 41.0312 25.2234 41.0312 23.8513V20H43.313V23.852C43.313 24.5281 43.4992 25.0449 43.8718 25.4039C44.2443 25.7629 44.7865 25.942 45.5005 25.942C45.9935 25.942 46.4395 25.8301 46.8376 25.6064C47.2365 25.3826 47.5405 25.0786 47.7503 24.6942V20H50.0312Z" fill="white"/>
<path d="M55.8309 22.1166V25.1135C55.8309 25.3974 55.9101 25.6161 56.0692 25.7681C56.2283 25.9208 56.4565 25.9965 56.7537 25.9965H58.5689V28H56.4612C55.579 28 54.8817 27.7557 54.3691 27.2669C53.8559 26.7782 53.6 26.1131 53.6 25.2718V22.1174H51.0312V20.0979H53.0929C53.3082 20.0979 53.4571 20.0563 53.5391 19.9716C53.621 19.8875 53.6623 19.7348 53.6623 19.5141V18H55.8315V20.0979H59.0312V22.1166H55.8309Z" fill="white"/>
<path d="M9.91417 13.2444L8.25973 11.3974C8.03177 11.1428 7.72304 11 7.40074 11H4.42848C4.07545 11 3.89821 11.4763 4.14834 11.7556L5.80276 13.6026C6.03074 13.8572 6.33946 14 6.66178 14H9.634C9.98704 14 10.1643 13.5237 9.91417 13.2444Z" fill="white"/>
<path d="M27.373 0H23.4943C22.9601 0 22.4482 0.205372 22.07 0.570478L18.8455 3.68909C18.8141 3.71606 18.7833 3.74302 18.7533 3.77207L15.6904 6.7351L15.4866 6.93079C14.9832 7.41416 14.1703 7.41277 13.6685 6.92803L7.21585 0.687339C6.76041 0.246862 6.14339 0 5.49992 0H0.824747C0.119075 0 -0.23412 0.824945 0.264928 1.3076L11.6436 12.3126C12.0991 12.7531 12.7161 13 13.3596 13H18.0347C18.7404 13 19.0936 12.1751 18.5946 11.6924L17.304 10.4442C17.0002 10.1435 16.6971 9.84262 16.3932 9.54251C15.8906 9.05639 16.2466 8.22598 16.9566 8.22598H19.6134C20.1475 8.22598 20.6594 8.02058 21.0369 7.6555L24.2614 4.53686C24.2929 4.50989 24.3236 4.48292 24.3536 4.45387L27.8369 1.08495C28.2516 0.684573 27.9585 0 27.373 0Z" fill="white"/>
</g>
<defs>
<clipPath id="clip0_1415_20400">
<rect width="60" height="28" fill="white" transform="translate(0.03125)"/>
</clipPath>
</defs>
</svg>
