<svg width="56" height="70" viewBox="0 0 56 70" fill="none" xmlns="http://www.w3.org/2000/svg">
<g clip-path="url(#clip0_1237_14204)">
<path fill-rule="evenodd" clip-rule="evenodd" d="M10.62 58.3268C12.8727 58.3268 13.9025 59.5579 13.9025 61.3074C13.9025 63.1865 12.6796 64.1584 11.3923 65.1304L11.0705 65.3248C9.97634 66.1671 8.94653 66.9447 8.8178 68.3702H13.3232C13.8382 68.3702 14.16 68.6294 14.16 69.1478C14.16 69.6662 13.7738 69.9253 13.3232 69.9253H8.1098C7.4018 69.9253 7.14435 69.4718 7.14435 68.8886C7.14435 64.4176 12.2291 64.0289 12.2291 61.3074C12.2291 60.5946 11.7142 59.9467 10.5556 59.9467C9.97634 59.9467 9.33271 60.1411 8.62471 60.465C8.17416 60.6594 7.72362 60.789 7.46617 60.4002C7.27308 60.0763 7.27308 59.5579 7.78798 59.1691C8.43162 58.6507 9.65452 58.3268 10.62 58.3268ZM27.9981 58.3268C30.8945 58.3268 32.1817 60.7242 32.1817 64.1584C32.1817 67.5927 30.8945 69.9901 27.9981 69.9901C25.1018 69.9901 23.8145 67.5927 23.8145 64.1584C23.8145 60.7242 25.1018 58.3268 27.9981 58.3268ZM38.2963 58.3268C41.1926 58.3268 42.4799 60.7242 42.4799 64.1584C42.4799 67.5927 41.1926 69.9901 38.2963 69.9901C35.3999 69.9901 34.1127 67.5927 34.1127 64.1584C34.1127 60.7242 35.3999 58.3268 38.2963 58.3268ZM48.8519 58.3268C49.3024 58.3268 49.5599 58.6507 49.5599 59.4283V69.0182C49.5599 69.5366 49.3024 69.9901 48.6588 69.9901C48.0795 69.9901 47.8221 69.5366 47.8221 69.0182V61.0482L46.4061 62.4737C46.0843 62.7977 45.5694 63.0569 45.2475 62.7329C44.8614 62.4089 44.9901 61.8258 45.3763 61.437L47.6934 58.9747C48.0152 58.6507 48.337 58.3268 48.8519 58.3268ZM21.6261 58.3268C22.4629 58.3268 22.7203 58.9747 22.3985 59.8819L18.5367 69.1478C18.2792 69.7309 17.8931 70.1845 17.3138 69.9253C16.8632 69.731 16.7345 69.2126 16.992 68.4998L20.532 60.1411H16.4127C15.8334 60.1411 15.5116 59.8171 15.5116 59.2339C15.5116 58.6507 15.8334 58.3268 16.4127 58.3268H21.6261ZM27.9981 59.8819C26.3247 59.8819 25.6167 61.5018 25.6167 64.1584C25.6167 66.8151 26.4534 68.435 27.9981 68.435C29.5428 68.435 30.3796 66.8151 30.3796 64.1584C30.3796 61.5018 29.5428 59.8819 27.9981 59.8819ZM38.2963 59.8819C36.6228 59.8819 35.9148 61.5018 35.9148 64.1584C35.9148 66.8151 36.7516 68.435 38.2963 68.435C39.841 68.435 40.6777 66.8151 40.6777 64.1584C40.6777 61.5018 39.841 59.8819 38.2963 59.8819ZM19.7596 34.352C20.0814 34.7408 20.4032 35.4536 20.5963 35.9071C21.433 35.7127 25.681 35.2592 25.8741 35.1944C25.9385 35 25.8741 34.6112 26.0672 34.4168H26.6465C26.7109 34.6112 26.7109 34.8056 26.7109 34.8704V35C26.7109 35.2592 26.7752 35.2592 27.4832 35.2592C29.3498 35.324 30.7658 35.7775 32.1174 35.8423C33.0185 34.2224 32.6967 34.2872 33.6621 34.352C33.5334 35.1296 33.0828 35.4536 33.0828 36.1015L36.9446 37.3974C37.4596 37.0087 38.9399 35.1296 39.3261 34.352H40.1628C39.7766 35.6479 38.0388 37.0087 37.7814 37.851C38.4894 38.1102 39.3905 38.8878 40.1628 39.0822C40.8065 39.0822 43.4454 36.1015 44.0246 35.324C44.5395 34.676 44.4752 34.2872 45.5694 34.352C45.1832 35.3888 42.8661 37.7862 42.1581 38.4342C41.4501 39.0822 40.9352 39.5357 40.1628 40.1189C39.4548 40.6373 38.7468 41.0909 37.9745 41.5444C29.0279 46.793 17.7 45.1082 10.2982 38.3694C9.71889 37.851 7.20871 35.2592 6.95126 34.2872C8.04544 34.2872 7.59489 34.1576 8.49598 35.324C9.20398 36.2311 11.7142 38.9526 12.2934 39.0822C12.8083 39.0174 14.2887 38.1102 14.6749 37.7862C14.2887 37.0087 12.4222 35.2592 12.2934 34.2872H13.0014C13.8382 35.2592 14.3531 36.2959 15.5116 37.3974C15.9621 37.3974 18.7298 36.3607 19.5665 36.1015L18.9229 34.352H19.7596ZM26.4534 41.8036C24.5225 41.8036 22.5272 42.322 21.4974 43.2939C22.656 44.0715 30.2508 44.1363 31.345 43.2939C30.5727 42.3868 28.0625 41.8036 26.4534 41.8036ZM15.576 38.6286C15.1898 38.6934 14.8036 38.9526 14.4174 39.147L13.5163 39.7301L13.452 39.7949L13.3876 39.8597C13.9669 40.5077 15.8334 41.4148 16.7989 41.8684C17.3781 42.1276 18.0218 42.3868 18.6654 42.646C19.5021 42.97 20.1458 43.2939 20.725 42.646C20.4676 42.2572 19.824 41.998 19.3734 41.674C17.8287 40.5725 15.8978 38.823 15.576 38.6286ZM37.1377 38.5638C36.8159 38.823 36.4941 39.0822 36.2366 39.2766L36.0436 39.4061C35.4643 39.9893 34.8207 40.5725 33.2759 41.6092C32.6323 42.0628 32.1174 42.2572 31.9243 42.5812C32.5679 43.1643 33.0185 42.8404 33.9196 42.5812C35.1425 42.1276 36.5585 41.4796 37.717 40.8317C38.1676 40.5725 39.0686 40.1189 39.3261 39.6653C38.7468 39.4061 37.9745 38.6934 37.1377 38.5638ZM20.1458 36.8791C19.4378 37.0087 17.7 37.527 16.9276 37.9158C16.8632 37.9158 16.7989 37.9806 16.6701 38.0454C16.5414 38.1102 16.5414 38.1102 16.4771 38.175C16.7345 38.7582 20.9181 42.2572 22.0123 41.9332L22.9778 41.4148C22.7847 41.0261 22.0123 39.9893 21.3043 38.823L21.0469 38.499C20.7894 37.9158 20.4032 37.3974 20.1458 36.8791ZM32.6967 36.9439L31.2807 39.2118C30.8945 39.8597 29.9934 40.8965 29.7359 41.4796L30.637 41.9332C31.345 42.1276 32.761 41.0261 33.3403 40.7021C34.177 40.1189 35.8505 38.823 36.2366 38.1102C35.3999 37.7214 33.7265 37.0087 32.6967 36.9439ZM26.8396 36.1663L26.7752 37.6566C26.7752 38.3694 26.7109 40.4429 26.9039 40.8965L28.7705 41.2204C29.4141 40.5077 31.4737 37.5918 31.7312 36.6847C31.0876 36.4255 27.7407 36.0367 26.8396 36.1663ZM25.9385 36.1015C24.8443 36.1015 21.7549 36.3607 21.0469 36.6847C21.3687 37.527 22.3341 38.9526 22.849 39.6005C24.0719 41.2852 23.9432 41.1557 24.7799 41.0261C25.1661 40.9613 25.5523 40.8965 25.9385 40.8317V36.1015ZM43.7672 12.386C46.5992 12.062 50.3966 12.9691 52.3275 14.3947C54.5159 15.9498 55.6101 17.8937 55.9319 21.3927C56.2537 24.4381 55.417 28.0019 53.8079 29.7514C49.1093 34.8704 38.2963 33.9632 35.2712 28.2611C34.6276 27.03 34.2414 25.7341 34.1127 24.1141C33.6621 17.0513 36.6228 13.2283 43.7672 12.386ZM16.0909 22.559C12.036 19.06 14.2887 11.6732 22.9778 12.386C24.0076 12.4508 25.0374 12.6451 25.9385 12.9043C26.7109 13.1635 27.9981 13.8763 28.4487 13.9411L28.513 12.9043C29.221 12.7747 32.1174 12.7099 32.761 12.9043V19.5136H28.6418C28.2556 19.384 27.8694 18.0233 25.1661 17.1809C23.8789 16.7921 21.3043 16.209 20.4032 17.3753C20.017 18.412 22.849 18.8656 24.1363 19.2544C25.6167 19.708 27.0327 20.032 28.513 20.4855C31.0876 21.2631 33.469 23.531 33.4047 26.5116C33.2759 32.3433 25.8741 33.5097 20.725 31.6306C20.017 31.3714 19.4378 30.9178 18.7941 30.7882L18.6654 32.0841C17.8287 32.0841 14.9323 32.2137 14.2887 32.0193L14.3531 25.0213H18.3436C19.3734 26.5764 20.6607 27.4836 22.5916 27.8723C23.6858 28.0667 24.8443 28.0667 25.9385 27.8723C27.3545 27.6132 27.6119 26.9004 26.3247 26.4468C25.2949 26.1228 24.2007 25.7989 22.9778 25.4749L22.3341 25.2805C19.9527 24.5029 17.5069 23.7254 16.0909 22.559ZM3.86181 11.6732C4.44108 11.6732 5.08472 11.6732 5.66399 11.6732H6.43635C8.36725 11.6732 10.2338 11.738 11.2636 11.738C11.5211 11.738 11.7785 11.738 12.036 11.738L12.6796 11.8676C12.9371 12.386 12.8083 15.6258 12.744 16.5329L9.84762 16.5977V26.5116C10.62 26.5764 11.9716 26.706 12.6796 26.5116C12.8083 26.7708 12.8083 27.5484 12.8083 28.3907V28.7795C12.8083 29.6867 12.744 30.6586 12.744 31.177L0 31.0474L0.0643635 26.6412C0.579271 26.3172 0.450544 26.5116 0.450544 26.5116H1.54472C1.99527 26.5116 2.44581 26.5116 2.89636 26.5116C3.08945 25.8637 3.02508 16.8569 2.89636 16.6625C2.38145 16.4033 0.772362 16.5329 0.0643635 16.4681L0.128727 11.8028C0.514908 11.6732 1.67345 11.6732 3.08945 11.6732H3.86181ZM44.3465 17.4401C42.9305 17.6345 42.2868 18.1529 41.965 19.4488C41.5788 21.0687 41.4501 25.7989 42.4799 27.0948C43.1235 27.8076 44.5395 28.1963 45.8912 28.0019C48.2726 27.6132 48.4013 25.6045 48.337 23.4014V23.0774C48.337 22.6886 48.337 22.2998 48.337 21.8463C48.337 20.6151 48.4657 19.06 47.6934 18.2177C47.0497 17.5049 45.6337 17.1809 44.3465 17.4401ZM26.4534 0.00980516C32.1817 -0.184585 38.7468 2.53687 42.4155 5.9063C43.1235 6.55426 45.5694 8.95174 45.6981 9.6645C44.6039 9.7293 44.6683 9.34052 44.089 8.69255C43.381 7.85019 40.7421 5.19353 40.1628 5.19353C39.6479 5.32313 38.2319 6.10069 37.9101 6.42467C38.1676 7.00784 40.1628 8.75735 40.3559 9.6645C39.4548 9.7293 39.6479 9.7293 39.1974 9.14613C38.9399 8.82214 38.7468 8.56296 38.5537 8.30377C38.2319 7.91499 37.3952 7.13743 37.2021 6.74865L33.1472 8.04458L33.7908 9.6645C33.0185 9.7293 33.0828 9.7293 32.761 9.21092C32.5679 8.88694 32.4392 8.62775 32.2461 8.36857C31.7312 8.30377 29.929 8.69255 29.221 8.75735C25.4879 9.14613 27.4832 8.69255 26.7752 9.7293H26.0672L26.0029 8.88694C25.0374 8.82214 24.1363 8.82214 23.2352 8.69255C22.5272 8.62775 21.24 8.30377 20.5963 8.36857L19.8883 9.7293H19.116C19.2447 9.14613 19.6952 8.69255 19.6952 8.10938C18.408 7.7854 17.0563 7.20223 15.8978 6.94304C15.3185 7.33182 14.2243 8.69255 13.7738 9.34052C13.2589 9.7293 13.3232 9.7293 12.4865 9.7293C12.744 8.88694 14.3531 7.20223 14.868 6.48947C14.5462 6.16548 13.1302 5.38792 12.5509 5.25833C11.4567 5.7767 9.46143 7.7854 8.62471 8.75735C8.1098 9.34052 8.1098 9.7293 7.07998 9.6645C7.33744 8.75735 9.84761 6.35987 10.4913 5.8415C11.7785 4.73996 13.0014 3.83281 14.7392 2.92565C18.2149 1.11135 21.6905 0.139398 26.4534 0.00980516ZM22.7847 4.80475C22.3341 5.38792 21.24 6.81345 20.9825 7.59101C22.141 7.91499 23.8789 8.10938 25.2305 8.10938H25.9385C25.9385 7.33182 26.0672 4.15679 25.8741 3.57362C23.7501 3.31443 24.2007 2.92565 22.7847 4.80475ZM28.7061 3.31443L26.8396 3.50882V7.97979C27.9338 8.17418 30.7014 7.7206 31.6668 7.46141C31.345 6.55426 30.1865 5.12874 29.5428 4.28638C29.221 3.9624 28.8992 3.63842 28.7061 3.31443ZM19.5021 3.83281C18.9872 4.15679 16.7345 5.64711 16.5414 6.23028C17.0563 6.61906 19.309 7.33182 20.0814 7.33182C20.5963 6.35987 22.9778 3.24964 22.9778 3.05525C21.8192 2.21289 20.9825 2.86086 19.5021 3.83281ZM29.6716 2.99045L32.6967 7.26702C33.469 7.13743 35.7861 6.48947 36.2366 6.10069C35.593 5.12874 32.8254 3.44403 31.6668 2.79606C30.7014 2.27769 30.5727 2.73126 29.6716 2.99045ZM18.8585 1.9537C17.7 2.34248 14.0312 3.83281 13.452 4.67516C13.8382 5.12874 14.868 5.58231 15.576 5.7767L18.0861 3.83281C18.6654 3.37923 20.4676 2.34248 20.7894 2.0185C20.2101 1.37053 19.7596 1.69452 18.8585 1.9537ZM31.9243 1.88891C32.053 2.14809 33.9196 3.18484 34.6276 3.70321C35.1425 4.02719 35.4643 4.35118 35.9148 4.67516C36.3654 4.99914 36.6872 5.45272 37.1377 5.71191C37.5239 5.64711 38.9399 4.86955 39.2617 4.67516C39.133 4.35118 39.3261 4.61036 38.9399 4.35118C37.8457 3.57362 35.2712 2.40728 33.9196 2.0185C33.0185 1.69452 32.6323 1.43533 31.9243 1.88891ZM21.948 1.17614C21.8836 1.17614 21.7549 1.24094 21.6905 1.24094C21.433 1.37053 21.5618 1.30574 21.433 1.43533C23.1065 2.21289 23.7501 2.79606 26.3247 2.73126C27.9338 2.73126 30.5727 2.14809 31.2163 1.30574C28.6418 0.787364 24.7156 0.528178 21.948 1.17614Z" fill="white"/>
</g>
<defs>
<clipPath id="clip0_1237_14204">
<rect width="56" height="70" fill="white"/>
</clipPath>
</defs>
</svg>
