<svg width="18" height="15" viewBox="0 0 18 15" fill="none" xmlns="http://www.w3.org/2000/svg">
<path d="M17.7168 2.06901C17.0751 2.36068 16.3834 2.55234 15.6668 2.64401C16.4001 2.20234 16.9668 1.50234 17.2334 0.660677C16.5418 1.07734 15.7751 1.36901 14.9668 1.53568C14.3084 0.819011 13.3834 0.402344 12.3334 0.402344C10.3751 0.402344 8.77511 2.00234 8.77511 3.97734C8.77511 4.26068 8.80845 4.53568 8.86678 4.79401C5.90011 4.64401 3.25845 3.21901 1.50011 1.06068C1.19178 1.58568 1.01678 2.20234 1.01678 2.85234C1.01678 4.09401 1.64178 5.19401 2.60845 5.81901C2.01678 5.81901 1.46678 5.65234 0.983447 5.40234V5.42734C0.983447 7.16068 2.21678 8.61068 3.85011 8.93568C3.32572 9.07918 2.77519 9.09915 2.24178 8.99401C2.46812 9.70441 2.91139 10.326 3.50929 10.7715C4.10719 11.2169 4.82965 11.4638 5.57511 11.4773C4.31147 12.4777 2.74511 13.0184 1.13345 13.0107C0.850114 13.0107 0.566781 12.994 0.283447 12.9607C1.86678 13.9773 3.75011 14.569 5.76678 14.569C12.3334 14.569 15.9418 9.11901 15.9418 4.39401C15.9418 4.23568 15.9418 4.08568 15.9334 3.92734C16.6334 3.42734 17.2334 2.79401 17.7168 2.06901Z" fill="#EAE9F3"/>
</svg>
