<svg width="16" height="10" viewBox="0 0 16 10" fill="none" xmlns="http://www.w3.org/2000/svg">
<path d="M15.21 8.7462C14.6147 7.63545 13.0811 6.30076 12.448 5.71996C12.2747 5.56094 12.2562 5.28583 12.4139 5.10998C13.6221 3.76395 14.5885 2.21735 14.9211 1.28279C15.0679 0.869951 14.7641 0.433755 14.3361 0.433755H13.0927C12.6829 0.433755 12.443 0.586252 12.3287 0.829079C11.3245 2.96232 10.4632 3.88554 9.86018 4.42512C9.52259 4.72736 8.99615 4.47698 8.99615 4.01709C8.99615 3.13096 8.99615 1.98551 8.99615 1.17323C8.99615 0.779277 8.68539 0.460545 8.30208 0.460545L6.03068 0.433755C5.74476 0.433755 5.58143 0.769317 5.75305 1.00459L6.12808 1.56271C6.26921 1.75608 6.34541 1.99135 6.34541 2.2328L6.34342 4.74625C6.34342 5.18348 5.83223 5.39711 5.52875 5.09074C4.50205 4.05418 3.61118 1.93743 3.29048 0.925248C3.19772 0.632276 2.93301 0.434442 2.63285 0.433755L1.40803 0.430664C0.948518 0.430664 0.612579 0.882315 0.737479 1.33706C1.85661 5.40948 4.15286 9.28372 8.24509 9.70377C8.64829 9.74499 8.99615 9.40839 8.99615 8.99177V7.67082C8.99615 7.29199 9.28273 6.96639 9.65113 6.95677C9.66405 6.95643 9.67698 6.95643 9.6899 6.95643C10.7723 6.95643 11.9845 8.58958 12.4086 9.35344C12.5305 9.57325 12.7584 9.7072 13.0049 9.7072H14.6525C15.1332 9.7072 15.4416 9.17862 15.21 8.7462Z" fill="#EAE9F3"/>
</svg>
