<svg width="81" height="80" viewBox="0 0 81 80" fill="none" xmlns="http://www.w3.org/2000/svg">
<path d="M34.6035 57.7396L65.6277 26.7155L63.8871 24.9749L34.6035 54.2585L19.4738 39.1287L17.7333 40.8693L34.6035 57.7396Z" fill="#0DBD14"/>
<path fill-rule="evenodd" clip-rule="evenodd" d="M80.1484 40C80.1484 62.0914 62.2398 80 40.1484 80C18.0571 80 0.148438 62.0914 0.148438 40C0.148438 17.9086 18.0571 0 40.1484 0C62.2398 0 80.1484 17.9086 80.1484 40ZM78.9177 40C78.9177 61.4117 61.5601 78.7692 40.1484 78.7692C18.7368 78.7692 1.37921 61.4117 1.37921 40C1.37921 18.5883 18.7368 1.23077 40.1484 1.23077C61.5601 1.23077 78.9177 18.5883 78.9177 40Z" fill="#0DBD14"/>
</svg>
