<svg width="88" height="17" viewBox="0 0 88 17" fill="none" xmlns="http://www.w3.org/2000/svg">
<g clip-path="url(#clip0_1237_14190)">
<path d="M9.03314 0H9.85185C10.8616 0.0822059 11.9259 0.13701 12.7719 0.712451C13.2632 1.04127 13.5088 1.67152 13.2904 2.24696C13.0175 3.01422 12.2261 3.64446 11.3801 3.50745C10.9162 3.37044 10.5068 3.06902 10.152 2.7676C9.55166 2.27436 8.95127 1.72632 8.24172 1.3975C7.66862 1.12348 7.01365 1.12348 6.41326 1.26049C5.32164 1.50711 4.47563 2.32917 3.92982 3.28824C3.24756 4.46652 2.89279 5.86402 2.94737 7.23412C2.94737 8.87824 3.41131 10.5498 4.33918 11.9199C5.29435 13.29 6.74074 14.3312 8.40546 14.6875C9.57895 14.9615 10.8343 14.8793 11.9259 14.386C12.4172 14.1668 12.8538 13.8928 13.2904 13.5914C13.5088 13.7284 13.7544 13.8654 14 13.9476C12.9084 15.1807 11.4893 16.1672 9.90643 16.6604C8.24172 17.1536 6.38596 17.1262 4.77583 16.4686C2.97466 15.7287 1.52827 14.249 0.764133 12.5227C0.300195 11.5088 0.0818713 10.3853 0 9.28927V8.54942C0.0818713 7.50814 0.272904 6.49427 0.709552 5.5352C1.44639 3.83628 2.75634 2.38397 4.33918 1.4249C5.75828 0.548039 7.39571 0.0822059 9.03314 0Z" fill="white"/>
<path d="M26.5618 0C26.7022 0.0560132 26.8427 0.112026 26.9831 0.140033C26.8708 1.06425 26.7865 1.96046 26.6742 2.88468C28.2472 1.73641 29.9045 0.588138 31.8427 0.16804C32.2079 0.0840198 32.6011 0.0560132 32.9663 0H33.6405C34.3708 0.0560132 35.1011 0.16804 35.7472 0.504119C36.5056 0.868204 37.1236 1.54036 37.4607 2.32455C37.9663 3.4168 38.0506 4.62109 38.0506 5.82537C38.0506 8.17792 38.0506 10.5305 38.0506 12.911C38.0506 13.4152 38.0506 13.8913 38.1067 14.3954C38.1629 14.7875 38.2191 15.2356 38.5 15.5437C38.7528 15.8517 39.118 16.0478 39.5112 16.1318C40.0169 16.2718 40.4944 16.3558 41 16.4119C41 16.6079 41 16.804 41 16.972H32.2079C32.2079 16.7759 32.1798 16.5799 32.236 16.4119C32.9944 16.2718 33.809 16.1878 34.4551 15.7397C35.073 15.2636 35.1011 14.4234 35.1573 13.7232C35.1854 12.0708 35.1573 10.3904 35.1854 8.73806C35.1854 7.61779 35.2416 6.49753 35.0169 5.37727C34.8764 4.53707 34.5674 3.66886 33.9494 3.05272C33.1348 2.18451 31.8708 1.93245 30.691 1.96046C30.073 1.93245 29.4831 2.04448 28.9213 2.24053C28.1629 2.52059 27.4888 2.99671 26.8989 3.52883C26.8146 3.58484 26.8427 3.69687 26.8427 3.78089C26.8427 7.08567 26.8427 10.3624 26.8427 13.6672C26.8708 14.2273 26.8989 14.7875 27.1236 15.3196C27.3202 15.7397 27.7697 15.9918 28.2191 16.1318C28.7247 16.2718 29.2584 16.3839 29.7921 16.4399C29.7921 16.6359 29.7921 16.804 29.7921 17C26.8708 17 23.9213 17 21 17C21 16.804 21 16.6079 21 16.4399C21.5337 16.3839 22.0393 16.2718 22.5449 16.1318C23.0225 15.9918 23.4719 15.6837 23.6685 15.1796C23.9494 14.3674 23.8933 13.4992 23.9213 12.631V5.0972C23.9213 4.59308 23.9213 4.08896 23.6966 3.64086C23.3596 2.94069 22.6854 2.49259 22.0674 2.01647C22.0674 1.90445 22.0674 1.76442 22.0674 1.65239C23.5843 1.09226 25.073 0.560132 26.5618 0Z" fill="white"/>
<path d="M48.1509 0H48.9182C49.4014 0.0548818 49.8845 0.109764 50.3392 0.219527C51.5897 0.521377 52.7264 1.26228 53.4369 2.33248C54.0622 3.23803 54.3464 4.33566 54.4032 5.40586C50.7371 5.40586 47.0426 5.40586 43.3765 5.40586C43.2912 6.00956 43.2628 6.61326 43.2344 7.21696C43.0638 8.94574 43.547 10.7294 44.6269 12.1289C45.5932 13.3912 47.0426 14.2693 48.634 14.5437C49.6856 14.7083 50.7939 14.7083 51.7886 14.3516C52.8685 13.9949 53.7495 13.1991 54.4316 12.321C54.6305 12.4582 54.8295 12.5954 55 12.7326C53.9769 14.379 52.4707 15.7785 50.6234 16.492C48.1509 17.4799 45.1669 16.9859 43.0923 15.3669C41.9839 14.5162 41.1313 13.3363 40.6198 12.074C40.0514 10.6745 39.8809 9.13782 40.0798 7.62857C40.364 5.15889 41.7281 2.77153 43.8596 1.37205C45.11 0.521377 46.6447 0.0823227 48.1509 0ZM46.7299 0.878109C45.65 1.0702 44.7974 1.86598 44.2575 2.74409C43.888 3.34779 43.5754 4.03381 43.4901 4.71984C44.3427 4.63751 45.1669 4.66495 46.0195 4.61007C47.6109 4.55519 49.2024 4.50031 50.7939 4.41799C50.5381 3.34779 50.0834 2.22271 49.2024 1.48181C48.5488 0.90555 47.6109 0.686023 46.7299 0.878109Z" fill="white"/>
<path d="M82.5183 0H83.1561C84.4871 0.0822519 85.8459 0.438677 86.9551 1.20636C87.0105 2.30305 87.0105 3.37233 87.066 4.46902C86.7887 4.52385 86.5114 4.57869 86.2341 4.63352C85.9013 3.53683 85.4854 2.3853 84.6258 1.5902C83.7107 0.740267 82.1301 0.630598 81.1595 1.45312C80.5494 1.97404 80.2721 2.79656 80.3276 3.59166C80.3276 4.4416 80.8545 5.15445 81.4645 5.67538C82.4905 6.52531 83.7661 7.07366 84.9031 7.73168C85.8459 8.28002 86.7887 8.91062 87.3988 9.81539C87.9256 10.5831 88.092 11.5701 87.9534 12.4749C87.8424 13.5441 87.2878 14.5586 86.4837 15.2988C85.2913 16.3955 83.6552 16.9439 82.0469 16.9987C80.3831 17.0261 78.6638 16.6149 77.305 15.6553C77.2218 14.6957 77.1664 13.7086 77.0832 12.749C77.0277 12.3652 77.0555 11.9814 77 11.5975C77.305 11.5427 77.5823 11.4604 77.8874 11.4604C78.1369 12.749 78.6915 14.0102 79.6066 14.9698C80.2999 15.6827 81.2704 16.1214 82.2687 16.0939C83.0174 16.1214 83.7661 15.8472 84.293 15.3263C85.319 14.3118 85.4299 12.5023 84.4871 11.3782C83.9602 10.7202 83.2115 10.2815 82.4628 9.89764C81.2982 9.26704 80.0226 8.77353 78.9966 7.89618C78.3033 7.34783 77.7764 6.58015 77.5823 5.73021C77.3605 4.77061 77.4159 3.70133 77.8596 2.79656C78.2756 1.94663 79.0243 1.2612 79.8562 0.795101C80.6881 0.274173 81.6032 0.0548346 82.5183 0Z" fill="white"/>
<path d="M52.0557 0.0280066C54.672 0.0280066 57.3161 0.0280066 59.9324 0.0280066C59.9324 0.224053 59.9324 0.392092 59.9324 0.588138C59.4314 0.616145 58.9304 0.644152 58.4851 0.840198C58.1789 0.952224 57.9284 1.17628 57.8449 1.48435C57.7893 1.84843 57.8449 2.21252 57.9563 2.5486C58.2068 3.33278 58.5408 4.08896 58.8191 4.87315C59.8489 7.53377 60.9066 10.1664 61.9085 12.827C63.0775 10.1104 64.2187 7.33773 65.3598 4.62109C65.4433 4.45305 65.332 4.28501 65.2763 4.11697C64.9145 3.24876 64.664 2.29654 64.1074 1.51236C63.6342 0.868204 62.7714 0.700165 62.0477 0.560132C62.0477 0.364086 62.0477 0.196046 62.0477 0C64.6918 0 67.3638 0 70.0358 0C70.0358 0.196046 70.0358 0.364086 70.0358 0.560132C69.4513 0.616145 68.8668 0.644152 68.338 0.896211C68.004 1.06425 67.7256 1.40033 67.7535 1.79242C67.7813 2.32455 67.9761 2.80066 68.1431 3.27677C69.3121 6.44152 70.5368 9.60626 71.7058 12.799C72.1789 11.7908 72.6242 10.7825 73.0696 9.74629C73.8211 8.00988 74.5726 6.27348 75.1849 4.48105C75.4354 3.69687 75.7137 2.94069 75.7972 2.1285C75.8529 1.7084 75.7415 1.20428 75.3519 0.952224C74.8509 0.644152 74.2664 0.644152 73.7097 0.560132C73.7097 0.364086 73.7097 0.196046 73.7097 0C75.7972 0 77.9125 0 80 0C80 0.196046 80 0.364086 80 0.560132C79.3598 0.616145 78.7197 0.784185 78.2187 1.20428C77.4394 1.82043 77.0497 2.77265 76.6322 3.66886C74.6561 8.12191 72.6799 12.575 70.6759 17C70.5089 17 70.3698 17 70.2028 17H70.1749C68.6998 13.1911 67.1968 9.38221 65.7217 5.57331C64.1352 9.38221 62.6044 13.1911 61.0457 17H61.0179C60.8509 17 60.6839 16.972 60.4891 17C58.6243 12.3509 56.7594 7.70181 54.8946 3.05272C54.6163 2.40857 54.338 1.73641 53.8091 1.2603C53.3082 0.812191 52.668 0.644152 52 0.588138C52.0557 0.392092 52.0557 0.224053 52.0557 0.0280066Z" fill="white"/>
<path d="M13.5648 5.06889C14.2626 4.47837 15.1482 4.10258 16.0607 4.02206C17.4026 3.88785 18.7714 4.371 19.7107 5.33731C20.5427 6.1694 21.0258 7.35044 20.9989 8.50464C20.9989 9.52463 20.65 10.5446 20.0059 11.323C19.335 12.182 18.342 12.7725 17.2684 12.9335C16.1949 13.1214 15.0677 12.9067 14.1552 12.343C13.0012 11.6451 12.196 10.3836 12.035 9.04148C11.874 7.77991 12.2765 6.4915 13.0817 5.5252C12.8401 5.92783 12.7059 6.38414 12.7596 6.84045C12.8401 7.6457 13.5379 8.34359 14.3431 8.45096C15.3092 8.61201 16.2754 7.91412 16.4633 6.97466C16.5438 6.54519 16.4901 6.08888 16.2754 5.71309C15.9534 5.09573 15.2556 4.6931 14.5578 4.74679C14.2089 4.74679 13.86 4.90784 13.5648 5.06889Z" fill="white"/>
</g>
<defs>
<clipPath id="clip0_1237_14190">
<rect width="88" height="17" fill="white"/>
</clipPath>
</defs>
</svg>
