<svg width="28" height="21" viewBox="0 0 28 21" fill="none" xmlns="http://www.w3.org/2000/svg">
<path d="M12.3846 2.21053V14.3684C12.3846 16.1272 11.7038 17.814 10.4921 19.0577C9.2803 20.3013 7.63678 21 5.92308 21C5.63746 21 5.36354 20.8836 5.16158 20.6763C4.95961 20.469 4.84615 20.1879 4.84615 19.8947C4.84615 19.6016 4.95961 19.3205 5.16158 19.1132C5.36354 18.9059 5.63746 18.7895 5.92308 18.7895C7.06446 18.7858 8.15807 18.3189 8.96515 17.4906C9.77223 16.6622 10.2272 15.5398 10.2308 14.3684V13.2632H2.15385C1.58261 13.2632 1.03477 13.0303 0.630847 12.6157C0.226922 12.2012 0 11.6389 0 11.0526V2.21053C0 1.62426 0.226922 1.062 0.630847 0.647448C1.03477 0.232894 1.58261 0 2.15385 0H10.2308C10.802 0 11.3498 0.232894 11.7538 0.647448C12.1577 1.062 12.3846 1.62426 12.3846 2.21053ZM25.8462 0H17.7692C17.198 0 16.6502 0.232894 16.2462 0.647448C15.8423 1.062 15.6154 1.62426 15.6154 2.21053V11.0526C15.6154 11.6389 15.8423 12.2012 16.2462 12.6157C16.6502 13.0303 17.198 13.2632 17.7692 13.2632H25.8462V14.3684C25.8426 15.5398 25.3876 16.6622 24.5805 17.4906C23.7735 18.3189 22.6798 18.7858 21.5385 18.7895C21.2528 18.7895 20.9789 18.9059 20.777 19.1132C20.575 19.3205 20.4615 19.6016 20.4615 19.8947C20.4615 20.1879 20.575 20.469 20.777 20.6763C20.9789 20.8836 21.2528 21 21.5385 21C23.2522 21 24.8957 20.3013 26.1075 19.0577C27.3192 17.814 28 16.1272 28 14.3684V2.21053C28 1.62426 27.7731 1.062 27.3692 0.647448C26.9652 0.232894 26.4174 0 25.8462 0Z" fill="#7271EF"/>
</svg>
