<svg width="55" height="54" viewBox="0 0 55 54" fill="none" xmlns="http://www.w3.org/2000/svg">
<path d="M54.9363 14.8329C53.338 0.0559408 37.0999 -4.65075 27.4994 5.15609C17.8983 -4.65086 1.66234 0.0561664 0.0635582 14.8329C-1.53298 29.5997 27.4781 53.9763 27.496 54H27.4995C27.5218 53.9766 56.533 29.5997 54.9364 14.8329H54.9363ZM43.5667 30.3334C43.5667 31.0326 43.0039 31.5974 42.3132 31.5974L33.2513 31.5978V40.7271C33.2513 41.4251 32.6898 41.9907 31.9966 41.9907L23.2147 41.9903C22.5219 41.9903 21.9604 41.4242 21.9604 40.7267L21.9609 31.5979H12.9007C12.2066 31.5979 11.6451 31.0322 11.6451 30.3338L11.6456 21.4872C11.6456 20.7883 12.2075 20.2244 12.9012 20.2244H21.9609V11.0946C21.9609 10.3976 22.5228 9.83185 23.2151 9.83185H31.997C32.6911 9.83185 33.2517 10.398 33.2517 11.0946V20.2244H42.3132C43.0047 20.2244 43.5667 20.7892 43.5667 21.4872L43.5667 30.3334Z" fill="url(#paint0_linear_1409_17434)"/>
<defs>
<linearGradient id="paint0_linear_1409_17434" x1="-2.44889" y1="16.6228" x2="32.5843" y2="64.1705" gradientUnits="userSpaceOnUse">
<stop stop-color="#7271EF"/>
<stop offset="0.647976" stop-color="#FF5281"/>
<stop offset="0.910069" stop-color="#FF7C52"/>
</linearGradient>
</defs>
</svg>
