<svg width="68" height="54" viewBox="0 0 68 54" fill="none" xmlns="http://www.w3.org/2000/svg">
<path d="M65.1093 24.8906C62.1995 19.0967 57.5868 14.9487 52.477 13.5898C48.9995 12.6598 45.5223 13.1607 42.6125 14.9489C41.1933 15.4498 39.7027 15.807 38.2126 16.0215V13.3035C38.2126 12.2308 38.4255 10.3709 39.6319 10.3709C44.1738 10.3709 46.7286 7.65281 46.7286 2.8607V0H41.0511V2.8607C41.0511 4.43423 41.0511 4.64881 39.6319 4.64881C35.3736 4.64881 32.5351 8.15361 32.5351 13.3035V16.1642C30.1932 15.9496 27.9224 15.4487 25.7219 14.6619C22.8121 12.8024 19.2637 12.3016 15.7154 13.2316C10.5348 14.5906 5.92169 18.8104 2.94117 24.7469C-2.16851 35.0465 -0.465155 46.9909 6.84452 51.9261C8.90233 53.2851 11.2444 54 13.6577 54C14.7933 54 15.9289 53.8568 17.064 53.5709C21.9609 52.2838 26.432 48.4212 29.4125 42.9855C32.4639 41.841 35.8707 41.7697 38.9934 42.8423C41.9032 48.1352 46.3031 51.926 51.1291 53.1419C54.6775 54.0719 58.2968 53.4996 61.2066 51.5684C68.4449 46.7768 70.1479 35.0463 65.1094 24.8899L65.1093 24.8906ZM24.0899 34.4747H19.8316V38.7663H14.1541V34.4747H9.89575V28.7526H14.1541V24.4609H19.8316V28.7526H24.0899V34.4747ZM50.348 39.338C46.019 39.338 42.5413 35.8332 42.5413 31.4701C42.5413 27.107 46.0188 23.6022 50.348 23.6022C54.677 23.6022 58.1547 27.107 58.1547 31.4701C58.1542 35.8336 54.6772 39.338 50.348 39.338Z" fill="url(#paint0_linear_1409_17467)"/>
<defs>
<linearGradient id="paint0_linear_1409_17467" x1="-3.02772" y1="16.6228" x2="29.2334" y2="70.7573" gradientUnits="userSpaceOnUse">
<stop stop-color="#7271EF"/>
<stop offset="0.647976" stop-color="#FF5281"/>
<stop offset="0.910069" stop-color="#FF7C52"/>
</linearGradient>
</defs>
</svg>
