<svg width="74" height="73" viewBox="0 0 74 73" fill="none" xmlns="http://www.w3.org/2000/svg">
<g clip-path="url(#clip0_1950_22499)">
<rect x="0.628906" width="73" height="73" rx="7.1938" fill="#F7F7FA"/>
<path d="M10.6785 36.8742C10.314 36.6008 9.40234 35.9629 9.40234 34.6871C9.40234 33.4113 10.314 32.5 11.5899 32.5C12.866 32.5 13.7777 33.4113 13.7777 34.687C13.7777 35.9628 12.8662 36.6007 12.5015 36.8741C12.9574 36.3273 13.5044 35.7805 13.5044 34.687C13.5044 33.5936 12.6839 32.8645 11.59 32.8645C10.4962 32.8645 9.67585 33.5936 9.67585 34.687C9.67585 35.7805 10.2227 36.3273 10.6785 36.8742Z" fill="#5C9733"/>
<path d="M10.5986 37.2383C10.8581 37.4205 11.8607 37.4205 12.5899 37.2383C12.1342 37.6939 10.4934 37.7852 10.5986 37.2383Z" fill="#38601E"/>
<path d="M10.6772 37.6953C10.9367 37.8776 11.7712 37.8776 12.5003 37.6953C12.0446 38.151 10.5721 38.2422 10.6772 37.6953Z" fill="#38601E"/>
<path d="M10.7678 38.1484C11.0273 38.3306 11.6793 38.3306 12.4085 38.1484C11.9527 38.6041 10.6626 38.6952 10.7678 38.1484Z" fill="#38601E"/>
<path d="M11.4727 36.8528C11.9271 36.7499 11.9293 36.2313 11.6528 35.6784C11.3834 35.14 11.0697 34.8553 11.1125 34.5468C11.1555 34.2383 12.2617 34.2724 12.1673 34.607C12.6775 34.1482 10.9712 34.0154 10.924 34.5297C10.8909 34.8887 11.2542 35.2155 11.5242 35.7213C11.7935 36.2257 11.8627 36.66 11.4727 36.8528Z" fill="#38601E"/>
<path d="M12.5977 39.9754C16.5046 41.0486 17.8328 39.7226 15.9763 38.2617C15.9193 38.3211 15.8138 38.415 15.7461 38.4662C16.8336 39.54 15.9876 40.1281 13.5877 39.6508C13.2507 39.775 12.955 39.8745 12.5977 39.9754Z" fill="#38601E"/>
<path d="M15.4426 37.8909C14.9521 37.5902 14.3258 37.2921 13.5586 37.0156C14.2688 37.3803 14.8308 37.7261 15.2514 38.0427C15.3145 38.0018 15.3856 37.9447 15.4426 37.8909Z" fill="#38601E"/>
<path d="M8.9513 35.6925C5.92596 35.0089 6.71215 37.9015 11.2799 39.5549C11.5045 39.5051 11.8743 39.412 12.2253 39.3109C12.0003 39.2449 11.7664 39.172 11.5239 39.0916C8.05531 37.9443 5.98428 35.4352 8.9513 35.6925Z" fill="#38601E"/>
<path d="M8.06247 37.9003C8.00403 37.8559 7.92682 37.7896 7.87198 37.7382C4.86566 39.1261 6.4436 41.4877 11.8928 40.0506C16.991 38.7064 17.7709 36.2615 13.7236 36.6558C17.1705 36.6902 16.2816 38.4621 11.7642 39.562C7.68068 40.5563 5.56234 39.3318 8.06247 37.9003Z" fill="#5C9733"/>
<path d="M8.74576 37.5579C9.06308 37.4158 9.42667 37.2737 9.83872 37.1328C9.38157 37.2231 8.97068 37.3311 8.60547 37.4521C8.65324 37.4928 8.69173 37.5206 8.74576 37.5579Z" fill="#5C9733"/>
<path d="M17.7188 40.379V32.6523H19.1672V40.379H17.7188Z" fill="#5C9733"/>
<path d="M23.6854 40.38V35.9454C23.6854 35.8737 23.6458 35.8379 23.5666 35.8379H21.6202C21.5447 35.8379 21.507 35.8737 21.507 35.9454V40.38H20.0586V35.8379C20.0586 35.6155 20.1887 35.4269 20.449 35.2722C20.7016 35.1403 20.9732 35.0742 21.2637 35.0742H23.9286C24.0719 35.0742 24.2152 35.0922 24.3585 35.1279C24.5018 35.1638 24.631 35.2147 24.746 35.2806C24.8611 35.3467 24.9544 35.4268 25.0262 35.5211C25.0978 35.6153 25.1336 35.7209 25.1336 35.8378V40.3799H23.6854V40.38Z" fill="#5C9733"/>
<path d="M29.6464 40.38V35.9454C29.6464 35.8737 29.6067 35.8379 29.5275 35.8379H27.5811C27.5056 35.8379 27.468 35.8737 27.468 35.9454V40.38H26.0195V35.8379C26.0195 35.6155 26.1497 35.4269 26.4099 35.2722C26.6625 35.1403 26.9342 35.0742 27.2246 35.0742H29.8895C30.0328 35.0742 30.1761 35.0922 30.3194 35.1279C30.4627 35.1638 30.592 35.2147 30.707 35.2806C30.822 35.3467 30.9153 35.4268 30.9871 35.5211C31.0587 35.6153 31.0946 35.7209 31.0946 35.8378V40.3799H29.6464V40.38Z" fill="#5C9733"/>
<path d="M36.9325 39.9246C36.8609 40.0208 36.7675 40.1028 36.6524 40.1707C36.5373 40.2386 36.4081 40.2905 36.2648 40.3262C36.1214 40.3622 35.9781 40.38 35.8348 40.38H33.1699C32.8681 40.38 32.5966 40.3102 32.3552 40.1707C32.0949 40.0235 31.9648 39.8351 31.9648 39.6051V35.8379C31.9648 35.6155 32.095 35.4269 32.3552 35.2722C32.608 35.1403 32.8795 35.0742 33.1699 35.0742H35.8348C35.9781 35.0742 36.1214 35.0922 36.2648 35.1279C36.4081 35.1638 36.5373 35.2147 36.6524 35.2806C36.7674 35.3467 36.8608 35.4268 36.9325 35.5211C37.0042 35.6153 37.04 35.7209 37.04 35.8378V39.605C37.04 39.7219 37.0041 39.8285 36.9325 39.9246ZM35.5916 35.9454C35.5916 35.8737 35.552 35.8379 35.4727 35.8379H33.5264C33.451 35.8379 33.4133 35.8737 33.4133 35.9454V39.5088C33.4133 39.5731 33.451 39.6051 33.5264 39.6051H35.4727C35.552 39.6051 35.5916 39.5731 35.5916 39.5088V35.9454Z" fill="#5C9733"/>
<path d="M39.1074 40.3789C38.8057 40.3789 38.5342 40.3091 38.2927 40.1696C38.0324 40.0224 37.9023 39.834 37.9023 39.6039V33.4272C37.9023 33.2048 38.0324 33.0162 38.2927 32.8616C38.5342 32.7221 38.8059 32.6523 39.1074 32.6523H43.9393V33.4272H39.4639C39.3886 33.4272 39.3507 33.4593 39.3507 33.5234V39.5078C39.3507 39.572 39.3885 39.604 39.4639 39.604H42.4909V36.2327C42.4909 36.0404 42.3702 35.9443 42.1287 35.9443H40.9123V35.1637H43.9392V40.3789H39.1074Z" fill="#38601E"/>
<path d="M45.8848 40.3799C45.583 40.3799 45.3116 40.3101 45.0701 40.1706C44.8098 40.0234 44.6797 39.835 44.6797 39.605V37.2858C44.6797 37.0633 44.8098 36.8748 45.0701 36.7201C45.3229 36.5882 45.5943 36.5221 45.8848 36.5221H48.3064V35.9453C48.3064 35.8736 48.2668 35.8378 48.1876 35.8378H44.923V35.0742H48.5498C48.6929 35.0742 48.8365 35.0922 48.9798 35.1279C49.123 35.1638 49.2522 35.2147 49.3675 35.2806C49.4824 35.3467 49.5757 35.4268 49.6474 35.5211C49.7191 35.6153 49.755 35.7209 49.755 35.8378V40.3799H45.8848ZM48.3064 37.2858H46.2413C46.1659 37.2858 46.1281 37.3217 46.1281 37.3933V39.5087C46.1281 39.573 46.1658 39.605 46.2413 39.605H48.3064V37.2858Z" fill="#38601E"/>
<path d="M56.4228 40.3805V35.9459C56.4228 35.8743 56.3831 35.8384 56.3039 35.8384H55.0874C55.0121 35.8384 54.9742 35.8743 54.9742 35.9459V40.3805H53.5258V35.9459C53.5258 35.8743 53.4861 35.8384 53.4071 35.8384H52.1906C52.1153 35.8384 52.0773 35.8743 52.0773 35.9459V40.3805H50.6289V35.8384C50.6289 35.6161 50.7591 35.4274 51.0193 35.2728C51.2721 35.1408 51.5437 35.0747 51.834 35.0747H56.666C56.817 35.071 56.964 35.087 57.1073 35.1229C57.2506 35.1587 57.378 35.2105 57.4893 35.2783C57.6005 35.3462 57.6909 35.4282 57.7609 35.5244C57.8307 35.6206 57.8674 35.7252 57.8712 35.8383V40.3804H56.4228V40.3805Z" fill="#38601E"/>
<path d="M63.7138 37.6508C63.642 37.7469 63.5488 37.829 63.4338 37.8968C63.3186 37.9647 63.1894 38.0175 63.0461 38.0552C62.9029 38.093 62.7592 38.1118 62.6161 38.1118H60.1944V39.5088C60.1944 39.5731 60.2322 39.6051 60.3077 39.6051H63.5665V40.38H59.9512C59.6495 40.38 59.378 40.3102 59.1365 40.1707C58.8763 40.0235 58.7461 39.8351 58.7461 39.6051V35.8379C58.7461 35.6155 58.8763 35.4269 59.1365 35.2722C59.3893 35.1403 59.6609 35.0742 59.9512 35.0742H62.6161C62.7592 35.0742 62.9029 35.0922 63.0461 35.1279C63.1893 35.1638 63.3186 35.2147 63.4338 35.2806C63.5488 35.3467 63.642 35.4268 63.7138 35.5211C63.7854 35.6153 63.8212 35.7209 63.8212 35.8378V37.331C63.8212 37.4482 63.7854 37.5547 63.7138 37.6508ZM62.3728 35.9454C62.3728 35.8737 62.3333 35.8379 62.2541 35.8379H60.3078C60.2324 35.8379 60.1945 35.8737 60.1945 35.9454V37.3311H62.2541C62.3334 37.3311 62.3728 37.3011 62.3728 37.2408V35.9454V35.9454Z" fill="#38601E"/>
<path d="M69.5654 39.9246C69.4937 40.0208 69.4005 40.1028 69.2855 40.1707C69.1703 40.2386 69.0411 40.2905 68.8978 40.3262C68.7546 40.3622 68.611 40.38 68.4677 40.38H64.5977V39.6051H68.1056C68.185 39.6051 68.2244 39.5731 68.2244 39.5088V38.2022C68.2244 38.1419 68.1848 38.1118 68.1056 38.1118H65.8029C65.5125 38.1118 65.2409 38.0458 64.9881 37.9137C64.728 37.7667 64.5978 37.5726 64.5978 37.3311V35.8379C64.5978 35.6155 64.728 35.4269 64.9881 35.2722C65.241 35.1403 65.5125 35.0742 65.8029 35.0742H69.6729V35.8378H66.1594C66.084 35.8378 66.0461 35.8736 66.0461 35.9453V37.2407C66.0461 37.3011 66.0839 37.331 66.1594 37.331H68.4677C68.611 37.331 68.7546 37.35 68.8978 37.3876C69.0409 37.4254 69.1703 37.4781 69.2855 37.546C69.4005 37.6138 69.4937 37.6959 69.5654 37.792C69.6372 37.8882 69.6729 37.9947 69.6729 38.1116V39.605C69.6729 39.7219 69.6372 39.8285 69.5654 39.9246Z" fill="#38601E"/>
</g>
<defs>
<clipPath id="clip0_1950_22499">
<rect x="0.628906" width="73" height="73" rx="7.1938" fill="white"/>
</clipPath>
</defs>
</svg>
