<svg width="61" height="54" viewBox="0 0 61 54" fill="none" xmlns="http://www.w3.org/2000/svg">
<path d="M56.0608 20H54.0725C52.1481 8.64526 42.2702 0 30.468 0C18.6657 0 8.85191 8.64503 6.86349 20H4.9391C2.24511 20 0 22.2582 0 24.9678V33.2901C0 34.6452 0.513198 35.8706 1.47517 36.8386C2.43712 37.7418 3.6559 38.258 4.93864 38.258H9.3646C10.6473 38.258 11.6737 37.2256 11.6737 35.9354V24.0645C11.6737 13.6774 20.0763 5.2258 30.4034 5.2258C40.7305 5.2258 49.133 13.6773 49.133 24.0645V40.258C49.133 44.5162 45.6696 47.9998 41.436 47.9998H37.2025C36.8817 46.6447 35.7273 45.6772 34.2517 45.6772L26.6191 45.6777C24.8871 45.6777 23.5404 47.097 23.5404 48.7743V50.9033C23.5404 52.6454 24.9515 54 26.6191 54H34.3806C35.7917 54 36.9461 52.9676 37.3314 51.6774H41.5649C47.7867 51.6774 52.9183 46.5809 52.9183 40.258V38.1932H56.0614C57.3441 38.1932 58.6268 37.677 59.5248 36.7739C60.4868 35.8063 61 34.5805 61 33.2254L60.9996 24.9678C60.9996 22.2581 58.8188 20.0647 56.0605 20.0004L56.0608 20Z" fill="url(#paint0_linear_1409_17416)"/>
<path d="M45 24.5C45 16.4731 38.4622 10 30.5 10C22.5381 10.0005 16 16.4737 16 24.5C16 32.5269 22.4732 39 30.5 39C38.5268 39 45 32.5268 45 24.5ZM18.5893 24.5C18.5893 23.6583 18.6539 22.8171 18.848 22.0401H22.7322C22.6676 22.8167 22.6026 23.6584 22.6026 24.5C22.6026 25.3416 22.6672 26.1829 22.7322 26.9599H18.848C18.7184 26.1833 18.5893 25.3416 18.5893 24.5ZM25.1916 24.5C25.1916 23.6583 25.2562 22.8171 25.3212 22.0401H29.2054V26.9596H25.3212C25.2566 26.1834 25.1916 25.3417 25.1916 24.5001V24.5ZM42.4104 24.5C42.4104 25.3417 42.3458 26.1829 42.1516 26.9599H38.2675C38.332 26.1833 38.3971 25.3416 38.3971 24.5C38.3971 23.6584 38.3325 22.8171 38.2675 22.0401H42.1516C42.2812 22.8172 42.4104 23.6584 42.4104 24.5ZM35.808 24.5C35.808 25.3417 35.7435 26.1829 35.6784 26.9599H31.7943V22.0404H35.6784C35.743 22.8171 35.808 23.6583 35.808 24.4999V24.5ZM31.7943 35.8931V29.5495H35.2251C34.513 32.7211 33.2185 34.9864 31.7943 35.8931ZM31.7943 19.3864V13.1074C33.2184 14.0136 34.513 16.2794 35.2251 19.451H31.7943V19.3864ZM29.2052 13.1074V19.451H25.7744C26.4865 16.2144 27.781 14.0136 29.2052 13.1074ZM29.2052 29.5493V35.893C27.7811 34.9867 26.4865 32.721 25.7744 29.5493H29.2052ZM36.0667 34.9221C36.9084 33.4334 37.5555 31.6209 37.9437 29.5493H41.245C40.08 31.8797 38.2675 33.7572 36.0667 34.9221ZM41.1803 19.3864H37.8791C37.4908 17.3147 36.8433 15.5022 36.0021 14.0136C38.2675 15.2437 40.0799 17.1207 41.1803 19.3864ZM24.9326 14.0136C24.0909 15.5023 23.4438 17.3148 23.0556 19.3864H19.7543C20.9193 17.1205 22.7318 15.2435 24.9326 14.0136ZM19.819 29.5493H23.1202C23.5085 31.621 24.156 33.4335 24.9972 34.9221C22.7318 33.7572 20.9194 31.8797 19.819 29.5493Z" fill="url(#paint1_linear_1409_17416)"/>
<defs>
<linearGradient id="paint0_linear_1409_17416" x1="-2.71604" y1="16.6228" x2="31.0967" y2="67.5203" gradientUnits="userSpaceOnUse">
<stop stop-color="#7271EF"/>
<stop offset="0.647976" stop-color="#FF5281"/>
<stop offset="0.910069" stop-color="#FF7C52"/>
</linearGradient>
<linearGradient id="paint1_linear_1409_17416" x1="14.7088" y1="18.9271" x2="33.6226" y2="44.1304" gradientUnits="userSpaceOnUse">
<stop stop-color="#7271EF"/>
<stop offset="0.647976" stop-color="#FF5281"/>
<stop offset="0.910069" stop-color="#FF7C52"/>
</linearGradient>
</defs>
</svg>
