<svg width="62" height="54" viewBox="0 0 62 54" fill="none" xmlns="http://www.w3.org/2000/svg">
<path d="M30 48.5C30 51.5376 27.5379 54 24.5 54C21.4624 54 19 51.5376 19 48.5C19 45.4624 21.4624 43 24.5 43C27.538 43 30 45.4624 30 48.5Z" fill="url(#paint0_linear_1409_17450)"/>
<path d="M52 48.5C52 51.5376 49.5376 54 46.5 54C43.4624 54 41 51.5376 41 48.5C41 45.4624 43.4624 43 46.5 43C49.5376 43 52 45.4624 52 48.5Z" fill="url(#paint1_linear_1409_17450)"/>
<path d="M61.3647 9.67306C60.7773 8.88889 59.8633 8.49683 58.8839 8.49683H16.5162L15.0149 2.41864C14.6883 0.980273 13.3828 0 11.9466 0H3.13339C1.37068 0 0 1.4379 0 3.13713C0 4.83636 1.43619 6.27426 3.13339 6.27426L9.46569 6.27472L17.2994 37.5818C17.6259 39.0197 18.9314 40 20.3676 40H52.7472C54.1834 40 55.489 39.0198 55.8154 37.5818L61.8863 12.3531C62.1477 11.4381 61.9519 10.4579 61.364 9.67328L61.3647 9.67306ZM43.2817 31.2416L40.9316 32.9409C40.54 33.2677 39.9526 33.1369 39.6261 32.7448L35.8398 27.516L34.2729 29.4768C33.6199 30.261 32.3143 29.9346 32.1186 28.9539L29.7033 16.8624C29.5075 15.8166 30.6172 15.0324 31.5312 15.5554L42.2373 21.6336C43.1513 22.1565 43.0206 23.4636 42.1066 23.8557L39.7565 24.8359L43.5428 30.0647C43.8042 30.3916 43.6735 30.9802 43.2819 31.2414L43.2817 31.2416Z" fill="url(#paint2_linear_1409_17450)"/>
<defs>
<linearGradient id="paint0_linear_1409_17450" x1="18.5102" y1="46.3861" x2="25.6844" y2="55.946" gradientUnits="userSpaceOnUse">
<stop stop-color="#7271EF"/>
<stop offset="0.647976" stop-color="#FF5281"/>
<stop offset="0.910069" stop-color="#FF7C52"/>
</linearGradient>
<linearGradient id="paint1_linear_1409_17450" x1="40.5102" y1="46.3861" x2="47.6844" y2="55.946" gradientUnits="userSpaceOnUse">
<stop stop-color="#7271EF"/>
<stop offset="0.647976" stop-color="#FF5281"/>
<stop offset="0.910069" stop-color="#FF7C52"/>
</linearGradient>
<linearGradient id="paint2_linear_1409_17450" x1="-2.76057" y1="12.3132" x2="18.553" y2="56.335" gradientUnits="userSpaceOnUse">
<stop stop-color="#7271EF"/>
<stop offset="0.647976" stop-color="#FF5281"/>
<stop offset="0.910069" stop-color="#FF7C52"/>
</linearGradient>
</defs>
</svg>
