<svg width="58" height="54" viewBox="0 0 58 54" fill="none" xmlns="http://www.w3.org/2000/svg">
<path d="M0.971265 17.3571H57.0283C57.4719 17.3595 57.8603 17.0605 57.9698 16.6316C58.0798 16.2026 57.8825 15.7544 57.4922 15.5444L29.4637 0.115827C29.1739 -0.0386091 28.8261 -0.0386091 28.5359 0.115827L0.507364 15.5444C0.117083 15.7544 -0.0797096 16.2026 0.0302487 16.6316C0.139735 17.0605 0.528129 17.3595 0.971265 17.3571ZM28.9998 5.78571C30.6015 5.78571 31.8993 7.081 31.8993 8.67857C31.8993 10.2766 30.6015 11.5714 28.9998 11.5714C27.3985 11.5714 26.1003 10.2766 26.1003 8.67857C26.1003 7.081 27.3985 5.78571 28.9998 5.78571Z" fill="url(#paint0_linear_1409_17422)"/>
<path d="M57.0283 48.2143H55.0953V45.3214C55.0953 44.7889 54.6625 44.3571 54.1288 44.3571H3.87076C3.33701 44.3571 2.90426 44.7889 2.90426 45.3214V48.2143H0.971257C0.437511 48.2143 0.00475691 48.646 0.00475691 49.1786V53.0357C0.00475691 53.5682 0.437511 54 0.971257 54H57.0283C57.562 54 57.9948 53.5682 57.9948 53.0357V49.1786C57.9948 48.646 57.562 48.2143 57.0283 48.2143Z" fill="url(#paint1_linear_1409_17422)"/>
<path d="M33.6015 42.4286L31.9186 21.3593L32.7502 19.2857H25.2499L26.0809 21.3593L24.3985 42.4286H33.6015Z" fill="url(#paint2_linear_1409_17422)"/>
<path d="M42.6469 19.2857L43.478 21.3593L41.7955 42.4286H50.9985L49.3157 21.3593L50.1472 19.2857H42.6469Z" fill="url(#paint3_linear_1409_17422)"/>
<path d="M16.2045 42.4286L14.5216 21.3593L15.3532 19.2857H7.85286L8.68392 21.3593L7.00151 42.4286H16.2045Z" fill="url(#paint4_linear_1409_17422)"/>
<defs>
<linearGradient id="paint0_linear_1409_17422" x1="-2.58252" y1="16.6229" x2="49.7315" y2="64.1909" gradientUnits="userSpaceOnUse">
<stop stop-color="#7271EF"/>
<stop offset="0.523957" stop-color="#FF5281"/>
<stop offset="0.979862" stop-color="#FF7C52"/>
</linearGradient>
<linearGradient id="paint1_linear_1409_17422" x1="-2.58252" y1="16.6229" x2="49.7315" y2="64.1909" gradientUnits="userSpaceOnUse">
<stop stop-color="#7271EF"/>
<stop offset="0.523957" stop-color="#FF5281"/>
<stop offset="0.979862" stop-color="#FF7C52"/>
</linearGradient>
<linearGradient id="paint2_linear_1409_17422" x1="-2.58252" y1="16.6229" x2="49.7315" y2="64.1909" gradientUnits="userSpaceOnUse">
<stop stop-color="#7271EF"/>
<stop offset="0.523957" stop-color="#FF5281"/>
<stop offset="0.979862" stop-color="#FF7C52"/>
</linearGradient>
<linearGradient id="paint3_linear_1409_17422" x1="-2.58252" y1="16.6229" x2="49.7315" y2="64.1909" gradientUnits="userSpaceOnUse">
<stop stop-color="#7271EF"/>
<stop offset="0.523957" stop-color="#FF5281"/>
<stop offset="0.979862" stop-color="#FF7C52"/>
</linearGradient>
<linearGradient id="paint4_linear_1409_17422" x1="-2.58252" y1="16.6229" x2="49.7315" y2="64.1909" gradientUnits="userSpaceOnUse">
<stop stop-color="#7271EF"/>
<stop offset="0.523957" stop-color="#FF5281"/>
<stop offset="0.979862" stop-color="#FF7C52"/>
</linearGradient>
</defs>
</svg>
