<svg width="25" height="24" viewBox="0 0 25 24" fill="none" xmlns="http://www.w3.org/2000/svg">
<path d="M6.37057 12.5828L13.159 5.79441C13.8342 5.11922 14.7499 4.73991 15.7048 4.73991C16.6596 4.73991 17.5754 5.11922 18.2506 5.79441C18.9258 6.4696 19.3051 7.38535 19.3051 8.34021C19.3051 9.29507 18.9258 10.2108 18.2506 10.886L10.189 18.9464C9.84948 19.2743 9.3948 19.4557 8.92284 19.4516C8.45089 19.4475 7.99943 19.2582 7.66569 18.9245C7.33196 18.5907 7.14265 18.1393 7.13855 17.6673C7.13445 17.1954 7.31588 16.7407 7.64377 16.4012L14.8558 9.18921C14.9684 9.07671 15.0318 8.92405 15.0319 8.76484C15.032 8.60562 14.9689 8.45288 14.8564 8.34021C14.7439 8.22755 14.5912 8.16419 14.432 8.16408C14.2728 8.16396 14.12 8.22711 14.0074 8.33961L6.79537 15.5516C6.23675 16.115 5.92404 16.8767 5.92566 17.6701C5.92728 18.4634 6.24311 19.2239 6.80403 19.7849C7.36495 20.346 8.12529 20.6621 8.91866 20.6639C9.71204 20.6658 10.4738 20.3533 11.0374 19.7948L19.099 11.7344C19.9993 10.8342 20.5052 9.61322 20.5053 8.34004C20.5054 7.06685 19.9998 5.84577 19.0996 4.94541C18.1994 4.04505 16.9784 3.53918 15.7052 3.53906C14.432 3.53895 13.2109 4.04461 12.3106 4.94481L5.52097 11.7344C5.41167 11.8476 5.35119 11.9991 5.35256 12.1565C5.35393 12.3138 5.41703 12.4643 5.52827 12.5755C5.63952 12.6867 5.79001 12.7498 5.94733 12.7512C6.10464 12.7526 6.25621 12.6921 6.36937 12.5828H6.37057Z" fill="#EAE9F3"/>
</svg>
