<svg width="14" height="15" viewBox="0 0 14 15" fill="none" xmlns="http://www.w3.org/2000/svg">
<path d="M8.35 8.41885C7.25 9.55385 7.17 10.9688 7.075 14.0688C9.965 14.0688 11.96 14.0588 12.99 13.0588C13.99 12.0288 14 9.93885 14 7.14385C10.9 7.24385 9.485 7.31885 8.35 8.41885ZM0 7.14385C0 9.93885 0.00999999 12.0288 1.01 13.0588C2.04 14.0588 4.035 14.0688 6.925 14.0688C6.825 10.9688 6.75 9.55385 5.65 8.41885C4.515 7.31885 3.1 7.23885 0 7.14385ZM6.925 0.0688477C4.04 0.0688477 2.04 0.0788476 1.01 1.07885C0.00999999 2.10885 0 4.19885 0 6.99385C3.1 6.89385 4.515 6.81885 5.65 5.71885C6.75 4.58385 6.83 3.16885 6.925 0.0688477ZM8.35 5.71885C7.25 4.58385 7.17 3.16885 7.075 0.0688477C9.965 0.0688477 11.96 0.0788476 12.99 1.07885C13.99 2.10885 14 4.19885 14 6.99385C10.9 6.89385 9.485 6.81885 8.35 5.71885Z" fill="#EAE9F3"/>
</svg>
