<svg width="16" height="16" viewBox="0 0 16 16" fill="none" xmlns="http://www.w3.org/2000/svg">
<path d="M8 4.31885C7.25832 4.31885 6.5333 4.53878 5.91661 4.95084C5.29993 5.36289 4.81928 5.94856 4.53545 6.63378C4.25162 7.31901 4.17736 8.07301 4.32206 8.80044C4.46675 9.52787 4.8239 10.1961 5.34835 10.7205C5.8728 11.2449 6.54098 11.6021 7.26841 11.7468C7.99584 11.8915 8.74984 11.8172 9.43506 11.5334C10.1203 11.2496 10.706 10.7689 11.118 10.1522C11.5301 9.53555 11.75 8.81053 11.75 8.06885C11.75 7.07429 11.3549 6.12046 10.6517 5.4172C9.94839 4.71394 8.99456 4.31885 8 4.31885ZM8 10.5688C7.50555 10.5688 7.0222 10.4222 6.61107 10.1475C6.19995 9.87282 5.87952 9.48237 5.6903 9.02556C5.50108 8.56874 5.45157 8.06607 5.54804 7.58112C5.6445 7.09617 5.8826 6.65071 6.23223 6.30108C6.58186 5.95145 7.02732 5.71335 7.51227 5.61688C7.99723 5.52042 8.49989 5.56993 8.95671 5.75915C9.41352 5.94837 9.80397 6.2688 10.0787 6.67992C10.3534 7.09105 10.5 7.57439 10.5 8.06885C10.4979 8.73126 10.2339 9.36594 9.76549 9.83434C9.2971 10.3027 8.66241 10.5668 8 10.5688ZM11.4375 0.256348H4.5625C3.40218 0.256348 2.28938 0.717284 1.46891 1.53776C0.648436 2.35823 0.1875 3.47103 0.1875 4.63135V11.5063C0.1875 12.6667 0.648436 13.7795 1.46891 14.5999C2.28938 15.4204 3.40218 15.8813 4.5625 15.8813H11.4375C12.5978 15.8813 13.7106 15.4204 14.5311 14.5999C15.3516 13.7795 15.8125 12.6667 15.8125 11.5063V4.63135C15.8125 3.47103 15.3516 2.35823 14.5311 1.53776C13.7106 0.717284 12.5978 0.256348 11.4375 0.256348ZM14.5625 11.5063C14.5625 11.9167 14.4817 12.3231 14.3246 12.7022C14.1676 13.0814 13.9374 13.4259 13.6472 13.7161C13.357 14.0062 13.0125 14.2364 12.6334 14.3935C12.2542 14.5505 11.8479 14.6313 11.4375 14.6313H4.5625C4.15212 14.6313 3.74576 14.5505 3.36661 14.3935C2.98747 14.2364 2.64297 14.0062 2.35279 13.7161C2.06261 13.4259 1.83242 13.0814 1.67538 12.7022C1.51833 12.3231 1.4375 11.9167 1.4375 11.5063V4.63135C1.4375 3.80255 1.76674 3.00769 2.35279 2.42164C2.93884 1.83559 3.7337 1.50635 4.5625 1.50635H11.4375C11.8479 1.50635 12.2542 1.58718 12.6334 1.74422C13.0125 1.90127 13.357 2.13146 13.6472 2.42164C13.9374 2.71182 14.1676 3.05632 14.3246 3.43546C14.4817 3.8146 14.5625 4.22097 14.5625 4.63135V11.5063ZM13 4.00635C13 4.19177 12.945 4.37302 12.842 4.52719C12.739 4.68137 12.5926 4.80153 12.4213 4.87248C12.25 4.94344 12.0615 4.96201 11.8796 4.92583C11.6977 4.88966 11.5307 4.80037 11.3996 4.66926C11.2685 4.53815 11.1792 4.3711 11.143 4.18925C11.1068 4.00739 11.1254 3.81889 11.1964 3.64758C11.2673 3.47628 11.3875 3.32986 11.5417 3.22684C11.6958 3.12383 11.8771 3.06885 12.0625 3.06885C12.3111 3.06885 12.5496 3.16762 12.7254 3.34343C12.9012 3.51925 13 3.75771 13 4.00635Z" fill="#EAE9F3"/>
</svg>
