<svg width="17" height="16" viewBox="0 0 17 16" fill="none" xmlns="http://www.w3.org/2000/svg">
<path d="M3.78329 2.23537C3.78306 2.6774 3.60726 3.10123 3.29454 3.41364C2.98182 3.72604 2.55781 3.90143 2.11578 3.9012C1.67376 3.90098 1.24992 3.72518 0.937517 3.41246C0.625113 3.09974 0.44973 2.67573 0.449951 2.2337C0.450172 1.79168 0.625979 1.36784 0.938696 1.05544C1.25141 0.743033 1.67542 0.56765 2.11745 0.567871C2.55948 0.568092 2.98331 0.743899 3.29572 1.05662C3.60812 1.36933 3.78351 1.79334 3.78329 2.23537ZM3.83329 5.13537H0.499951V15.5687H3.83329V5.13537ZM9.09995 5.13537H5.78329V15.5687H9.06662V10.0937C9.06662 7.0437 13.0416 6.76037 13.0416 10.0937V15.5687H16.3333V8.96037C16.3333 3.8187 10.45 4.01037 9.06662 6.53537L9.09995 5.13537Z" fill="#EAE9F3"/>
</svg>
