<svg width="14" height="12" viewBox="0 0 14 12" fill="none" xmlns="http://www.w3.org/2000/svg">
<path d="M0.853738 5.84137L3.78993 6.93725L4.92642 10.5922C4.99914 10.8263 5.28539 10.9128 5.47538 10.7575L7.11207 9.4232C7.28363 9.28341 7.52799 9.27645 7.70728 9.40659L10.6593 11.5498C10.8625 11.6975 11.1505 11.5862 11.2014 11.3406L13.3639 0.938576C13.4196 0.670297 13.156 0.446491 12.9005 0.545291L0.850297 5.19391C0.552923 5.30859 0.555514 5.72962 0.853738 5.84137ZM4.74327 6.35389L10.4817 2.81958C10.5848 2.75625 10.6909 2.8957 10.6024 2.97785L5.8665 7.38006C5.70004 7.53502 5.59266 7.74238 5.56225 7.96746L5.40092 9.16299C5.37956 9.32262 5.15533 9.33846 5.11128 9.18398L4.49083 7.0039C4.41977 6.75524 4.52332 6.48964 4.74327 6.35389Z" fill="#EAE9F3"/>
</svg>
