<svg width="130" height="130" viewBox="0 0 130 130" fill="none" xmlns="http://www.w3.org/2000/svg">
<g clip-path="url(#clip0_1415_17154)">
<path fill-rule="evenodd" clip-rule="evenodd" d="M18.0544 45.0962C18.7037 45.0324 19.3584 45 20.0164 45C20.5603 45 21.0012 45.4406 21.0012 45.984C21.0012 46.5275 20.5603 46.9681 20.0164 46.9681C19.423 46.9681 18.8328 46.9973 18.2474 47.0549C17.7061 47.1081 17.2241 46.7128 17.1708 46.172C17.1175 45.6311 17.5131 45.1495 18.0544 45.0962ZM83.0467 45.984C83.0467 45.4406 83.4876 45 84.0315 45H86.1942C86.7381 45 87.1791 45.4406 87.1791 45.984C87.1791 46.5275 86.7381 46.9681 86.1942 46.9681H84.0315C83.4876 46.9681 83.0467 46.5275 83.0467 45.984ZM89.5347 45.984C89.5347 45.4406 89.9756 45 90.5196 45H94.8449C95.3888 45 95.8298 45.4406 95.8298 45.984C95.8298 46.5275 95.3888 46.9681 94.8449 46.9681H90.5196C89.9756 46.9681 89.5347 46.5275 89.5347 45.984ZM98.1854 45.984C98.1854 45.4406 98.6263 45 99.1702 45H103.496C104.04 45 104.48 45.4406 104.48 45.984C104.48 46.5275 104.04 46.9681 103.496 46.9681H99.1702C98.6263 46.9681 98.1854 46.5275 98.1854 45.984ZM106.836 45.984C106.836 45.4406 107.277 45 107.821 45H109.984C110.642 45 111.296 45.0324 111.946 45.0962C112.487 45.1495 112.882 45.6311 112.829 46.172C112.776 46.7128 112.294 47.1081 111.753 47.0549C111.167 46.9973 110.577 46.9681 109.984 46.9681H107.821C107.277 46.9681 106.836 46.5275 106.836 45.984ZM15.4342 46.5172C15.5921 47.0372 15.2982 47.5867 14.7777 47.7445C13.6466 48.0874 12.5517 48.5405 11.5092 49.0973C11.0295 49.3534 10.4328 49.1725 10.1764 48.6932C9.92001 48.2139 10.101 47.6177 10.5807 47.3615C11.737 46.744 12.9513 46.2415 14.2059 45.8612C14.7264 45.7034 15.2763 45.9971 15.4342 46.5172ZM114.566 46.5172C114.724 45.9971 115.274 45.7034 115.794 45.8612C117.049 46.2415 118.263 46.744 119.419 47.3615C119.899 47.6177 120.08 48.2139 119.824 48.6932C119.567 49.1726 118.971 49.3534 118.491 49.0973C117.448 48.5405 116.353 48.0874 115.222 47.7445C114.702 47.5867 114.408 47.0372 114.566 46.5172ZM8.70416 49.6761C9.04923 50.0962 8.98813 50.7163 8.56769 51.0611C8.11305 51.4339 7.675 51.8303 7.25545 52.2495C6.8359 52.6687 6.43917 53.1064 6.06603 53.5607C5.72096 53.9808 5.10039 54.0418 4.67995 53.697C4.2595 53.3522 4.1984 52.7322 4.54347 52.3121C4.95736 51.8082 5.39739 51.3228 5.86266 50.8579C6.32794 50.393 6.81379 49.9533 7.31808 49.5398C7.73852 49.195 8.35909 49.256 8.70416 49.6761ZM121.296 49.6761C121.641 49.256 122.261 49.195 122.682 49.5398C123.186 49.9533 123.672 50.393 124.137 50.8579C124.603 51.3228 125.043 51.8082 125.457 52.3121C125.802 52.7322 125.74 53.3522 125.32 53.697C124.9 54.0418 124.279 53.9808 123.934 53.5607C123.561 53.1064 123.164 52.6687 122.745 52.2495C122.325 51.8303 121.887 51.4339 121.432 51.0611C121.012 50.7163 120.951 50.0962 121.296 49.6761ZM126.304 55.1681C126.783 54.9119 127.38 55.0928 127.637 55.5721C128.255 56.7274 128.758 57.9407 129.138 59.1943C129.296 59.7143 129.002 60.2638 128.482 60.4216C127.961 60.5794 127.411 60.2857 127.253 59.7656C126.91 58.6354 126.457 57.5414 125.899 56.4998C125.643 56.0205 125.824 55.4242 126.304 55.1681ZM3.69627 55.1681C4.17597 55.4242 4.357 56.0205 4.10061 56.4998C3.54342 57.5414 3.08991 58.6354 2.74674 59.7656C2.58884 60.2857 2.03889 60.5794 1.5184 60.4216C0.997907 60.2638 0.703973 59.7143 0.861878 59.1943C1.24249 57.9407 1.74548 56.7274 2.36347 55.5721C2.61986 55.0928 3.21657 54.9119 3.69627 55.1681ZM1.17293 62.1568C1.71423 62.21 2.10984 62.6916 2.05654 63.2325C1.99891 63.8174 1.9697 64.4072 1.9697 65C1.9697 65.5928 1.99891 66.1826 2.05654 66.7675C2.10984 67.3083 1.71423 67.79 1.17293 67.8432C0.631635 67.8965 0.149621 67.5012 0.096325 66.9603C0.0324011 66.3116 0 65.6575 0 65C0 64.3425 0.0324011 63.6884 0.096325 63.0397C0.149621 62.4988 0.631635 62.1035 1.17293 62.1568ZM128.827 62.1568C129.368 62.1035 129.85 62.4988 129.904 63.0397C129.968 63.6884 130 64.3425 130 65C130 65.6575 129.968 66.3116 129.904 66.9603C129.85 67.5012 129.368 67.8965 128.827 67.8432C128.286 67.79 127.89 67.3083 127.943 66.7675C128.001 66.1826 128.03 65.5928 128.03 65C128.03 64.4072 128.001 63.8174 127.943 63.2325C127.89 62.6916 128.286 62.21 128.827 62.1568ZM1.5184 69.5784C2.03889 69.4206 2.58884 69.7143 2.74674 70.2344C3.08991 71.3646 3.54342 72.4586 4.10061 73.5002C4.357 73.9795 4.17597 74.5758 3.69627 74.8319C3.21657 75.0881 2.61986 74.9072 2.36347 74.4279C1.74548 73.2726 1.24249 72.0593 0.861878 70.8057C0.703973 70.2857 0.997907 69.7362 1.5184 69.5784ZM128.482 69.5784C129.002 69.7362 129.296 70.2857 129.138 70.8057C128.758 72.0593 128.255 73.2726 127.637 74.4279C127.38 74.9072 126.783 75.0881 126.304 74.8319C125.824 74.5758 125.643 73.9795 125.899 73.5002C126.457 72.4586 126.91 71.3646 127.253 70.2344C127.411 69.7143 127.961 69.4206 128.482 69.5784ZM4.67995 76.303C5.10039 75.9582 5.72096 76.0192 6.06603 76.4393C6.43917 76.8936 6.8359 77.3313 7.25545 77.7505C7.675 78.1697 8.11305 78.5661 8.56769 78.9389C8.98813 79.2837 9.04923 79.9038 8.70416 80.3239C8.35909 80.744 7.73852 80.805 7.31808 80.4602C6.81379 80.0467 6.32794 79.607 5.86266 79.1421C5.39739 78.6772 4.95736 78.1918 4.54347 77.6879C4.1984 77.2678 4.2595 76.6478 4.67995 76.303ZM125.32 76.303C125.74 76.6477 125.802 77.2678 125.457 77.6879C125.043 78.1918 124.603 78.6772 124.137 79.1421C123.672 79.607 123.186 80.0467 122.682 80.4602C122.261 80.805 121.641 80.744 121.296 80.3239C120.951 79.9038 121.012 79.2837 121.432 78.9389C121.887 78.5661 122.325 78.1697 122.745 77.7505C123.164 77.3313 123.561 76.8936 123.934 76.4393C124.279 76.0192 124.9 75.9582 125.32 76.303ZM10.1764 81.3068C10.4328 80.8274 11.0295 80.6466 11.5092 80.9027C12.5517 81.4595 13.6466 81.9126 14.7777 82.2555C15.2982 82.4133 15.5921 82.9628 15.4342 83.4828C15.2763 84.0029 14.7264 84.2966 14.2059 84.1388C12.9513 83.7585 11.737 83.2559 10.5807 82.6385C10.101 82.3823 9.92001 81.7861 10.1764 81.3068ZM119.824 81.3068C120.08 81.7861 119.899 82.3823 119.419 82.6385C118.263 83.2559 117.049 83.7585 115.794 84.1388C115.274 84.2966 114.724 84.0029 114.566 83.4828C114.408 82.9628 114.702 82.4133 115.222 82.2555C116.353 81.9126 117.448 81.4595 118.491 80.9027C118.971 80.6466 119.567 80.8274 119.824 81.3068ZM17.1708 83.828C17.2241 83.2872 17.7061 82.8919 18.2474 82.9451C18.8328 83.0027 19.423 83.0319 20.0164 83.0319C20.5603 83.0319 21.0012 83.4725 21.0012 84.016C21.0012 84.5594 20.5603 85 20.0164 85C19.3584 85 18.7037 84.9676 18.0544 84.9038C17.5131 84.8505 17.1175 84.3689 17.1708 83.828ZM112.829 83.828C112.882 84.3689 112.487 84.8505 111.946 84.9038C111.296 84.9676 110.642 85 109.984 85H107.821C107.277 85 106.836 84.5594 106.836 84.016C106.836 83.4725 107.277 83.0319 107.821 83.0319H109.984C110.577 83.0319 111.167 83.0027 111.753 82.9451C112.294 82.8919 112.776 83.2872 112.829 83.828ZM83.0467 84.016C83.0467 83.4725 83.4876 83.0319 84.0315 83.0319H86.1942C86.7381 83.0319 87.1791 83.4725 87.1791 84.016C87.1791 84.5594 86.7381 85 86.1942 85H84.0315C83.4876 85 83.0467 84.5594 83.0467 84.016ZM89.5347 84.016C89.5347 83.4725 89.9756 83.0319 90.5196 83.0319H94.8449C95.3888 83.0319 95.8298 83.4725 95.8298 84.016C95.8298 84.5594 95.3888 85 94.8449 85H90.5196C89.9756 85 89.5347 84.5594 89.5347 84.016ZM98.1854 84.016C98.1854 83.4725 98.6263 83.0319 99.1702 83.0319H103.496C104.04 83.0319 104.48 83.4725 104.48 84.016C104.48 84.5594 104.04 85 103.496 85H99.1702C98.6263 85 98.1854 84.5594 98.1854 84.016Z" fill="url(#paint0_linear_1415_17154)"/>
<path fill-rule="evenodd" clip-rule="evenodd" d="M50.8221 5.86266C54.5767 2.10886 59.6691 0 64.979 0C70.2889 0 75.3813 2.10886 79.136 5.86266C82.8907 9.61646 85 14.7077 85 20.0164V45.9685C85 46.5124 84.559 46.9533 84.0149 46.9533C83.4709 46.9533 83.0299 46.5124 83.0299 45.9685V20.0164C83.0299 15.2301 81.1281 10.6399 77.7429 7.25545C74.3577 3.87104 69.7664 1.9697 64.979 1.9697C60.1916 1.9697 55.6003 3.87104 52.2152 7.25545C48.83 10.6399 46.9282 15.2301 46.9282 20.0164V83.0467H84.0149C84.559 83.0467 85 83.4876 85 84.0315V109.984C85 115.292 82.8907 120.384 79.136 124.137C75.3813 127.891 70.2889 130 64.979 130C59.6691 130 54.5767 127.891 50.8221 124.137C47.0674 120.384 44.958 115.292 44.958 109.984V85.0164H19.9851C19.441 85.0164 19 84.5754 19 84.0315C19 83.4876 19.441 83.0467 19.9851 83.0467H44.958V46.9533H19.9851C19.441 46.9533 19 46.5124 19 45.9685C19 45.4246 19.441 44.9836 19.9851 44.9836H44.958V20.0164C44.958 14.7077 47.0674 9.61646 50.8221 5.86266ZM46.9282 85.0164V109.984C46.9282 114.77 48.83 119.36 52.2152 122.745C55.6003 126.129 60.1916 128.03 64.979 128.03C69.7664 128.03 74.3577 126.129 77.7429 122.745C81.1281 119.36 83.0299 114.77 83.0299 109.984V85.0164H46.9282Z" fill="#252932"/>
</g>
<defs>
<linearGradient id="paint0_linear_1415_17154" x1="32.0776" y1="45.984" x2="80.2138" y2="111.779" gradientUnits="userSpaceOnUse">
<stop stop-color="#7271EF"/>
<stop offset="0.530555" stop-color="#FF5281"/>
<stop offset="0.984375" stop-color="#FF7C52"/>
</linearGradient>
<clipPath id="clip0_1415_17154">
<rect width="130" height="130" fill="white"/>
</clipPath>
</defs>
</svg>
