<svg width="130" height="130" viewBox="0 0 130 130" fill="none" xmlns="http://www.w3.org/2000/svg">
<g clip-path="url(#clip0_1415_17165)">
<path fill-rule="evenodd" clip-rule="evenodd" d="M64.0128 0L64.9977 1.86667e-05C65.7076 3.21678e-05 66.4166 0.0116676 67.1247 0.0348567L68.1091 0.0670947L68.0446 2.03569L67.0602 2.00346C66.3736 1.98097 65.686 1.96969 64.9977 1.96967L64.0128 1.96966L64.0128 0ZM72.5062 0.427682L73.4827 0.556248C74.8898 0.741508 76.2895 0.972676 77.6797 1.2492L78.6457 1.44134L78.2613 3.37315L77.2953 3.181C75.9473 2.91286 74.59 2.68869 73.2256 2.50905L72.2491 2.38048L72.5062 0.427682ZM48.1756 4.23009L47.2307 4.50809C46.616 4.68896 46.0046 4.87902 45.3967 5.07819L44.4607 5.38482L43.8474 3.51308L44.7834 3.20644C45.4103 3.00106 46.0408 2.80505 46.6747 2.61854L47.6195 2.34054L48.1756 4.23009ZM82.9253 2.51331L83.8678 2.7992C85.2241 3.21062 86.5675 3.66656 87.8958 4.16647L88.8176 4.51338L88.1237 6.35679L87.2019 6.00987C85.9139 5.52512 84.6112 5.08299 83.2959 4.68403L82.3534 4.39814L82.9253 2.51331ZM40.9147 6.72875L40.0107 7.11949C38.8346 7.62779 37.6749 8.17152 36.5332 8.7498L35.6546 9.19484L34.7645 7.43776L35.6431 6.99273C36.8204 6.39639 38.0163 5.83568 39.2291 5.3115L40.1332 4.92076L40.9147 6.72875ZM92.8655 6.26811L93.7488 6.7037C94.3842 7.01703 95.015 7.34102 95.641 7.67559C96.267 8.01017 96.8869 8.35465 97.5004 8.70886L98.3534 9.20128L97.3684 10.907L96.5155 10.4146C95.9205 10.0711 95.3194 9.7371 94.7124 9.41266C94.1054 9.08822 93.4937 8.77405 92.8775 8.47022L91.9942 8.03462L92.8655 6.26811ZM32.3535 11.061L31.5192 11.5843C30.435 12.2643 29.3712 12.9775 28.3293 13.7231L27.5283 14.2962L26.382 12.6945L27.1829 12.1214C28.2574 11.3525 29.3544 10.617 30.4724 9.91576L31.3068 9.39243L32.3535 11.061ZM102.061 11.5919L102.862 12.1655C104.015 12.9921 105.141 13.8558 106.237 14.7549L106.998 15.3797L105.748 16.9022L104.987 16.2774C103.924 15.4056 102.833 14.5681 101.714 13.7665L100.914 13.1929L102.061 11.5919ZM24.5485 16.6415L23.8032 17.2853C23.3191 17.7034 22.841 18.1293 22.3691 18.5627C21.8971 18.9961 21.4323 19.4363 20.9745 19.8832L20.2698 20.5711L18.8937 19.1618L19.5984 18.4738C20.0705 18.013 20.5499 17.559 21.0365 17.1121C21.5232 16.6651 22.0162 16.226 22.5154 15.7948L23.2607 15.151L24.5485 16.6415ZM110.267 18.3422L110.963 19.0386C111.966 20.0408 112.935 21.0761 113.871 22.1431L114.521 22.8835L113.04 24.1822L112.39 23.4417C111.483 22.4071 110.542 21.4032 109.57 20.4314L108.874 19.735L110.267 18.3422ZM17.6801 23.3411L17.0411 24.0905C16.2098 25.0654 15.4088 26.0648 14.6393 27.0873L14.0471 27.8742L12.4731 26.6898L13.0654 25.9029C13.8589 24.8485 14.6849 23.8179 15.5422 22.8126L16.1812 22.0632L17.6801 23.3411ZM117.263 26.339L117.837 27.1395C118.25 27.7153 118.653 28.2984 119.047 28.8885C119.442 29.4787 119.826 30.0747 120.2 30.6762L120.72 31.5125L119.047 32.5526L118.527 31.7163C118.165 31.133 117.792 30.5551 117.41 29.9828C117.027 29.4105 116.636 28.8451 116.236 28.2868L115.662 27.4863L117.263 26.339ZM11.9076 31.0049L11.3896 31.8425C10.7165 32.9309 10.0764 34.0402 9.47013 35.1688L9.0041 36.0364L7.26872 35.1045L7.73475 34.2369C8.35993 33.073 9.02007 31.929 9.71414 30.8066L10.2321 29.969L11.9076 31.0049ZM122.863 35.3686L123.299 36.2519C123.927 37.5246 124.512 38.8168 125.055 40.1262L125.431 41.036L123.612 41.7898L123.235 40.8799C122.709 39.6102 122.141 38.3572 121.532 37.123L121.097 36.2397L122.863 35.3686ZM7.36421 39.4554L6.97929 40.3619C6.72928 40.9507 6.48804 41.5437 6.25568 42.1408C6.02333 42.7379 5.80029 43.338 5.58658 43.9409L5.25754 44.8692L3.40088 44.2112L3.72991 43.2829C3.95029 42.6612 4.18031 42.0423 4.41991 41.4266C4.65952 40.8108 4.9083 40.1993 5.16612 39.5921L5.55104 38.6856L7.36421 39.4554ZM126.918 45.1896L127.204 46.132C127.615 47.4882 127.982 48.8585 128.305 50.2405L128.528 51.1996L126.61 51.6469L126.386 50.6878C126.074 49.3476 125.718 48.0189 125.319 46.7038L125.033 45.7613L126.918 45.1896ZM4.15523 48.4972L3.91226 49.4516C3.59619 50.6932 3.31821 51.9434 3.07858 53.2004L2.89415 54.1678L0.959155 53.799L1.14358 52.8316C1.39069 51.5353 1.67736 50.2461 2.0033 48.9658L2.24626 48.0114L4.15523 48.4972ZM129.318 55.5398L129.446 56.5162C129.539 57.2186 129.62 57.923 129.69 58.6293C129.759 59.3357 129.817 60.0424 129.863 60.7493L129.928 61.732L127.962 61.8608L127.898 60.8781C127.853 60.1926 127.797 59.5073 127.729 58.8224C127.662 58.1375 127.583 57.4543 127.494 56.7733L127.365 55.7969L129.318 55.5398ZM2.35492 57.9211L2.25953 58.9013C2.13558 60.1749 2.05035 61.4528 2.00411 62.7331L1.96856 63.7173L0 63.6462L0.0355496 62.662C0.0832395 61.3417 0.171127 60.0239 0.29895 58.7105L0.394343 57.7303L2.35492 57.9211ZM130 66.1429L129.968 67.1272C129.921 68.5455 129.828 69.9611 129.69 71.3715L129.593 72.3516L127.633 72.1585L127.729 71.1784C127.864 69.8107 127.954 68.4381 127.999 67.0627L128.031 66.0784L130 66.1429ZM2.00488 67.5089L2.05927 68.4922C2.09461 69.1309 2.13968 69.7695 2.19453 70.4079C2.24938 71.0462 2.31391 71.6832 2.38805 72.3186L2.5022 73.2967L0.545636 73.525L0.431488 72.5468C0.355032 71.8916 0.288487 71.2348 0.231923 70.5765C0.175359 69.9182 0.128876 69.2596 0.0924415 68.601L0.0380451 67.6177L2.00488 67.5089ZM128.946 76.7152L128.753 77.6811C128.477 79.0712 128.155 80.4527 127.788 81.8234L127.533 82.7747L125.63 82.2649L125.885 81.3137C126.241 79.9844 126.553 78.6448 126.821 77.2969L127.014 76.331L128.946 76.7152ZM3.11324 77.039L3.31616 78.0027C3.58013 79.2564 3.8821 80.501 4.22152 81.7348L4.48272 82.6844L2.58342 83.2067L2.32221 82.2572C1.9722 80.9848 1.6608 79.7013 1.38858 78.4085L1.18566 77.4448L3.11324 77.039ZM126.183 86.9747L125.836 87.8964C125.586 88.5594 125.326 89.2189 125.054 89.8746C124.783 90.5303 124.5 91.1809 124.208 91.8261L123.802 92.7232L122.007 91.9103L122.414 91.0133C122.697 90.3876 122.971 89.7567 123.234 89.1208C123.498 88.485 123.75 87.8455 123.992 87.2026L124.339 86.2809L126.183 86.9747ZM5.65433 86.2907L6.00108 87.2124C6.45164 88.4102 6.93882 89.5946 7.46205 90.7641L7.86427 91.663L6.06617 92.4674L5.66395 91.5684C5.12438 90.3624 4.62199 89.141 4.15735 87.9059L3.8106 86.9841L5.65433 86.2907ZM9.56935 95.0499L10.0519 95.9084C10.3653 96.4661 10.6875 97.0193 11.0183 97.5681L11.5268 98.4115L9.83976 99.4284L9.33128 98.5849C8.99014 98.0191 8.65793 97.4485 8.33471 96.8735L7.85215 96.015L9.56935 95.0499ZM121.786 96.6473L121.293 97.5002C120.584 98.7291 119.834 99.9338 119.047 101.112L118.5 101.931L116.862 100.837L117.409 100.018C118.173 98.8752 118.899 97.7071 119.587 96.5153L120.08 95.6624L121.786 96.6473ZM115.872 105.474L115.247 106.236C114.348 107.331 113.412 108.398 112.442 109.433L111.769 110.152L110.331 108.806L111.004 108.087C111.945 107.083 112.852 106.048 113.724 104.986L114.349 104.225L115.872 105.474ZM19.7273 108.873L20.4238 109.57C20.9105 110.056 21.4047 110.535 21.9061 111.004L22.6249 111.677L21.2784 113.115L20.5595 112.442C20.0424 111.958 19.5328 111.464 19.0309 110.963L18.3345 110.266L19.7273 108.873ZM108.599 113.22L107.858 113.87C107.325 114.337 106.785 114.795 106.236 115.246C105.687 115.696 105.132 116.137 104.57 116.568L103.788 117.167L102.589 115.605L103.371 115.005C103.916 114.587 104.454 114.16 104.986 113.723C105.518 113.286 106.043 112.842 106.559 112.389L107.3 111.739L108.599 113.22ZM25.8417 114.406L26.6231 115.006C27.715 115.844 28.8333 116.645 29.9761 117.408L30.795 117.955L29.7007 119.593L28.8817 119.046C27.7032 118.259 26.55 117.432 25.424 116.569L24.6426 115.969L25.8417 114.406ZM100.161 119.678L99.3242 120.198C98.119 120.947 96.8903 121.657 95.6403 122.325L94.7717 122.789L93.8431 121.052L94.7117 120.588C95.9239 119.94 97.1153 119.252 98.284 118.525L99.1204 118.005L100.161 119.678ZM34.4134 120.124L35.282 120.588C36.4942 121.236 37.728 121.844 38.9816 122.412L39.8787 122.819L39.0657 124.613L38.1686 124.206C36.8759 123.621 35.6035 122.993 34.3535 122.325L33.4849 121.861L34.4134 120.124ZM90.7834 124.675L89.8735 125.052C88.564 125.594 87.2363 126.094 85.8923 126.55L84.9597 126.867L84.3265 125.002L85.2591 124.685C86.5623 124.243 87.8499 123.758 89.1197 123.232L90.0296 122.855L90.7834 124.675ZM43.8021 124.369L44.7347 124.686C45.3852 124.906 46.04 125.117 46.6986 125.316C47.3573 125.516 48.0186 125.705 48.6821 125.883L49.6335 126.138L49.1237 128.04L48.1723 127.785C47.488 127.602 46.8061 127.407 46.1268 127.201C45.4476 126.995 44.7724 126.778 44.1015 126.551L43.1689 126.234L43.8021 124.369ZM80.7174 128.078L79.7582 128.302C79.0683 128.463 78.3751 128.613 77.6789 128.751C76.9827 128.889 76.285 129.016 75.586 129.132L74.6143 129.292L74.2934 127.349L75.2651 127.188C75.9429 127.077 76.6195 126.953 77.2946 126.819C77.9697 126.685 78.6419 126.54 79.3109 126.384L80.2701 126.16L80.7174 128.078ZM53.757 127.028L54.7288 127.189C56.0866 127.413 57.4506 127.592 58.8184 127.727L59.7986 127.823L59.6055 129.784L58.6253 129.687C57.2148 129.548 55.8082 129.363 54.4079 129.132L53.4361 128.971L53.757 127.028ZM70.2313 129.796L69.2485 129.861C67.8323 129.954 66.4143 130 64.9969 130H64.012L64.012 128.03H64.9969C66.3714 128.03 67.7463 127.985 69.1196 127.895L70.1024 127.831L70.2313 129.796Z" fill="url(#paint0_linear_1415_17165)"/>
<path fill-rule="evenodd" clip-rule="evenodd" d="M43.0545 24.371C52.3385 19.4095 63.0557 17.8206 73.3799 19.875C83.7041 21.9294 92.9965 27.5 99.674 35.6376C106.351 43.7752 110.001 53.9764 110 64.503L110 65.4856L108.035 65.4855L108.035 64.5029C108.035 54.431 104.544 44.6704 98.1547 36.8842C91.7657 29.0981 82.8746 23.7681 72.9963 21.8024C63.1181 19.8368 52.8638 21.3571 43.9808 26.1043C35.0978 30.8515 28.1356 38.5318 24.2805 47.8368C20.4254 57.1417 19.9159 67.4955 22.8388 77.134C25.7617 86.7724 31.9362 95.0993 40.3102 100.696C48.6843 106.292 58.7397 108.812 68.7632 107.825C78.7868 106.839 88.1582 102.408 95.2808 95.2866L95.9757 94.5918L97.3652 95.9816L96.6703 96.6763C89.2262 104.119 79.4317 108.75 68.9557 109.781C58.4797 110.812 47.9703 108.179 39.2183 102.33C30.4662 96.4806 24.013 87.7779 20.9581 77.7043C17.9033 67.6307 18.4357 56.8096 22.4649 47.0846C26.494 37.3596 33.7705 29.3325 43.0545 24.371Z" fill="#252932"/>
<path fill-rule="evenodd" clip-rule="evenodd" d="M89.7417 57.0169L89.6732 57.5183C88.2341 68.0439 85.5387 77.9467 81.1401 86.8622L80.9242 87.2997L80.4455 87.3966C70.4052 89.4284 60.0538 89.7497 49.848 88.5021L49.3475 88.4409L49.1024 88.0012C46.7481 83.7784 44.7136 79.3719 43.0193 74.8382L44.8797 74.1432C46.4806 78.4267 48.3913 82.5939 50.5934 86.5946C60.2728 87.7276 70.0676 87.4188 79.5737 85.5496C83.6628 77.1213 86.2272 67.7579 87.6362 57.755C80.5302 51.0608 72.4671 45.5644 63.563 41.5775C60.5879 43.1722 57.7578 44.8515 55.091 46.6354L53.9872 44.9892C56.8448 43.0777 59.877 41.2894 63.0593 39.6L63.4854 39.3738L63.9265 39.5682C73.3826 43.7365 81.9087 49.5576 89.3753 56.668L89.7417 57.0169Z" fill="#252932"/>
</g>
<defs>
<linearGradient id="paint0_linear_1415_17165" x1="-4.72291" y1="40.3964" x2="78.7768" y2="151.671" gradientUnits="userSpaceOnUse">
<stop stop-color="#7271EF"/>
<stop offset="0.647976" stop-color="#FF5281"/>
<stop offset="1" stop-color="#FF7C52"/>
</linearGradient>
<clipPath id="clip0_1415_17165">
<rect width="130" height="130" fill="white"/>
</clipPath>
</defs>
</svg>
