<svg width="123" height="19" viewBox="0 0 123 19" fill="none" xmlns="http://www.w3.org/2000/svg">
<path d="M0 4.24917V1H14V4.22924H8.84211V19H5.27424V4.24917H0Z" fill="#0E1014"/>
<path d="M14 19L20.5728 1H24.4678L31 19H27.3484L25.8473 14.8186H19.2542L17.7327 19H14ZM20.0656 11.6527H24.9547L22.5203 4.50443L20.0656 11.6527Z" fill="#0E1014"/>
<path d="M34 1C36.5981 1 38.4249 1 39.4804 1.01993C42.728 1.07973 45.3667 1.75747 46.9093 3.31229C48.452 4.86711 49 7.13954 49 9.9103C49 12.7807 48.452 15.113 46.8484 16.7076C45.2449 18.3023 42.5859 19 39.3586 19H34V1ZM37.7348 3.95017V16.0897H39.4398C41.1448 16.0897 42.8904 15.8704 43.9256 14.8937C44.9608 13.897 45.1231 12.0631 45.1231 9.9103C45.1231 8.01661 44.9608 6.28239 44.1083 5.28571C43.1746 4.18937 41.4696 3.95017 39.5007 3.95017H37.7348Z" fill="#0E1014"/>
<path d="M65 1L59.3677 19H55.6128L50 1H53.3638L57.4707 14.5398L61.6167 1H65Z" fill="#0E1014"/>
<path d="M68 1H72V19H68.0219V1H68Z" fill="#0E1014"/>
<path d="M81.274 19C80 19 78.7877 18.8202 77.6575 18.4406C76.5274 18.061 75.7877 17.3417 75.1712 16.4027C74.5342 15.4437 74.1438 14.0852 74 12.9264L77.9041 12.8465C78.089 13.6456 78.3767 14.3849 78.9521 15.0042C79.5479 15.6435 80.6986 15.9033 81.726 15.8433C84.4589 15.7035 84.8904 14.7445 84.8904 14.0053C84.8904 12.8465 83.9452 12.4269 82.3219 11.9674C81.5205 11.7476 79.4863 10.9884 78.3562 10.429C76.2808 9.41009 74.7192 8.51104 74.5137 6.25342C74.2671 3.57624 75.4384 2.51735 75.9726 1.95794C77.1644 0.679285 79.1986 0 81.3151 0C83.4315 0 85.2192 0.77918 86.6164 1.83807C87.9932 2.89695 88.6096 4.61514 88.4452 6.09359L84.6438 6.13354C84.3973 4.41535 83.4726 3.33649 81.274 3.33649C80.8014 3.33649 79.2192 3.55626 78.7671 4.53523C78.2329 5.65405 78.8288 6.43323 79.2192 6.71293C80.3288 7.47213 81.6644 7.57203 84.0685 8.41115C87.4589 9.60988 89 10.7687 89 13.8254C89 15.2839 88.2808 16.5226 86.863 17.5016C85.3836 18.5005 83.5343 19 81.274 19Z" fill="#0E1014"/>
<path d="M92 19V1H104.703L104.683 4.2854H95.6463V8.20796H103.712V11.2345H95.6265V15.4956L105 15.5155V19H92Z" fill="#0E1014"/>
<path d="M122.961 18.9019C122.961 18.9019 119.588 19.2386 119.139 18.6643C118.359 17.694 119.022 14.4067 118.515 12.961C118.242 12.1689 117.521 11.9709 117.053 11.9709C116.877 11.9709 112.549 11.8323 112.549 11.8323V18.9019H109V1H116.429C119.568 1.0198 120.641 1.43567 121.655 2.38621C122.669 3.33676 123 4.96061 123 5.61411C123 7.93106 122.552 9.4559 120.738 10.149C120.738 10.149 121.85 10.8619 122.22 12.1095C122.552 13.2185 122.435 15.8325 122.649 17.3969C122.825 18.5653 122.961 18.9019 122.961 18.9019ZM115.805 8.74299C116.741 8.74299 119.276 8.58456 119.276 6.52505C119.276 4.76258 117.56 4.30711 116.078 4.30711H112.568V8.72319H115.805V8.74299Z" fill="#0E1014"/>
</svg>
