<svg width="56" height="70" viewBox="0 0 56 70" fill="none" xmlns="http://www.w3.org/2000/svg">
<g clip-path="url(#clip0_1409_17744)">
<path fill-rule="evenodd" clip-rule="evenodd" d="M13.2999 58.3349C15.6544 58.3349 17.1817 60.0198 17.1817 63.325C17.1817 67.4077 15.909 70 12.6636 70C11.5817 70 10.9454 69.7408 10.8181 69.6112C10.4363 69.4167 10.1818 69.0279 10.309 68.5743C10.4999 67.9262 11.0727 68.1206 11.5181 68.2502C11.7726 68.315 12.2181 68.4446 12.7272 68.4446C14.5726 68.4446 15.4635 66.7597 15.5272 64.7507C14.9544 65.5284 13.9999 65.982 12.9181 65.982C10.8181 65.982 9.54539 64.4267 9.54539 62.3529C9.54539 60.3439 10.7545 58.3349 13.2999 58.3349ZM34.0452 58.3349C36.9088 58.3349 38.1816 60.7327 38.1816 64.1674C38.1816 67.6022 36.9088 70 34.0452 70C31.1816 70 29.9089 67.6022 29.9089 64.1674C29.9089 60.7327 31.1816 58.3349 34.0452 58.3349ZM23.8635 58.3349C26.7271 58.3349 27.9998 60.7327 27.9998 64.1674C27.9998 67.6022 26.7271 70 23.8635 70C20.9999 70 19.7271 67.6022 19.7271 64.1674C19.7271 60.7327 20.9999 58.3349 23.8635 58.3349ZM44.4815 58.3349C44.927 58.3349 45.1815 58.6589 45.1815 59.4366V69.0279C45.1815 69.5464 44.927 70 44.2906 70C43.7179 70 43.4633 69.5464 43.4633 69.0279V61.0567L42.0634 62.4825C41.7452 62.8065 41.2361 63.0657 40.9179 62.7417C40.5361 62.4177 40.6634 61.8344 41.0452 61.4456L43.3361 58.9829C43.6543 58.6589 43.9724 58.3349 44.4815 58.3349ZM23.8635 59.8902C22.2089 59.8902 21.5089 61.5104 21.5089 64.1674C21.5089 66.8245 22.3362 68.4446 23.8635 68.4446C25.3907 68.4446 26.218 66.8245 26.218 64.1674C26.218 61.5104 25.3907 59.8902 23.8635 59.8902ZM34.0452 59.8902C32.3907 59.8902 31.6907 61.5104 31.6907 64.1674C31.6907 66.8245 32.518 68.4446 34.0452 68.4446C35.5725 68.4446 36.3998 66.8245 36.3998 64.1674C36.3998 61.5104 35.5725 59.8902 34.0452 59.8902ZM13.2999 59.8902C11.9636 59.8902 11.3272 60.9919 11.3272 62.2881C11.3272 63.4546 12.1545 64.3619 13.2999 64.3619C14.3181 64.3619 15.3999 63.649 15.3999 62.4177C15.3999 61.2512 14.8272 59.8902 13.2999 59.8902ZM19.5362 34.3565C19.8544 34.7454 20.1726 35.4582 20.3635 35.9119C21.1908 35.7175 25.3907 35.2638 25.5816 35.199C25.6453 35.0046 25.5816 34.6158 25.7726 34.4213H26.3453C26.4089 34.6158 26.4089 34.8102 26.4089 34.875V35.0046C26.4089 35.2638 26.4726 35.2638 27.1725 35.2638C29.018 35.3286 30.418 35.7823 31.7543 35.8471C32.6452 34.2269 32.3271 34.2917 33.2816 34.3565C33.1543 35.1342 32.7089 35.4582 32.7089 36.1063L36.527 37.4024C37.0361 37.0136 38.4997 35.1342 38.8816 34.3565H39.7088C39.327 35.6527 37.6088 37.0136 37.3543 37.8561C38.0543 38.1153 38.9452 38.893 39.7088 39.0874C40.3452 39.0874 42.9543 36.1063 43.527 35.3286C44.0361 34.6806 43.9724 34.2917 45.0542 34.3565C44.6724 35.3934 42.3815 37.7913 41.6815 38.4393C40.9815 39.0874 40.4725 39.541 39.7088 40.1243C39.0088 40.6427 38.3088 41.0964 37.5452 41.55C28.6998 46.7993 17.4999 45.1144 10.1818 38.3745C9.60903 37.8561 7.12723 35.2638 6.87268 34.2917C7.95449 34.2917 7.50904 34.1621 8.39994 35.3286C9.09994 36.2359 11.5817 38.9578 12.1545 39.0874C12.6636 39.0226 14.1272 38.1153 14.509 37.7913C14.1272 37.0136 12.2817 35.2638 12.1545 34.2917H12.8545C13.6817 35.2638 14.1908 36.3007 15.3363 37.4024C15.5908 37.4024 16.4181 37.0784 17.309 36.8192L17.6272 36.6896C18.3272 36.4303 18.9635 36.2359 19.3453 36.1063L18.709 34.3565H19.5362ZM26.1544 41.8093C24.2453 41.8093 22.2726 42.3277 21.2544 43.2998C22.3999 44.0775 29.9089 44.1423 30.9907 43.2998C30.2271 42.3925 27.7453 41.8093 26.1544 41.8093ZM15.3999 38.6337C15.0181 38.6986 14.6363 38.9578 14.2544 39.1522L13.3635 39.7355L13.2999 39.8003L13.2363 39.8651C13.809 40.5131 15.6544 41.4204 16.609 41.8741C17.1817 42.1333 17.8181 42.3925 18.4544 42.6517C19.2817 42.9758 19.918 43.2998 20.4908 42.6517C20.2362 42.2629 19.5999 42.0037 19.1544 41.6796C17.6272 40.5779 15.7181 38.8282 15.3999 38.6337ZM36.7179 38.5689C36.3998 38.8282 36.0816 39.0874 35.827 39.2818L35.6361 39.4114C35.0634 39.9947 34.427 40.5779 32.8998 41.6148C32.2634 42.0685 31.7543 42.2629 31.5634 42.5869C32.1998 43.1702 32.6452 42.8462 33.5361 42.5869C34.7452 42.1333 36.1452 41.4852 37.2907 40.8372C37.7361 40.5779 38.627 40.1243 38.8816 39.6707C38.3088 39.4114 37.5452 38.6986 36.7179 38.5689ZM19.918 36.884C19.2181 37.0136 17.4999 37.532 16.7363 37.9209C16.6726 37.9209 16.609 37.9857 16.4817 38.0505C16.3544 38.1153 16.3544 38.1153 16.2908 38.1801C16.5453 38.7634 20.6817 42.2629 21.7635 41.9389L22.718 41.4204C22.5271 41.0316 21.7635 39.9947 21.0635 38.8282L20.809 38.5041C20.5544 37.9209 20.1726 37.4024 19.918 36.884ZM32.3271 36.9488L30.9271 39.217C30.5452 39.8651 29.6543 40.902 29.3998 41.4852L30.2907 41.9389C30.9907 42.1333 32.3907 41.0316 32.9634 40.7076C33.7907 40.1243 35.4452 38.8282 35.827 38.1153C34.9998 37.7265 33.3452 37.0136 32.3271 36.9488ZM26.5362 36.1711L26.4725 37.6617C26.4725 38.3745 26.4089 40.4483 26.5998 40.902L28.4453 41.226C29.0816 40.5131 31.118 37.5968 31.3725 36.6896C30.7362 36.4303 27.4271 36.0415 26.5362 36.1711ZM25.6453 36.1063C24.5635 36.1063 21.5089 36.3655 20.809 36.6896C21.1271 37.532 22.0817 38.9578 22.5908 39.6058C23.7998 41.2908 23.6726 41.1612 24.4998 41.0316C24.8817 40.9668 25.2635 40.902 25.6453 40.8372V36.1063ZM3.81816 12.3224C6.29996 12.3224 9.29085 12.3872 10.8817 12.3872H11.1999C11.4545 12.3872 11.709 12.3872 11.9636 12.3872L12.5999 12.5168C12.8545 13.0353 12.7272 16.4052 12.6636 17.3125L9.79993 17.3773V27.6167C10.5636 27.6815 11.8999 27.8111 12.5999 27.6167C12.7272 27.9407 12.7272 28.7184 12.7272 29.5609V29.9497C12.7272 30.9218 12.6636 31.8939 12.6636 32.4123L0 32.3475L0.0636359 27.8111C0.445452 27.5519 0.445452 27.6167 0.445452 27.6815H1.52726C1.97271 27.6815 2.41817 27.6815 2.86362 27.6815C2.92725 27.4223 2.99089 25.6725 2.99089 23.7283V23.2747C2.99089 20.5528 2.92725 17.6365 2.86362 17.5069C2.35453 17.1829 0.763631 17.3773 0.0636359 17.3125L0.127272 12.5168C0.509088 12.3872 1.65453 12.3224 3.05453 12.3224H3.81816ZM15.909 22.5618C11.8999 19.0622 14.1272 11.6743 22.718 12.3872C23.7362 12.452 24.7544 12.6464 25.6453 12.9056C26.4089 13.1649 27.6816 13.8777 28.1271 13.9425L28.1907 12.9056C28.8907 12.776 31.7543 12.7112 32.3907 12.9056V19.5159H28.318C27.9362 19.3863 27.5544 18.0253 24.8817 17.1829C23.6089 16.794 21.0635 16.2108 20.1726 17.3773C19.7908 18.4142 22.5908 18.8678 23.8635 19.2567C25.3271 19.7103 26.7271 20.0343 28.1907 20.488C30.7362 21.2657 33.0907 23.5339 33.0271 26.515C32.8998 32.3475 25.5816 33.514 20.4908 31.6347C19.7908 31.3754 19.2181 30.9218 18.5817 30.7922L18.4544 32.0883C17.6272 32.0883 14.7635 32.2179 14.1272 32.0235L14.1908 25.0244H18.1362C19.1544 26.5798 20.4271 27.4871 22.3362 27.8759C23.418 28.0703 24.5635 28.0703 25.6453 27.8759C27.0453 27.6167 27.2998 26.9038 26.0271 26.4502C22.8453 25.2188 18.0726 24.4412 15.909 22.5618ZM43.5906 12.3872C46.4542 12.0632 50.336 12.9705 52.2451 14.3314C54.4087 15.8219 55.5542 17.7013 55.936 21.0712C56.2542 23.9875 55.3633 27.4871 53.7724 29.172C48.9997 34.0973 37.9907 33.2548 34.9361 27.6815C34.2998 26.515 33.918 25.2188 33.7907 23.6635C33.2816 16.8588 36.2725 13.2297 43.5906 12.3872ZM44.0997 17.2477C42.6361 17.4421 41.9997 17.8957 41.6815 19.1919C41.3634 20.7472 41.1725 25.3485 42.2543 26.5798C42.8906 27.2926 44.3543 27.6815 45.7542 27.4871C48.3633 27.0982 48.2997 24.8948 48.236 22.5618V22.3026V22.0433C48.236 21.9137 48.236 21.7841 48.236 21.5897C48.236 20.4232 48.3633 18.9326 47.5997 18.0901C46.8997 17.3125 45.4997 17.0532 44.0997 17.2477ZM26.4725 0.00918997C32.0089 -0.185229 38.4361 2.73106 41.9997 6.2954C42.6997 6.94346 45.0542 9.53572 45.1815 10.3134C44.0997 10.443 44.1633 9.98936 43.6543 9.3413C42.9543 8.3692 40.4088 5.58253 39.8361 5.58253C39.327 5.77695 37.927 6.55463 37.6088 6.87866C37.8634 7.52672 39.8361 9.40611 39.9634 10.3782C39.0725 10.443 39.2634 10.5078 38.8179 9.85975C38.5634 9.53572 38.3725 9.27649 38.1816 8.95246C37.8634 8.49882 37.0998 7.72114 36.8452 7.2675L32.8998 8.62843L33.5361 10.3134C32.7725 10.3782 32.8361 10.3782 32.518 9.79494C32.3271 9.47091 32.1998 9.14688 32.0089 8.88765C31.4998 8.82285 29.7816 9.21169 29.0816 9.27649C25.4544 9.73014 27.3635 9.21169 26.7271 10.3134H26.0271L25.9635 9.47091C25.0089 9.40611 24.1817 9.3413 23.2271 9.27649C22.5271 9.21169 21.2544 8.88765 20.618 8.95246L19.9817 10.3782H19.2181C19.3453 9.73014 19.7908 9.27649 19.7908 8.62843C18.5181 8.23959 17.2453 7.65633 16.0999 7.39711C15.5272 7.78595 14.4454 9.27649 13.9999 9.92455C13.6817 10.3782 13.6817 10.3782 12.9181 10.3782C13.1726 9.47091 14.6999 7.65633 15.209 6.94346C14.8908 6.61943 13.4908 5.77695 12.9817 5.58253C11.8999 6.10098 9.99084 8.3044 9.16358 9.3413C8.65449 9.98936 8.71812 10.3782 7.63631 10.3134C7.89086 9.3413 10.309 6.74905 10.9454 6.2306C12.2181 5.06408 13.4272 4.09199 15.0817 3.11989C18.4544 1.1757 21.8271 0.203609 26.4725 0.00918997ZM22.9089 5.06408C22.4635 5.71214 21.4453 7.2675 21.1908 8.04517C22.3362 8.3692 24.0544 8.62843 25.3271 8.62843H25.9635C25.9635 7.78595 26.0907 4.41602 25.8998 3.76796C23.8635 3.50873 24.3089 3.11989 22.9089 5.06408ZM28.6998 3.57354L26.8544 3.83276V8.56362C27.9362 8.75804 30.6089 8.3044 31.5634 8.04517C31.2452 7.07308 30.0998 5.51773 29.4634 4.67524C29.2089 4.2216 28.8907 3.89757 28.6998 3.57354ZM19.7271 4.02718C19.2181 4.35121 17.0544 5.97137 16.8635 6.61943C17.3726 7.00827 19.5362 7.78595 20.2999 7.78595C20.809 6.74905 23.0998 3.44392 23.0998 3.24951C21.9544 2.34222 21.1271 3.05509 19.7271 4.02718ZM29.5907 3.1847L32.518 7.78595C33.2816 7.59153 35.5089 6.94347 35.9543 6.48982C35.3179 5.45292 32.6452 3.70315 31.4998 2.99028C30.5452 2.47183 30.4816 2.86067 29.5907 3.1847ZM19.0908 2.08299C17.9453 2.47183 14.3817 4.09199 13.809 4.93447C14.1908 5.38811 15.1454 5.90656 15.8453 6.10098L18.3272 4.02718C18.8999 3.57354 20.6817 2.47183 20.9362 2.08299C20.3635 1.43493 19.9817 1.75896 19.0908 2.08299ZM31.818 2.01819C31.9452 2.34222 33.7907 3.44392 34.427 3.96237C34.8725 4.35121 35.2543 4.61044 35.6998 4.99928C36.1452 5.38811 36.4634 5.84176 36.9088 6.10098C37.2907 6.03618 38.627 5.19369 38.9452 4.99928C38.8179 4.67524 39.0088 4.93447 38.627 4.61044C37.6088 3.76796 35.0634 2.53664 33.727 2.08299C32.8361 1.82377 32.4543 1.49973 31.818 2.01819ZM22.0817 1.24051C22.018 1.24051 21.8908 1.30532 21.8271 1.30532C21.5726 1.43493 21.6999 1.37012 21.5726 1.49973C23.2271 2.34222 23.8635 2.92547 26.3453 2.92547C27.8725 2.92547 30.4816 2.34222 31.118 1.37012C28.6362 0.786866 24.7544 0.592447 22.0817 1.24051Z" fill="#0E1014"/>
</g>
<defs>
<clipPath id="clip0_1409_17744">
<rect width="56" height="70" fill="white"/>
</clipPath>
</defs>
</svg>
